<svg width="1920" height="1080" viewBox="0 0 1920 1080" fill="none" xmlns="http://www.w3.org/2000/svg">
<g clip-path="url(#clip0_1028_5695)">
<mask id="mask0_1028_5695" style="mask-type:alpha" maskUnits="userSpaceOnUse" x="0" y="0" width="1920" height="1080">
<rect width="1920" height="1080" fill="#F4EAE2"/>
</mask>
<g mask="url(#mask0_1028_5695)">
<rect width="1920" height="1080" fill="#FFF500"/>
<path fill-rule="evenodd" clip-rule="evenodd" d="M147.377 892.455L174.285 890.814C192.646 887.373 217.471 879.395 245.719 863.159C274.972 846.344 289.083 835.433 298.404 828.227C310.154 819.142 314.289 815.945 331.552 814.226C349.026 812.486 360.078 821.136 369.482 828.497C380.099 836.808 388.617 843.475 401.908 831.691C421.607 814.226 441.197 811.96 459.599 824.5C463.341 827.05 467.787 830.815 473.065 835.284C497.555 856.024 539.949 891.926 612.974 891.926C616.101 891.926 616.055 892.202 613.217 892.672L613.927 892.722C588.256 901.093 562.586 918.001 536.186 935.389C495.795 961.991 453.698 989.719 407.281 989.719C402.405 989.719 397.31 989.88 391.992 990.048C354.364 991.24 305.631 992.784 244.847 939.968C202.639 903.293 175.115 898.845 157.211 895.951C151.573 895.039 146.888 894.282 143 892.722L145.689 892.558C144.601 892.383 143.701 892.168 143 891.926C144.457 892.104 145.916 892.281 147.377 892.455Z" fill="#FFFA80"/>
<path d="M1407.86 1140.32C1401.38 1098 1403.9 1116.6 1393.04 1031.61C1367.15 828.952 1362.01 807.055 1364.6 762.379C1369.6 676.049 1427.28 640.863 1430.81 653.918C1430.69 651.914 1430.68 649.924 1430.79 647.957C1430.78 647.196 1430.79 646.767 1430.85 647.045C1432.34 626.823 1445.9 609.152 1465.62 602.752L1477.11 599.023C1503.1 590.583 1529.99 609.255 1531.15 636.561L1531.34 641.001C1531.94 604.228 1530.57 575.249 1557.01 563.556C1609.61 540.296 1638.54 560.696 1643.02 657.376L1648.64 707.711C1640.48 533.306 1634.87 394.575 1642.63 358.872C1649.91 325.404 1705.59 312.313 1724.46 354.828C1730.39 404.123 1731.05 437.165 1734.08 536.5L1745.29 905.897C1745.31 906.684 1746.18 907.144 1746.83 906.701C1752.43 902.892 1772.44 889.197 1782.44 881.129C1817.01 853.253 1859.62 818.983 1872.76 816.456C1903.98 810.452 1930.06 833.182 1927.4 865.518C1923.93 882.67 1908.03 903.847 1892.83 921.27C1851.15 969.061 1828.79 988.247 1784.43 1047.27C1741.33 1104.62 1744.14 1103.78 1717.91 1143.57C1716.44 1145.81 1713.93 1147.16 1711.24 1147.16H1415.78C1411.82 1147.16 1408.45 1144.23 1407.86 1140.32Z" fill="#FFFA80"/>
<path d="M1659.51 212.01L1659.51 212.02H1659.5L1657.89 213.835C1580.81 301.104 1444.67 300.623 1368.17 213.14C1367.81 212.728 1368.05 212.097 1368.56 212.01C1368.05 211.923 1367.81 211.292 1368.17 210.88C1444.67 123.397 1580.81 122.916 1657.89 210.185L1659.5 212H1659.51L1659.51 212.01Z" fill="#FFFA80"/>
<path d="M139.882 249C132.835 249 127.122 254.713 127.122 261.76H131.122C131.122 256.922 135.044 253 139.882 253V249ZM152.642 261.76C152.642 254.713 146.929 249 139.882 249V253C144.72 253 148.642 256.922 148.642 261.76H152.642ZM152.642 430.24V261.76H148.642V430.24H152.642ZM139.882 443C146.929 443 152.642 437.287 152.642 430.24H148.642C148.642 435.078 144.72 439 139.882 439V443ZM127.122 430.24C127.122 437.287 132.835 443 139.882 443V439C135.044 439 131.122 435.078 131.122 430.24H127.122ZM127.122 261.76V430.24H131.122V261.76H127.122ZM10.7601 287C3.71291 287 -2 292.713 -2 299.76H2C2 294.922 5.92205 291 10.7601 291V287ZM23.5203 299.76C23.5203 292.713 17.8074 287 10.7601 287V291C15.5982 291 19.5203 294.922 19.5203 299.76H23.5203ZM23.5203 392.24V299.76H19.5203V392.24H23.5203ZM10.7601 405C17.8074 405 23.5203 399.287 23.5203 392.24H19.5203C19.5203 397.078 15.5982 401 10.7601 401V405ZM-2 392.24C-2 399.287 3.71291 405 10.7601 405V401C5.92205 401 2 397.078 2 392.24H-2ZM-2 299.76V392.24H2V299.76H-2ZM66.5608 270.205C66.5608 265.366 70.4829 261.444 75.321 261.444V257.444C68.2737 257.444 62.5608 263.157 62.5608 270.205H66.5608ZM66.5608 421.795V270.205H62.5608V421.795H66.5608ZM75.321 430.556C70.4829 430.556 66.5608 426.634 66.5608 421.795H62.5608C62.5608 428.843 68.2737 434.556 75.321 434.556V430.556ZM84.0811 421.795C84.0811 426.634 80.159 430.556 75.321 430.556V434.556C82.3682 434.556 88.0811 428.843 88.0811 421.795H84.0811ZM84.0811 270.205V421.795H88.0811V270.205H84.0811ZM75.321 261.444C80.159 261.444 84.0811 265.367 84.0811 270.205H88.0811C88.0811 263.157 82.3682 257.444 75.321 257.444V261.444ZM204.443 295.444C197.396 295.444 191.683 301.157 191.683 308.204H195.683C195.683 303.366 199.605 299.444 204.443 299.444V295.444ZM217.203 308.204C217.203 301.157 211.49 295.444 204.443 295.444V299.444C209.281 299.444 213.203 303.366 213.203 308.204H217.203ZM217.203 383.795V308.204H213.203V383.795H217.203ZM204.443 396.555C211.49 396.555 217.203 390.842 217.203 383.795H213.203C213.203 388.633 209.281 392.555 204.443 392.555V396.555ZM191.683 383.795C191.683 390.843 197.396 396.555 204.443 396.555V392.555C199.605 392.555 195.683 388.633 195.683 383.795H191.683ZM191.683 308.204V383.795H195.683V308.204H191.683ZM260.243 308.204C260.243 303.366 264.165 299.444 269.004 299.444V295.444C261.956 295.444 256.243 301.157 256.243 308.204H260.243ZM260.243 383.795V308.204H256.243V383.795H260.243ZM269.004 392.555C264.165 392.555 260.243 388.633 260.243 383.795H256.243C256.243 390.843 261.956 396.555 269.004 396.555V392.555ZM277.764 383.795C277.764 388.633 273.842 392.555 269.004 392.555V396.555C276.051 396.555 281.764 390.842 281.764 383.795H277.764ZM277.764 308.204V383.795H281.764V308.204H277.764ZM269.004 299.444C273.842 299.444 277.764 303.366 277.764 308.204H281.764C281.764 301.157 276.051 295.444 269.004 295.444V299.444Z" fill="#FFD600"/>
<path fill-rule="evenodd" clip-rule="evenodd" d="M1000.64 959.24C1000.64 965.183 995.824 970 989.882 970C983.939 970 979.122 965.183 979.122 959.24V790.76C979.122 784.817 983.939 780 989.882 780C995.824 780 1000.64 784.817 1000.64 790.76V959.24ZM1129.76 921.24C1129.76 927.183 1124.95 932 1119 932C1113.06 932 1108.24 927.183 1108.24 921.24V828.76C1108.24 822.818 1113.06 818 1119 818C1124.95 818 1129.76 822.818 1129.76 828.76V921.24ZM1054.44 961.555C1060.39 961.555 1065.2 956.738 1065.2 950.795V799.204C1065.2 793.262 1060.39 788.444 1054.44 788.444C1048.5 788.444 1043.68 793.262 1043.68 799.204V950.795C1043.68 956.738 1048.5 961.555 1054.44 961.555ZM936.081 912.795C936.081 918.738 931.264 923.556 925.321 923.556C919.378 923.556 914.561 918.738 914.561 912.795V837.205C914.561 831.262 919.378 826.444 925.321 826.444C931.264 826.444 936.081 831.262 936.081 837.205V912.795ZM860.76 923.556C866.703 923.556 871.52 918.738 871.52 912.795V837.205C871.52 831.262 866.703 826.444 860.76 826.444C854.817 826.444 850 831.262 850 837.205V912.795C850 918.738 854.817 923.556 860.76 923.556Z" fill="#FFFA80"/>
<path d="M1620.42 193.641L1619.29 194.634L1619.29 194.634L1620.42 193.641ZM1620.91 196.468C1621.46 197.089 1622.41 197.148 1623.03 196.6C1623.65 196.051 1623.71 195.103 1623.16 194.482L1620.91 196.468ZM1619.29 194.634L1620.91 196.468L1623.16 194.482L1621.54 192.648L1619.29 194.634ZM1330.84 196.454C1406.56 108.526 1542.47 107.669 1619.29 194.634L1621.54 192.648C1543.52 104.319 1405.47 105.191 1328.57 194.497L1330.84 196.454Z" fill="#FFD600"/>
<path d="M1331.33 198.241L1332.45 197.248L1332.45 197.248L1331.33 198.241ZM1330.83 195.413C1330.28 194.793 1329.33 194.734 1328.71 195.282C1328.09 195.831 1328.03 196.779 1328.58 197.4L1330.83 195.413ZM1332.45 197.248L1330.83 195.413L1328.58 197.4L1330.2 199.234L1332.45 197.248ZM1620.9 195.428C1545.18 283.355 1409.27 284.213 1332.45 197.248L1330.2 199.234C1408.22 287.562 1546.27 286.691 1623.17 197.385L1620.9 195.428Z" fill="#FFD600"/>
<ellipse cx="1476.8" cy="187.096" rx="63.3074" ry="59.5834" fill="#FFD600"/>
<path d="M1476.8 98V58" stroke="#FFD600" stroke-width="3" stroke-linecap="round"/>
<path d="M1592.95 121.662L1621.23 93.3774" stroke="#FFD600" stroke-width="3" stroke-linecap="round"/>
<path d="M1357.99 121.662L1329.7 93.3774" stroke="#FFD600" stroke-width="3" stroke-linecap="round"/>
<path d="M1093.63 299.081C1094.44 356.105 1096.17 477.737 1082.63 506.763C1063.83 547.075 1050.94 563.2 1020.86 582.012C990.777 600.824 1002.06 649.198 1028.91 662.636C1053.3 674.835 1075.64 663.394 1087.33 657.411C1089.88 656.103 1091.93 655.055 1093.37 654.573C1096.21 653.627 1099.57 657.027 1104.32 661.83C1112.92 670.535 1126.08 683.848 1148.93 684.262V684.272C1149.12 684.272 1149.3 684.271 1149.48 684.27C1149.66 684.271 1149.85 684.272 1150.03 684.272V684.262C1172.88 683.848 1186.04 670.535 1194.65 661.83C1199.39 657.027 1202.76 653.627 1205.59 654.573C1207.04 655.055 1209.08 656.103 1211.64 657.411C1223.32 663.394 1245.67 674.835 1270.05 662.636C1296.91 649.198 1308.19 600.824 1278.11 582.012C1248.03 563.2 1235.13 547.075 1216.33 506.763C1202.8 477.737 1204.53 356.105 1205.34 299.081C1205.47 289.727 1205.58 282.111 1205.59 276.928C1205.59 276.376 1205.14 276 1204.59 276H1149.93C1149.64 276 1149.32 276 1149.03 276H1094.37C1093.82 276 1093.37 276.376 1093.37 276.928C1093.38 282.111 1093.49 289.727 1093.63 299.081Z" fill="#FFFA80"/>
<path d="M1174.1 486.763C1192.9 527.075 1205.79 543.2 1235.87 562.012C1265.95 580.824 1254.67 629.198 1227.81 642.636C1198.1 657.502 1177 637.261 1168.94 634.573C1160.88 631.886 1150.89 661.479 1122.96 664.272" stroke="#FFD600" stroke-width="3" stroke-linecap="round"/>
<path d="M1065.37 256C1065.37 290.937 1070.52 452.682 1054.63 486.763C1035.83 527.075 1022.94 543.2 992.855 562.012C962.775 580.824 974.055 629.198 1000.91 642.636C1030.63 657.502 1057.31 637.261 1065.37 634.573C1073.43 631.886 1085.72 664.272 1122.03 664.272" stroke="#FFD600" stroke-width="3" stroke-linecap="round"/>
<path d="M618.184 104.555C673.184 133.364 708.184 207.555 639.684 331.055C619.673 367.133 649.579 420.555 626.184 462.055C602.789 503.555 543.184 518.055 508.184 503.055C468.184 485.912 449.763 445.777 460.935 415.055C472.107 384.332 473.503 373.287 460.935 356.529C441.384 330.461 408.799 294.153 400.42 247.603C392.041 201.054 404.859 157.294 447.684 120.055C490.51 82.815 559.532 73.8318 618.184 104.555Z" fill="#FFFA80"/>
<path d="M580.184 79.4998C635.184 108.309 670.184 182.5 601.684 306C581.673 342.078 611.579 395.5 588.184 437C564.789 478.5 505.184 493 470.184 478C430.184 460.857 411.763 420.723 422.935 390C434.107 359.277 435.503 348.232 422.935 331.474C403.384 305.407 370.799 269.098 362.42 222.548C354.041 175.999 366.859 132.24 409.684 95C452.51 57.7603 521.532 48.7771 580.184 79.4998Z" stroke="#FFD600" stroke-width="3" stroke-linecap="round"/>
<path d="M420.684 179.5C425.684 138 484.729 112.769 529.184 124.5C565.184 134 584.184 162.26 584.184 199.5C584.184 236.739 553.718 261.709 540.684 318.5C536.959 334.732 531.184 358.5 540.684 380.5" stroke="#FFD600" stroke-width="3" stroke-linecap="round"/>
<path d="M449.003 244.158C449.003 187.367 566.184 175.5 561.184 263" stroke="#FFD600" stroke-width="3" stroke-linecap="round"/>
<path d="M113.5 867.054C122.412 870.136 153.812 867.57 206.719 837.159C272.853 799.145 261.596 791.308 292.552 788.226C329.754 784.522 337.845 827.912 362.908 805.691C382.607 788.226 402.197 785.96 420.599 798.5C441.706 812.883 485.212 865.926 573.974 865.926C604.93 865.926 324.916 893.021 104 865.926" stroke="#FFD600" stroke-width="3" stroke-linecap="round"/>
<path d="M104 866.722C120.236 873.238 150.348 865.745 205.847 913.968C275.221 974.247 328.896 963.719 368.281 963.719C445.036 963.719 509.981 887.901 574.927 866.722" stroke="#FFD600" stroke-width="3" stroke-linecap="round"/>
<path d="M1405.85 616.045C1409.7 635.642 1408.34 628.875 1414.59 676.711L1418.61 712.17C1417.27 701.295 1415.42 689.336 1414.59 676.711L1418.61 712.17L1405.81 622.918C1405.67 620.604 1405.68 618.309 1405.85 616.045C1407.34 595.823 1420.9 578.152 1440.62 571.752L1452.11 568.023C1478.1 559.583 1504.99 578.255 1506.15 605.561L1506.34 610.001L1511.46 650.345C1512.39 662.557 1512.4 657.995 1513.25 669.491L1515.57 694.384L1511.46 650.345C1509.7 627.156 1508.18 633.066 1506.34 610.001L1506.15 605.561C1504.99 578.255 1478.1 559.583 1452.11 568.023L1440.62 571.752C1420.9 578.152 1407.34 595.823 1405.85 616.045Z" fill="#FFD600"/>
<path d="M1382.42 1112.39C1382.54 1113.21 1383.31 1113.77 1384.13 1113.65C1384.95 1113.52 1385.51 1112.76 1385.38 1111.94L1382.42 1112.39ZM1368.04 1000.61L1369.53 1000.42L1368.04 1000.61ZM1339.6 731.379L1338.1 731.292L1339.6 731.379ZM1414.59 676.711L1416.09 676.542L1416.08 676.529L1416.08 676.516L1414.59 676.711ZM1418.61 712.17L1417.12 712.383C1417.24 713.194 1417.99 713.762 1418.8 713.657C1419.61 713.553 1420.19 712.815 1420.1 712.001L1418.61 712.17ZM1514.08 694.524C1514.15 695.349 1514.88 695.955 1515.71 695.878C1516.53 695.801 1517.14 695.07 1517.06 694.245L1514.08 694.524ZM1513.25 669.491L1511.75 669.602C1511.75 669.611 1511.75 669.621 1511.75 669.63L1513.25 669.491ZM1506.34 610.001L1504.84 610.065L1504.84 610.093L1504.84 610.121L1506.34 610.001ZM1532.01 532.556L1532.62 533.928L1532.62 533.928L1532.01 532.556ZM1618.02 626.376L1616.52 626.445L1616.53 626.494L1616.53 626.542L1618.02 626.376ZM1623.64 676.711L1622.14 676.877C1622.23 677.681 1622.95 678.27 1623.75 678.206C1624.56 678.142 1625.17 677.449 1625.13 676.641L1623.64 676.711ZM1617.63 327.872L1619.1 328.19L1617.63 327.872ZM1709.08 505.5L1710.58 505.454L1710.58 505.454L1709.08 505.5ZM1757.44 850.129L1758.38 851.296L1757.44 850.129ZM1847.76 785.456L1847.48 783.983L1847.76 785.456ZM1867.83 890.27L1868.96 891.256L1867.83 890.27ZM1689.29 1111.34C1688.83 1112.03 1689.02 1112.96 1689.71 1113.41C1690.4 1113.87 1691.33 1113.68 1691.79 1112.99L1689.29 1111.34ZM1440.62 571.752L1441.08 573.179L1441.08 573.179L1440.62 571.752ZM1452.11 568.023L1451.64 566.596L1451.64 566.596L1452.11 568.023ZM1506.15 605.561L1507.65 605.497L1507.65 605.497L1506.15 605.561ZM1699.46 323.828L1700.95 323.648L1700.93 323.425L1700.84 323.219L1699.46 323.828ZM1902.4 834.518L1903.87 834.815L1903.88 834.729L1903.89 834.641L1902.4 834.518ZM1721.83 875.701L1722.67 876.941L1721.83 875.701ZM1720.29 874.897L1718.79 874.942L1720.29 874.897ZM1385.38 1111.94C1377.58 1060.62 1380.93 1089.65 1369.53 1000.42L1366.55 1000.8C1377.96 1090.08 1374.62 1061.12 1382.42 1112.39L1385.38 1111.94ZM1369.53 1000.42C1343.63 797.625 1338.52 775.958 1341.1 731.466L1338.1 731.292C1335.5 776.152 1340.68 798.279 1366.55 1000.8L1369.53 1000.42ZM1341.1 731.466C1343.58 688.63 1359.12 658.565 1374.39 640.859C1382.04 631.99 1389.58 626.272 1395.32 623.575C1398.21 622.216 1400.5 621.69 1402.07 621.787C1402.83 621.834 1403.34 622.024 1403.67 622.26C1403.98 622.481 1404.23 622.803 1404.36 623.31L1407.26 622.527C1406.96 621.402 1406.33 620.469 1405.41 619.813C1404.51 619.172 1403.41 618.864 1402.25 618.792C1399.96 618.651 1397.13 619.407 1394.04 620.86C1387.82 623.786 1379.96 629.813 1372.12 638.9C1356.42 657.106 1340.62 687.799 1338.1 731.292L1341.1 731.466ZM1404.36 623.31C1404.37 623.351 1404.39 623.415 1404.42 623.487C1404.44 623.539 1404.5 623.697 1404.63 623.866C1404.69 623.955 1405.18 624.588 1406.06 624.458C1406.84 624.343 1407.15 623.717 1407.18 623.662C1407.31 623.402 1407.34 623.151 1407.34 623.139C1407.35 623.059 1407.36 622.982 1407.37 622.925C1407.38 622.705 1407.38 622.384 1407.38 622.045C1407.38 621.34 1407.36 620.342 1407.34 619.371C1407.32 618.388 1407.29 617.435 1407.29 616.789C1407.29 616.45 1407.29 616.252 1407.29 616.177C1407.3 616.159 1407.29 616.187 1407.29 616.238C1407.28 616.26 1407.27 616.332 1407.24 616.424C1407.23 616.47 1407.2 616.555 1407.15 616.654C1407.1 616.738 1406.99 616.935 1406.77 617.117C1406.52 617.329 1406.09 617.528 1405.57 617.439C1405.11 617.361 1404.84 617.105 1404.73 616.984C1404.52 616.758 1404.43 616.524 1404.43 616.506C1404.4 616.438 1404.39 616.387 1404.38 616.37C1404.38 616.349 1404.38 616.335 1404.38 616.334L1407.32 615.756C1407.31 615.713 1407.29 615.586 1407.23 615.447C1407.22 615.415 1407.14 615.172 1406.92 614.941C1406.81 614.817 1406.53 614.559 1406.07 614.481C1405.55 614.392 1405.12 614.592 1404.86 614.805C1404.64 614.988 1404.53 615.189 1404.48 615.276C1404.43 615.38 1404.4 615.469 1404.38 615.521C1404.35 615.625 1404.33 615.712 1404.33 615.754C1404.31 615.844 1404.3 615.927 1404.3 615.978C1404.29 616.18 1404.29 616.487 1404.29 616.809C1404.29 617.485 1404.32 618.47 1404.34 619.439C1404.36 620.419 1404.38 621.385 1404.38 622.053C1404.38 622.4 1404.38 622.617 1404.37 622.713C1404.37 622.734 1404.37 622.723 1404.38 622.692C1404.38 622.677 1404.38 622.638 1404.4 622.586C1404.41 622.551 1404.44 622.424 1404.52 622.272C1404.54 622.225 1404.84 621.604 1405.62 621.49C1406.49 621.361 1406.97 621.99 1407.03 622.072C1407.15 622.233 1407.21 622.379 1407.22 622.413C1407.24 622.469 1407.26 622.512 1407.26 622.527L1404.36 623.31ZM1404.38 616.334C1408.21 635.869 1406.85 629.03 1413.11 676.905L1416.08 676.516C1409.84 628.72 1411.18 635.414 1407.32 615.756L1404.38 616.334ZM1413.1 676.809C1413.93 689.491 1415.79 701.537 1417.12 712.353L1420.1 711.986C1418.75 701.054 1416.92 689.181 1416.09 676.612L1413.1 676.809ZM1420.1 712.001L1416.09 676.542L1413.1 676.879L1417.12 712.338L1420.1 712.001ZM1420.09 711.957L1407.3 622.706L1404.33 623.131L1417.12 712.383L1420.09 711.957ZM1509.97 650.484L1514.08 694.524L1517.06 694.245L1512.95 650.205L1509.97 650.484ZM1517.06 694.245L1514.74 669.352L1511.75 669.63L1514.08 694.524L1517.06 694.245ZM1514.74 669.38C1514.32 663.609 1514.1 661.852 1513.87 660.003C1513.65 658.205 1513.42 656.316 1512.96 650.231L1509.96 650.458C1510.43 656.586 1510.67 658.521 1510.89 660.37C1511.11 662.167 1511.33 663.876 1511.75 669.602L1514.74 669.38ZM1512.96 650.231C1512.07 638.575 1511.24 634.198 1510.4 629.843C1509.58 625.584 1508.75 621.35 1507.83 609.882L1504.84 610.121C1505.77 621.717 1506.62 626.061 1507.46 630.411C1508.28 634.664 1509.09 638.926 1509.96 650.458L1512.96 650.231ZM1507.84 610.026C1508.14 591.54 1507.95 575.315 1510.95 562.207C1513.91 549.229 1519.95 539.532 1532.62 533.928L1531.41 531.184C1517.64 537.272 1511.14 547.912 1508.02 561.539C1504.94 575.038 1505.14 591.69 1504.84 609.977L1507.84 610.026ZM1532.62 533.928C1558.77 522.364 1578.33 521.961 1592 535.553C1598.93 542.438 1604.52 553.049 1608.64 568.057C1612.77 583.054 1615.41 602.336 1616.52 626.445L1619.52 626.306C1618.4 602.076 1615.74 582.552 1611.54 567.261C1607.33 551.979 1601.56 540.817 1594.12 533.425C1579.06 518.461 1557.85 519.488 1531.41 531.184L1532.62 533.928ZM1616.53 626.542L1622.14 676.877L1625.13 676.544L1619.51 626.21L1616.53 626.542ZM1625.13 676.641C1621.05 589.436 1617.61 511.169 1616.16 450.243C1615.44 419.779 1615.21 393.666 1615.65 372.946C1616.09 352.189 1617.19 336.958 1619.1 328.19L1616.17 327.553C1614.19 336.638 1613.09 352.137 1612.65 372.883C1612.21 393.667 1612.44 419.832 1613.16 450.314C1614.62 511.28 1618.06 589.58 1622.14 676.781L1625.13 676.641ZM1722.67 876.941C1728.26 873.143 1748.32 859.411 1758.38 851.296L1756.5 848.961C1746.55 856.983 1726.6 870.641 1720.99 874.46L1722.67 876.941ZM1758.38 851.296C1775.67 837.354 1794.94 821.837 1811.53 809.49C1819.83 803.315 1827.43 797.951 1833.76 793.978C1840.17 789.961 1845.07 787.501 1848.04 786.929L1847.48 783.983C1843.88 784.675 1838.53 787.446 1832.17 791.436C1825.74 795.471 1818.06 800.89 1809.74 807.083C1793.1 819.472 1773.78 835.027 1756.5 848.961L1758.38 851.296ZM1866.7 889.284C1825.11 936.968 1802.63 956.293 1758.23 1015.37L1760.63 1017.17C1804.95 958.201 1827.18 939.155 1868.96 891.256L1866.7 889.284ZM1758.23 1015.37C1713.87 1074.39 1718.12 1067.81 1689.29 1111.34L1691.79 1112.99C1720.57 1069.55 1716.27 1076.19 1760.63 1017.17L1758.23 1015.37ZM1441.08 573.179L1452.57 569.449L1451.64 566.596L1440.15 570.326L1441.08 573.179ZM1504.65 605.624L1504.84 610.065L1507.84 609.938L1507.65 605.497L1504.65 605.624ZM1504.85 610.19L1509.97 650.534L1512.95 650.156L1507.82 609.812L1504.85 610.19ZM1452.57 569.449C1477.62 561.316 1503.53 579.311 1504.65 605.624L1507.65 605.497C1506.44 577.2 1478.58 557.85 1451.64 566.596L1452.57 569.449ZM1407.31 622.825C1407.17 620.578 1407.18 618.351 1407.34 616.155L1404.35 615.935C1404.18 618.266 1404.17 620.629 1404.31 623.012L1407.31 622.825ZM1407.34 616.155C1408.79 596.535 1421.95 579.388 1441.08 573.179L1440.15 570.326C1419.85 576.916 1405.88 595.112 1404.35 615.935L1407.34 616.155ZM1707.58 505.545L1718.79 874.942L1721.78 874.851L1710.58 505.454L1707.58 505.545ZM1619.1 328.19C1622.57 312.22 1637.67 300.927 1654.38 298.845C1670.99 296.776 1688.95 303.845 1698.09 324.436L1700.84 323.219C1691.1 301.296 1671.79 293.653 1654.01 295.868C1636.35 298.069 1619.97 310.055 1616.17 327.553L1619.1 328.19ZM1697.97 324.007C1703.9 373.22 1704.55 406.184 1707.58 505.545L1710.58 505.454C1707.55 406.146 1706.89 373.026 1700.95 323.648L1697.97 324.007ZM1848.04 786.929C1878.3 781.11 1903.48 803.063 1900.9 834.395L1903.89 834.641C1906.63 801.301 1879.66 777.794 1847.48 783.983L1848.04 786.929ZM1900.93 834.221C1899.25 842.518 1894.53 851.91 1888.26 861.469C1882 871.006 1874.28 880.598 1866.7 889.284L1868.96 891.256C1876.58 882.518 1884.4 872.811 1890.77 863.115C1897.11 853.442 1902.08 843.67 1903.87 834.815L1900.93 834.221ZM1720.99 874.46C1721.35 874.212 1721.77 874.501 1721.78 874.851L1718.79 874.942C1718.84 876.866 1721 878.076 1722.67 876.941L1720.99 874.46Z" fill="#FFD600"/>
</g>
</g>
<defs>
<clipPath id="clip0_1028_5695">
<rect width="1920" height="1080" fill="white"/>
</clipPath>
</defs>
</svg>
