<svg width="390" height="643" viewBox="0 0 390 643" fill="none" xmlns="http://www.w3.org/2000/svg">
<g clip-path="url(#clip0_1172_1059)">
<mask id="mask0_1172_1059" style="mask-type:alpha" maskUnits="userSpaceOnUse" x="-1" y="-1" width="391" height="644">
<rect x="-0.199219" y="-0.309814" width="390" height="643" fill="#D9D9D9"/>
</mask>
<g mask="url(#mask0_1172_1059)">
<rect x="-0.199219" y="-0.309814" width="390" height="643" fill="#D9D9D9"/>
<rect x="-0.199219" y="-0.309814" width="869" height="643" fill="white"/>
<circle cx="79.8215" cy="79.8215" r="79.8215" transform="matrix(-1 0 0 1 461.643 555)" fill="#FFF500"/>
<circle cx="21.9821" cy="-27.0179" r="334.982" fill="#FFF500"/>
<path d="M261.189 228.225L212.09 218.427L228.638 267.019L261.189 228.225Z" stroke="black" stroke-width="1.35804" stroke-linejoin="round"/>
<circle cx="312" cy="597" r="23.32" stroke="black" stroke-width="1.36" stroke-linejoin="round"/>
<rect x="182.707" y="296" width="7.3219" height="27.8701" rx="3.66095" transform="rotate(45 182.707 296)" fill="black"/>
<path d="M81.116 89.9187H66.5107C71.8217 91.7775 78.8145 94.4773 82.488 96.4246L80.0095 100.939C76.1148 98.7261 68.0155 95.3182 62.3062 93.238L64.2978 89.9187H62.7045C60.5801 95.3624 55.8445 98.8588 44.0275 100.806C43.6734 99.3899 42.4342 97.177 41.4163 96.0706C50.3122 94.8756 54.4725 92.884 56.5526 89.9187H43.3636V85.4486H58.2787C58.4115 84.7405 58.5442 83.9438 58.6327 83.1472H42.3457V78.5885H59.3409V76.2429H46.2404V71.817H59.3409V69.5599H43.7177V64.9127H52.1268C51.4629 63.585 50.5335 62.1687 49.6483 61.018L54.3397 59.1592C55.7117 60.7082 57.0837 62.8326 57.6591 64.3374L56.3756 64.9127H66.1124C67.2189 63.1867 68.5466 60.8852 69.2547 59.1592L74.9198 60.6197C73.9461 62.1687 72.9282 63.6292 71.9545 64.9127H80.4521V69.5599H64.7846V71.817H78.3277V76.2429H64.7846V78.5885H82.3995V83.1472H64.2093C64.1208 83.9438 63.988 84.6962 63.8552 85.4486H81.116V89.9187ZM94.5705 59.6017L99.5717 61.5491C96.6949 65.6651 92.3576 69.9582 88.2858 72.6137C87.7104 71.463 86.427 69.2943 85.6303 68.2764C89.0382 66.1077 92.7559 62.5228 94.5705 59.6017ZM114.708 74.7381V77.0395H119.399V74.7381H114.708ZM114.708 68.0108V70.268H119.399V68.0108H114.708ZM124.401 81.2883H114.708V83.5012H124.843V87.8385H114.708V90.1842H126.613V94.7428H114.708V100.85H109.663V94.7428H98.5537V90.1842H109.663V87.8385H100.28V83.5012H109.663V81.2883H100.944V77.0395H109.663V74.7381H99.3061V72.4366C98.4652 73.8087 97.4473 75.2692 96.3408 76.6854V100.895H91.4281V82.3948C90.1447 83.7225 88.9054 84.9175 87.6662 85.9354C87.2679 84.829 85.9844 81.9522 85.232 80.6687C88.9497 77.9247 93.11 73.5431 95.5442 69.2943L99.3061 70.8876V70.268H109.663V68.0108H101.121V63.762H109.663V59.5132H114.708V63.762H124.401V70.268H127.056V74.7381H124.401V81.2883ZM136.572 67.1699V70.7991H131.836V63.0981H147.99C147.636 62.1687 147.149 61.2393 146.707 60.4426L151.31 59.1592C152.062 60.3541 152.859 61.8147 153.346 63.0981H169.5V70.7991H164.587V67.1699H136.572ZM141.44 90.7596V92.1758H159.851V90.7596H141.44ZM141.44 86.9091V88.2811H159.851V86.9091H141.44ZM141.44 83.1029V84.3864H159.851V83.1029H141.44ZM165.207 94.7871H159.143C163.038 95.8493 166.933 97 169.544 97.8409L165.959 101.072C162.773 99.8768 157.594 98.1065 152.505 96.7787L154.319 94.7871H146.22L148.875 96.7345C145.158 98.6376 138.962 100.364 133.828 101.116C133.208 100.098 131.969 98.5048 131.039 97.5311C134.934 97 139.493 95.9821 142.679 94.7871H136.35V80.4474H165.207V94.7871ZM152.283 76.5527H157.993L158.125 75.1364H152.46L152.283 76.5527ZM142.325 75.1364L142.148 76.5527H147.99L148.167 75.1364H142.325ZM148.566 71.2417H142.812L142.635 72.5252H148.433L148.566 71.2417ZM158.347 72.5252L158.435 71.2417H152.859L152.77 72.5252H158.347ZM163.259 71.9498H170.916V75.7118H162.905L162.551 79.1639H137.103L137.545 75.7118H130.597V71.9498H138.076L138.519 68.5862H163.569L163.259 71.9498ZM187.469 92.2644L191.186 93.9462C188.177 96.4689 182.866 98.7703 178.307 99.8325C177.643 98.7261 176.271 97 175.209 96.0263C179.635 95.4067 184.769 93.9019 187.469 92.2644ZM199.374 94.4773L202.915 91.9988C206.5 93.3266 211.722 95.5395 214.555 96.9557L210.837 99.8325C208.27 98.372 203.092 96.0263 199.374 94.4773ZM201.233 70.8433H189.106C189.814 71.9498 190.522 73.2333 190.877 74.1627L188.487 74.7381H200.569L198.976 74.2512C199.684 73.2333 200.613 71.9055 201.233 70.8433ZM197.471 86.4665H214.643V90.8038H197.471V100.895H192.249V90.8038H175.386V86.4665H192.249V84.5192H179.502V80.7129H192.249V78.7213H177.289V74.7381H185.433C185.034 73.7201 184.371 72.4809 183.795 71.5072L186.761 70.8433H175.475V66.7273H181.494C180.83 65.0455 179.679 62.9211 178.661 61.2393L183.176 59.7345C184.503 61.5934 185.964 64.2489 186.539 65.9307L184.415 66.7273H188.487V59.5132H193.355V66.7273H196.674V59.5132H201.631V66.7273H205.57L203.977 66.2405C204.995 64.4702 206.19 61.7704 206.81 59.8673L212.342 61.1508C211.103 63.1867 209.908 65.1783 208.801 66.7273H214.51V70.8433H202.826L206.987 71.9055C206.013 72.9677 205.083 73.9414 204.287 74.7381H212.829V78.7213H197.471V80.7129H210.749V84.5192H197.471V86.4665Z" fill="black"/>
<path d="M52.17 121.962H59.2513C57.835 121.076 56.3745 120.147 55.0468 119.306C54.1173 120.191 53.1437 121.121 52.17 121.962ZM59.6054 130.149H49.5587V131.61V131.875H59.6054V130.149ZM49.3817 136.788H59.6054V134.974H49.4702C49.4702 135.549 49.426 136.168 49.3817 136.788ZM60.8446 145.374H52.6568V148.517H60.8446V145.374ZM59.5611 125.06H50.4439V123.334C48.8949 124.484 47.3458 125.591 45.7083 126.52H64.3853V140.417H49.0276C48.9391 140.86 48.8949 141.347 48.8063 141.789H65.4475V153.606H60.8446V152.411H52.6568V153.783H48.2752V144.622C47.6556 147.41 46.7262 150.11 45.4427 152.367C44.4248 151.703 42.1233 150.729 40.8399 150.331C44.3363 144.71 44.6903 136.788 44.6903 131.61V127.14L43.6724 127.671C43.1855 126.432 41.8135 123.776 40.9284 122.625C46.0623 120.457 51.2406 116.828 54.0731 112.579L58.8972 114.482C58.6317 114.88 58.3661 115.234 58.1006 115.588C61.3757 117.491 65.0491 119.66 67.085 121.121L64.3853 125.547C63.1903 124.573 61.4642 123.422 59.5611 122.183V125.06ZM72.8829 117.182V141.878H67.9259V117.182H72.8829ZM75.9367 112.756H80.9821V147.631C80.9821 150.464 80.451 151.88 78.8135 152.721C77.2644 153.606 74.7417 153.783 71.201 153.783C70.9798 152.323 70.3601 149.977 69.652 148.517C71.9092 148.561 74.2106 148.561 74.9187 148.561C75.6269 148.561 75.9367 148.34 75.9367 147.587V112.756ZM109.529 122.094H103.952C103.067 123.511 102.093 124.75 101.12 125.812H109.529V122.094ZM97.756 125.812H100.943C99.8804 124.971 97.8003 123.909 96.6053 123.334C99.3493 120.855 101.606 116.96 102.89 113.066L107.758 114.216C107.404 115.367 106.917 116.518 106.431 117.624H109.529V112.667H114.751V117.624H124.4V122.094H114.751V125.812H126.214V130.238H97.756V125.812ZM106.077 140.727H118.026V136.655H106.077V140.727ZM123.249 146.348H118.026V145.153H106.077V146.481H101.031V132.495H123.249V146.348ZM95.5874 120.191L90.6304 121.829C90.0551 119.881 88.9929 116.783 88.1962 114.438L93.0204 113.021C93.8613 115.367 94.9235 118.288 95.5874 120.191ZM96.7381 132.185L98.951 133.159C98.0216 137.452 96.5611 141.789 94.7907 145.197C95.3661 145.596 96.03 146.082 96.8709 146.569C99.8804 148.384 103.996 148.649 109.175 148.649C114.264 148.649 122.187 148.207 127.099 147.499C126.48 148.915 125.683 151.482 125.594 152.898C121.877 153.119 114.132 153.429 108.953 153.429C103.111 153.429 99.3936 152.942 96.207 151.084C94.3924 150.066 92.7991 148.605 91.9139 148.605C90.896 148.605 89.4355 151.615 88.4175 154.137L84.9211 149.092C86.7357 146.79 88.7273 145.109 90.3649 144.356C91.4271 142.232 92.3565 139.532 93.0646 136.921H87.134C88.152 134.442 89.3469 130.946 90.4091 127.627H85.7178V122.935H96.6053C95.6759 125.945 94.5252 129.397 93.463 132.407H95.9857L96.7381 132.185ZM139.713 152.367L136.084 150.995C136.836 148.251 137.677 144.135 138.075 141.17L141.439 142.453C140.996 145.241 140.288 149.623 139.713 152.367ZM149.582 134.841V131.654H143.563V134.841H149.582ZM161.222 116.739H163.966C163.126 115.987 162.108 115.19 161.222 114.482C161.222 115.234 161.222 115.987 161.222 116.739ZM164.453 122.05L169.189 123.245C167.596 127.45 165.294 131.212 162.506 134.398C163.568 142.719 165.161 148.649 166.533 148.649C167.153 148.649 167.551 146.392 167.684 141.568C168.658 142.763 170.295 143.914 171.579 144.445C170.826 151.747 169.41 153.651 165.87 153.651C162.019 153.651 159.541 147.277 158.08 138.514C157.239 139.178 156.354 139.753 155.469 140.329C155.071 139.798 154.362 139.09 153.654 138.337H148.432C149.671 140.329 151.176 142.94 151.84 144.445L148.388 146.304C147.901 144.976 146.883 143.029 145.909 141.214V148.649C145.909 149.8 146.086 149.933 147.193 149.933H150.379C151.397 149.933 151.618 149.269 151.707 145.241C152.371 145.728 153.521 146.215 154.539 146.525C153.92 145.02 153.3 143.515 152.725 142.188L156.177 140.86C157.593 143.869 159.319 147.897 160.16 150.287L156.443 151.88C156.177 150.907 155.734 149.623 155.203 148.251C154.716 152.323 153.566 153.473 150.822 153.473H146.529C142.634 153.473 141.749 152.323 141.749 148.694V141.17H145.865L145.024 139.665L147.768 138.337H139.27V128.113H153.699V135.682C154.982 134.885 156.177 133.956 157.283 132.938C156.841 129.087 156.575 124.971 156.354 120.899H138.164V122.802H155.115V126.299H138.164C138.075 134.177 137.279 146.127 133.472 154.049C132.587 153.208 130.419 151.703 129.268 151.305C132.986 143.648 133.34 132.539 133.34 125.237V116.739H156.221C156.177 115.367 156.133 113.995 156.133 112.623H161.222V114.039L164.011 112.092C165.427 113.11 167.419 114.57 168.437 115.5L166.799 116.739H170.34V120.899H161.355C161.444 123.157 161.576 125.414 161.754 127.582C162.86 125.856 163.745 124.042 164.453 122.05ZM195.036 135.062H187.423C187.335 135.682 187.246 136.301 187.114 136.877C189.415 139.134 194.195 144.666 195.434 146.127L191.893 150.552C190.433 148.251 187.91 144.932 185.742 142.232C184.237 146.569 181.625 150.729 177.377 153.828C176.669 152.721 174.721 150.641 173.615 149.844C179.368 145.728 181.404 140.196 182.112 135.062H174.279V130.105H182.466V128.999V123.068H180.696C179.811 125.325 178.793 127.361 177.687 128.999C176.713 128.113 174.633 126.609 173.438 125.945C175.828 122.758 177.509 117.669 178.395 112.623L183.44 113.641C183.13 115.19 182.776 116.695 182.334 118.2H194.018V123.068H187.777V129.043V130.105H195.036V135.062ZM201.32 144.533H207.738V121.386H201.32V144.533ZM196.231 116.429H213.093V152.013H207.738V149.49H201.32V152.677H196.231V116.429ZM221.945 140.373L225.972 141.524C224.866 144.71 223.051 148.34 221.502 150.597C220.706 149.933 219.024 148.782 218.05 148.207C219.555 146.127 221.015 143.117 221.945 140.373ZM232.346 121.298H225.795C226.459 122.758 227.035 124.661 227.256 125.901L224.069 126.786H230.442C231.106 125.192 231.903 122.935 232.346 121.298ZM239.029 138.957H232.168V153.651H227.079V138.957H218.847V134.531H227.079V131.123H218.581V126.786H222.874C222.653 125.458 222.122 123.555 221.591 122.183L225.22 121.298H219.245V117.005H226.813C226.415 115.81 225.928 114.57 225.485 113.508L230.752 112.225C231.416 113.685 232.213 115.5 232.744 117.005H239.073V121.298H233.54L237.125 122.006C236.462 123.688 235.798 125.414 235.134 126.786H239.737V131.123H232.168V134.531H239.029V138.957ZM259.476 127.184V132.052H255.36V153.783H250.226V132.052H246.11V132.584C246.11 139.09 245.534 148.207 241.773 153.872C240.887 152.942 238.807 151.261 237.701 150.729C238.542 149.446 239.206 147.985 239.692 146.436L236.55 148.384C235.842 146.613 234.337 143.781 233.098 141.745L236.55 139.886C237.745 141.657 239.117 144.002 239.869 145.684C241.109 141.435 241.241 136.655 241.241 132.584V116.828C246.066 115.942 251.421 114.57 254.652 113.066L258.679 116.916C255.05 118.377 250.447 119.439 246.11 120.236V127.184H259.476ZM298.6 121.298V119.262H296.254V121.298H298.6ZM298.6 126.564V124.484H296.254V126.564H298.6ZM285.5 124.484V126.564H287.757V124.484H285.5ZM285.5 119.262V121.298H287.757V119.262H285.5ZM293.068 124.484H290.943V126.564H293.068V124.484ZM290.943 121.298H293.068V119.262H290.943V121.298ZM302.672 115.81V130.017H281.605V115.81H286.827V112.667H290.899V115.81H292.847V112.667H296.963V115.81H302.672ZM303.513 131.521V135.283H280.941V131.521H303.513ZM269.301 139.001V140.329C269.301 141.612 269.257 142.94 269.168 144.401C270.673 143.781 272.488 142.896 274.479 141.922V139.975L272.709 141.922C271.957 141.17 270.585 139.975 269.301 139.001ZM268.637 117.713V126.609H270.363V119.527H274.656V117.713H268.637ZM273.019 126.609H274.656V122.493H273.019V126.609ZM276.825 131.92V130.149H266.69V131.92H276.825ZM269.301 135.328V137.85L270.806 136.346C272.089 137.186 273.506 138.16 274.479 139.001V135.328H269.301ZM280.808 133.424H278.817V149.402C278.817 151.305 278.507 152.367 277.268 153.031C276.117 153.695 274.479 153.739 272.134 153.739C272.001 152.633 271.47 150.951 270.939 149.889C272.178 149.933 273.506 149.933 273.904 149.933C274.347 149.933 274.479 149.756 274.479 149.357V145.33C273.019 146.304 271.603 147.233 270.186 148.074L269.036 145.596C268.682 148.605 267.929 151.792 266.38 154.093C265.628 153.341 263.68 152.013 262.707 151.57C264.875 148.251 265.052 143.737 265.052 140.24V133.469H262.839V126.609H264.566V113.995H278.949V126.609H280.808V133.424ZM295.237 145.374H288.686C289.217 146.702 289.793 148.207 290.191 149.446H293.776C294.307 148.118 294.882 146.613 295.237 145.374ZM287.226 139.93V142.232H296.83V139.93H287.226ZM298.113 149.446H303.867V153.252H280.499V149.446H285.721C285.367 148.34 284.924 147.189 284.526 146.215L287.314 145.374H282.623V136.744H301.698V145.374H296.653L300.061 146.304C299.353 147.41 298.733 148.472 298.113 149.446ZM309.311 150.951L306.478 149.977C307.319 147.41 307.983 143.338 308.293 140.417L310.904 141.347C310.638 144.268 310.063 148.472 309.311 150.951ZM311.391 141.347L313.559 141.17C313.781 143.692 313.914 147.012 313.914 149.225L311.612 149.49C311.701 147.277 311.568 143.914 311.391 141.347ZM314.002 141.037L316.126 140.683C316.658 142.984 317.233 145.905 317.41 147.808L315.197 148.251C315.064 146.304 314.533 143.294 314.002 141.037ZM312.807 131.875V134.664H315.551V131.875H312.807ZM315.551 118.598H312.807V121.519H315.551V118.598ZM315.551 128.025V125.414H312.807V128.025H315.551ZM331.617 122.36H340.778C339.052 121.076 337.37 119.749 335.866 118.377C334.626 119.793 333.166 121.121 331.617 122.36ZM328.519 140.329L332.945 141.081C332.679 142.232 332.369 143.383 332.015 144.489C333.608 145.463 335.29 146.746 336.175 147.72L333.608 151.128C332.9 150.375 331.705 149.313 330.466 148.384C329.404 150.597 328.12 152.5 326.66 154.005C325.996 153.252 324.358 151.924 323.341 151.172C323.208 151.615 323.075 151.924 322.898 152.146C322.234 153.119 321.482 153.473 320.464 153.606C319.579 153.783 318.207 153.828 316.79 153.783C316.746 152.588 316.303 150.951 315.772 149.889C316.879 150.021 317.808 150.021 318.251 150.021C318.738 150.021 319.048 149.977 319.357 149.535C319.623 149.092 319.8 148.03 319.977 145.728L318.428 146.304C318.118 144.755 317.366 142.365 316.658 140.594L318.516 139.975C319.092 141.258 319.667 142.896 320.065 144.268C320.154 142.852 320.198 141.081 320.287 138.957H308.735V114.305H324.049V118.598H319.534V121.519H323.341V122.537C328.032 119.926 332.325 115.898 334.671 112.048L339.362 113.685C339.097 114.172 338.787 114.615 338.477 115.057C341.132 117.403 344.983 119.749 348.391 121.032C347.638 122.227 346.753 124.529 346.443 125.856C345.071 125.148 343.699 124.352 342.327 123.422V126.343H329.315V124.13C328.297 124.794 327.28 125.414 326.262 126.033C325.642 125.192 324.314 123.776 323.341 122.98V125.414H319.534V128.025H323.473V131.875H319.534V134.664H324.447C324.447 134.664 324.447 135.814 324.403 136.346C324.181 144.578 323.96 148.826 323.429 150.862C326.04 148.384 327.722 144.533 328.519 140.329ZM339.893 131.964V136.124H342.681V131.964H339.893ZM336.485 139.444V128.689H346.311V139.444H336.485ZM329.006 131.964V136.124H331.44V131.964H329.006ZM325.598 139.444V128.689H335.069V139.444H325.598ZM339.318 140.107L344.009 140.904C343.699 142.674 343.301 144.401 342.77 146.038C344.629 147.277 346.753 148.826 347.904 149.933L344.85 153.518C344.009 152.588 342.504 151.349 341 150.198C340.247 151.615 339.362 152.942 338.388 154.005C337.636 153.208 335.689 151.747 334.582 151.084C337.149 148.561 338.654 144.533 339.318 140.107Z" fill="black"/>
<mask id="path-11-inside-1_1172_1059" fill="white">
<path d="M42.3892 166.867H346.886V165.539H42.3892V166.867Z"/>
</mask>
<path d="M42.3892 166.867H346.886V165.539H42.3892V166.867Z" fill="black"/>
<path d="M42.3892 166.867V168.638H40.6188V166.867H42.3892ZM346.886 166.867H348.657V168.638H346.886V166.867ZM346.886 165.539V163.769H348.657V165.539H346.886ZM42.3892 165.539H40.6188V163.769H42.3892V165.539ZM42.3892 165.097H346.886V168.638H42.3892V165.097ZM345.116 166.867V165.539H348.657V166.867H345.116ZM346.886 167.31H42.3892V163.769H346.886V167.31ZM44.1595 165.539V166.867H40.6188V165.539H44.1595Z" fill="black" mask="url(#path-11-inside-1_1172_1059)"/>
<path d="M64.835 177.349V178.604H51.0761V177.349H57.3762C57.159 176.794 56.8693 176.215 56.6038 175.732L57.9073 175.321C58.2935 175.925 58.728 176.721 58.9693 177.349H64.835ZM48.0105 178.821L46.7794 179.28C46.5863 178.411 46.0311 177.059 45.4277 176.046L46.6104 175.659C47.238 176.673 47.8174 177.977 48.0105 178.821ZM50.5692 179.594V180.922H43.0621V179.594H50.5692ZM48.6622 190.48H45.138V194.753H48.6622V190.48ZM49.9174 189.153V196.056H45.138V197.215H43.9311V189.153H49.9174ZM44.0518 187.222V185.918H49.9174V187.222H44.0518ZM44.0518 184.011V182.708H49.9174V184.011H44.0518ZM55.9762 188.622V190.022H59.7659V188.622H55.9762ZM55.9762 186.135V187.511H59.7659V186.135H55.9762ZM53.2727 180.656V182.635H56.0003V180.656H53.2727ZM59.9108 180.656V182.635H62.7108V180.656H59.9108ZM63.6764 191.615L64.5695 192.436C63.6764 193.087 62.5418 193.715 61.5522 194.198C62.566 195.091 63.8453 195.791 65.2936 196.177C64.9798 196.491 64.5695 196.998 64.3764 197.36C61.3349 196.37 59.1383 194.174 57.9555 191.229H57.6176C56.99 191.832 56.1934 192.387 55.3486 192.894V195.525L59.09 194.777C59.0659 195.163 59.09 195.743 59.1383 196.032C54.8658 197.022 54.2382 197.215 53.852 197.456C53.7313 197.143 53.3692 196.587 53.1278 196.37C53.4658 196.129 54.0451 195.574 54.0451 194.511V193.57C53.1278 194.029 52.1623 194.391 51.2692 194.705C51.1002 194.439 50.6657 193.884 50.4002 193.643C52.3313 193.087 54.383 192.267 55.8313 191.229H50.7623V190.022H54.5037V188.622H51.9692V187.511H54.5037V186.135H51.5347V185.001H54.5037V183.649H52.0175V179.642H57.3038V183.649H55.9762V185.001H59.7659V183.649H58.6556V179.642H64.0143V183.649H61.2384V185.001H64.5453V186.135H61.2384V187.511H64.0384V188.622H61.2384V190.022H65.0522V191.229H59.3073C59.6935 192.001 60.1763 192.725 60.7073 193.353C61.7453 192.846 62.9281 192.122 63.6764 191.615ZM80.2595 175.563H82.0216C81.9975 176.408 81.9733 177.615 81.8526 179.039C82.2147 181.839 83.6872 192.122 92.208 195.936C91.7735 196.298 91.2908 196.829 91.0494 197.287C84.8458 194.367 82.3113 188.139 81.1526 183.601C80.0905 188.525 77.556 194.198 71.4731 197.36C71.2076 196.949 70.6765 196.467 70.2179 196.129C80.2595 191.108 80.1871 179.184 80.2595 175.563ZM118.616 180.39V182.032H112.002V194.849C112.002 196.056 111.664 196.539 110.867 196.829C110.071 197.094 108.695 197.143 106.329 197.118C106.257 196.66 105.991 195.936 105.75 195.453C107.488 195.525 109.153 195.501 109.612 195.501C110.095 195.477 110.288 195.332 110.288 194.849V182.587C107.464 187.198 102.732 191.977 98.2427 194.511C97.953 194.053 97.4702 193.449 97.0357 193.087C101.429 190.867 106.039 186.377 108.719 182.032H97.784V180.39H110.288V175.466H112.002V180.39H118.616ZM141.282 187.173V184.542H130.974V187.173H141.282ZM130.902 191.277H141.282V188.573H130.974V189.442C130.974 190.022 130.95 190.625 130.902 191.277ZM145.699 180.149H132.664C132.181 181.139 131.65 182.153 131.095 183.094H142.851V195.38C142.851 196.394 142.609 196.877 141.861 197.143C141.113 197.408 139.785 197.408 137.685 197.408C137.613 196.949 137.371 196.298 137.154 195.839C138.819 195.912 140.292 195.887 140.702 195.887C141.137 195.863 141.282 195.718 141.282 195.356V192.677H130.709C130.371 194.439 129.671 196.249 128.247 197.601C128.054 197.239 127.474 196.587 127.136 196.346C129.14 194.391 129.357 191.711 129.357 189.418V185.58C128.174 187.053 126.823 188.404 125.278 189.491C125.085 189.129 124.578 188.549 124.264 188.235C127.161 186.256 129.357 183.335 130.926 180.149H124.747V178.628H131.578C132.037 177.59 132.399 176.528 132.688 175.49L134.281 175.852C133.992 176.794 133.678 177.711 133.292 178.628H145.699V180.149ZM171.599 177.059L170.634 177.928C169.958 177.47 168.703 176.697 167.737 176.166L168.679 175.394C169.62 175.877 170.899 176.601 171.599 177.059ZM155.306 196.66L154.123 196.225C154.534 194.946 155.065 192.894 155.33 191.567L156.416 191.977C156.127 193.28 155.692 195.38 155.306 196.66ZM162.403 187.873V184.76H157.406V187.873H162.403ZM163.73 183.553V189.08H156.03V183.553H163.73ZM162.523 193.111L161.389 193.715C160.906 192.822 159.989 191.301 159.241 190.191L160.327 189.684C161.099 190.794 162.041 192.242 162.523 193.111ZM159.675 196.056H162.692C163.465 196.056 163.586 195.718 163.658 193.232C163.972 193.474 164.479 193.667 164.865 193.763C164.72 196.612 164.334 197.263 162.837 197.263H159.554C157.792 197.263 157.334 196.877 157.334 195.429V191.373H158.685V195.429C158.685 195.96 158.83 196.056 159.675 196.056ZM164.261 191.591L165.396 191.156C166.265 192.58 167.303 194.511 167.81 195.67L166.603 196.225C166.12 195.043 165.106 193.063 164.261 191.591ZM170.489 180.584L171.937 180.946C171.068 183.335 169.789 185.411 168.268 187.149C169.017 192.411 170.224 195.839 171.31 195.839C171.744 195.839 171.962 194.56 172.082 191.76C172.42 192.098 172.927 192.46 173.313 192.605C173.048 196.249 172.565 197.384 171.117 197.384C169.186 197.384 167.786 193.811 166.941 188.525C166.168 189.249 165.372 189.877 164.527 190.456C164.286 190.167 163.73 189.587 163.368 189.346C164.575 188.646 165.686 187.777 166.699 186.763C166.386 184.47 166.168 181.959 166.048 179.304H154.823V180.97H164.913V182.153H154.823V183.118C154.823 187.149 154.485 193.256 152.409 197.505C152.12 197.215 151.468 196.781 151.13 196.636C153.134 192.58 153.327 186.956 153.327 183.118V177.952H165.999C165.951 177.132 165.951 176.287 165.927 175.466H167.496C167.496 176.311 167.496 177.156 167.52 177.952H172.927V179.304H167.568C167.665 181.404 167.81 183.384 168.027 185.194C169.065 183.818 169.886 182.273 170.489 180.584Z" fill="black"/>
<path d="M193.172 183.263C194.91 184.663 197.058 186.835 198.627 188.646L197.155 189.901C195.586 187.946 193.51 185.894 191.796 184.518L193.172 183.263Z" fill="black"/>
<path d="M239.602 177.349V178.604H225.843V177.349H232.143C231.926 176.794 231.636 176.215 231.37 175.732L232.674 175.321C233.06 175.925 233.495 176.721 233.736 177.349H239.602ZM222.777 178.821L221.546 179.28C221.353 178.411 220.798 177.059 220.194 176.046L221.377 175.659C222.005 176.673 222.584 177.977 222.777 178.821ZM225.336 179.594V180.922H217.829V179.594H225.336ZM223.429 190.48H219.905V194.753H223.429V190.48ZM224.684 189.153V196.056H219.905V197.215H218.698V189.153H224.684ZM218.818 187.222V185.918H224.684V187.222H218.818ZM218.818 184.011V182.708H224.684V184.011H218.818ZM230.743 188.622V190.022H234.533V188.622H230.743ZM230.743 186.135V187.511H234.533V186.135H230.743ZM228.039 180.656V182.635H230.767V180.656H228.039ZM234.677 180.656V182.635H237.477V180.656H234.677ZM238.443 191.615L239.336 192.436C238.443 193.087 237.308 193.715 236.319 194.198C237.333 195.091 238.612 195.791 240.06 196.177C239.746 196.491 239.336 196.998 239.143 197.36C236.102 196.37 233.905 194.174 232.722 191.229H232.384C231.757 191.832 230.96 192.387 230.115 192.894V195.525L233.857 194.777C233.833 195.163 233.857 195.743 233.905 196.032C229.632 197.022 229.005 197.215 228.619 197.456C228.498 197.143 228.136 196.587 227.894 196.37C228.232 196.129 228.812 195.574 228.812 194.511V193.57C227.894 194.029 226.929 194.391 226.036 194.705C225.867 194.439 225.432 193.884 225.167 193.643C227.098 193.087 229.15 192.267 230.598 191.229H225.529V190.022H229.27V188.622H226.736V187.511H229.27V186.135H226.301V185.001H229.27V183.649H226.784V179.642H232.07V183.649H230.743V185.001H234.533V183.649H233.422V179.642H238.781V183.649H236.005V185.001H239.312V186.135H236.005V187.511H238.805V188.622H236.005V190.022H239.819V191.229H234.074C234.46 192.001 234.943 192.725 235.474 193.353C236.512 192.846 237.695 192.122 238.443 191.615ZM250.633 183.746H262.557C261.133 183.191 259.274 182.587 257.271 181.959C255.074 182.684 252.709 183.263 250.633 183.746ZM261.471 179.087H251.067C253.023 179.57 255.219 180.149 257.368 180.801C258.961 180.246 260.385 179.666 261.471 179.087ZM266.492 185.097H248.436V188.984C248.436 191.663 248.05 195.26 245.878 197.698C245.66 197.384 245.033 196.853 244.671 196.66C246.65 194.439 246.891 191.349 246.891 188.96V183.746H249.885C249.667 183.456 249.305 183.094 249.064 182.901C251.019 182.515 253.24 182.008 255.364 181.404C253.481 180.825 251.55 180.342 249.812 179.932L250.826 179.087H247.012V177.735H256.016C255.605 177.108 255.099 176.432 254.64 175.877L255.799 175.273C256.45 175.973 257.199 176.987 257.657 177.735H265.719V179.087H262.05L262.944 179.642C261.857 180.222 260.53 180.801 259.13 181.308C260.964 181.887 262.63 182.418 263.909 182.901L263.04 183.746H266.492V185.097ZM258.502 195.284H266.878V196.66H248.919V195.284H256.933V192.653H251.212V191.325H256.933V189.008H251.719C251.043 190.142 250.247 191.156 249.45 191.977C249.281 191.687 248.847 190.963 248.557 190.698C249.909 189.394 251.092 187.511 251.792 185.556L253.192 185.942C252.974 186.546 252.709 187.101 252.443 187.68H256.933V185.532H258.502V187.68H265.116V189.008H258.502V191.325H264.609V192.653H258.502V195.284ZM287.854 182.853V178.049H278.054V182.853H287.854ZM289.472 176.504V184.397H276.485V176.504H289.472ZM279.792 188.573H274.482V194.608H279.792V188.573ZM272.961 197.481V187.029H281.385V197.239H279.792V196.153H274.482V197.481H272.961ZM285.658 194.608H291.451V188.573H285.658V194.608ZM284.113 187.029H293.044V197.312H291.451V196.153H285.658V197.481H284.113V187.029ZM301.058 188.477H304.293V186.594H301.058V188.477ZM301.058 183.625V185.46H304.293V183.625H301.058ZM309.12 183.625H305.765V185.46H309.12V183.625ZM309.12 188.477V186.594H305.765V188.477H309.12ZM320.393 181.115V181.959C320.103 192.122 319.886 195.453 319.065 196.467C318.679 197.07 318.196 197.239 317.496 197.312C316.821 197.384 315.686 197.384 314.576 197.312C314.527 196.877 314.358 196.201 314.093 195.791C315.3 195.887 316.41 195.912 316.869 195.912C317.279 195.912 317.496 195.839 317.714 195.549C318.293 194.825 318.607 191.591 318.848 182.611H315.179C314.89 189.032 313.803 194.391 309.482 197.577C309.241 197.215 308.686 196.684 308.276 196.443C308.734 196.105 309.169 195.767 309.555 195.38C305.813 195.839 301.975 196.274 299.224 196.587L299.006 195.163C300.455 195.018 302.289 194.849 304.293 194.632V192.436H299.658V191.18H304.293V189.611H299.731V182.466H304.293V180.849H298.982V179.594H304.293V177.856C302.724 178.001 301.131 178.097 299.682 178.146C299.61 177.784 299.441 177.252 299.272 176.939C302.844 176.746 307.238 176.311 309.7 175.756L310.52 176.987C309.217 177.277 307.551 177.518 305.765 177.711V179.594H310.979V180.849H305.765V182.466H310.52V189.611H305.765V191.18H310.545V192.436H305.765V194.487C307.358 194.318 309.024 194.149 310.665 193.956V194.101C312.814 191.18 313.465 187.198 313.683 182.611H310.762V181.115H313.731C313.779 179.401 313.779 177.59 313.779 175.756H315.3C315.3 177.59 315.276 179.401 315.227 181.115H320.393ZM336.131 175.563H337.893C337.869 176.408 337.845 177.615 337.725 179.039C338.087 181.839 339.559 192.122 348.08 195.936C347.645 196.298 347.163 196.829 346.921 197.287C340.718 194.367 338.183 188.139 337.024 183.601C335.962 188.525 333.428 194.198 327.345 197.36C327.079 196.949 326.548 196.467 326.09 196.129C336.131 191.108 336.059 179.184 336.131 175.563Z" fill="black"/>
<path d="M89.6675 270.313L89.6652 270.314L78.9164 277.478L67.3614 271.704L67.3589 271.703L55.7803 265.976L55.0033 253.082L55.0032 253.079L54.1733 240.189L64.9514 233.069L64.9537 233.067L75.7025 225.903L87.2575 231.677L87.26 231.679L98.8386 237.405L99.6155 250.299L99.6157 250.302L100.446 263.193L89.6675 270.313Z" stroke="black" stroke-width="1.35804"/>
<path d="M213.356 469.936C215.931 465.488 223.793 450.524 227.403 443.599L275.688 457.645L278.029 517.929C275.005 526.318 267.26 543.037 260.471 542.803C251.984 542.511 247.595 535.487 245.546 530.805C243.907 527.059 244.278 523.196 244.668 521.733C243.693 521.831 240.045 522.319 233.255 523.489C224.769 524.952 214.4 519.015 210.43 509.735C205.064 497.193 210.137 475.496 213.356 469.936Z" fill="black" stroke="black" stroke-width="1.24554" stroke-linejoin="round"/>
<path d="M176.828 525.255C168.098 518.202 157.213 509.427 152.283 505.517C146.518 501.575 146.342 498.777 145.065 496.385L147.894 481.346C148.772 462.715 150.586 424.691 150.82 421.648C151.113 417.843 156.966 401.163 161.648 393.847C165.394 387.994 183.303 397.456 191.79 402.919L196.179 420.77V449.156C196.082 450.911 196.004 454.774 196.472 456.179C197.057 457.935 198.228 459.105 198.52 459.105C198.568 459.105 198.617 459.137 198.671 459.173C198.949 459.356 199.395 459.65 200.861 456.472C202.266 453.428 203.788 444.473 204.373 440.376C205.153 437.84 207.065 432.417 208.47 431.012C210.226 429.256 211.396 428.086 213.152 427.793C214.694 427.536 214.882 427.73 215.697 428.574C215.811 428.691 215.936 428.821 216.078 428.964C217.015 429.9 216.859 433.451 216.664 435.109L214.03 447.692C213.25 450.326 211.513 456.472 210.811 459.983C210.707 460.501 210.6 461.06 210.486 461.65C209.636 466.059 208.452 472.207 206.129 476.078C205.377 477.331 204.483 478.988 203.521 480.771C201.11 485.239 198.271 490.5 196.179 492.174C193.838 494.046 186.229 501.733 182.718 505.342C181.45 506.61 178.796 510.025 178.328 513.536C177.944 516.414 177.272 521.717 176.828 525.255Z" fill="white" stroke="black" stroke-width="1.24554" stroke-linejoin="round"/>
<path d="M187.694 464.08C185.841 465.25 181.783 468.586 180.378 472.566C178.622 477.541 178.33 483.101 178.915 487.198C179.383 490.476 179.584 491.49 179.877 492.466" stroke="black" stroke-width="1.24554" stroke-linejoin="round"/>
<path d="M164.867 410.821C164.184 412.869 162.347 415.796 161.941 423.112C161.707 427.326 161.648 435.5 161.355 439.499" stroke="black" stroke-width="1.24554" stroke-linejoin="round"/>
<path d="M170.428 415.503L169.843 428.672" stroke="black" stroke-width="1.24554" stroke-linejoin="round"/>
<path d="M182.718 419.014L182.133 428.671" stroke="black" stroke-width="1.24554" stroke-linejoin="round"/>
<path d="M165.454 450.913C166.527 453.546 168.907 459.926 169.843 464.374C170.952 469.641 170.721 471.69 170.428 476.372C170.151 480.812 167.892 485.639 166.917 487.492" stroke="black" stroke-width="1.24554" stroke-linejoin="round"/>
<path d="M270.804 495.114C269.867 489.964 266.902 479.897 265.536 475.507L307.676 450.926L359.18 474.337C329.722 502.04 272.15 557.563 269.341 559.202C265.829 561.251 260.561 561.836 259.098 558.91C257.939 556.59 259.172 552.643 259.67 551.053L259.683 551.008C262.025 543.107 267.234 524.963 269.341 515.599C271.974 503.893 271.974 501.552 270.804 495.114Z" fill="white" stroke="black" stroke-width="1.24554" stroke-linejoin="round"/>
<path d="M242.415 478.13C234.806 473.448 230.417 468.18 226.905 459.986L219.297 437.453L213.737 417.554L208.762 359.904L255.584 352.88L313.233 381.266L325.232 391.801L331.377 403.8L341.619 446.525C326.402 454.621 287.54 474.384 277.239 478.13C264.363 482.812 248.339 481.775 242.415 478.13Z" fill="white" stroke="black" stroke-width="1.24554" stroke-linejoin="round"/>
<path d="M213.981 337.658C210.001 342.574 206.47 353.558 205.202 358.435L279.824 371.311L318.16 397.942L330.158 422.523L327.817 426.035C324.208 429.937 316.579 438.443 314.941 441.252C312.892 444.764 311.958 452.328 313.421 459.644C314.884 466.96 323.593 476.459 333.349 480.173C342.06 483.489 354.163 482.501 358.26 481.233C358.163 481.916 358.569 481.688 359.506 486.838C360.676 493.276 365.722 502.989 373.829 508.635C384.832 516.298 401.3 515.306 409.535 512.787C427.18 507.39 433.2 494.934 434.238 492.236C436.611 486.067 437.263 481.614 437.263 474.59C437.263 468.155 435.507 465.053 435.507 463.493C435.507 463.785 435.858 463.727 437.263 461.152C439.019 457.933 445.863 447.188 441.653 433.351C439.748 427.091 432.37 416.257 424.094 408.769C417.802 403.075 404.488 395.015 396.587 392.089C388.685 389.162 379.906 386.821 376.102 383.017C372.298 379.213 368.493 375.994 361.47 355.216C354.447 334.439 343.619 327.123 336.303 320.1C328.987 313.076 321.379 309.272 309.381 305.468C297.382 301.663 281.287 303.127 270.167 305.468C259.047 307.809 250.268 310.443 239.733 316.295C229.198 322.148 218.956 331.513 213.981 337.658Z" fill="black" stroke="black" stroke-width="1.24554" stroke-linejoin="round"/>
<path d="M343.959 394.434L312.354 367.511V368.097L310.599 391.8L327.279 404.384L343.959 394.434Z" fill="black" stroke="black" stroke-width="1.24554" stroke-linejoin="round"/>
<path d="M310.6 359.611L303.284 357.27C299.87 371.999 293.335 401.634 294.505 402.336C295.968 403.214 301.529 402.921 302.699 402.336C303.87 401.751 307.967 399.117 310.6 397.068C312.707 395.43 313.819 391.703 314.112 390.045C314.21 382.339 314.346 366.517 314.112 364.878C313.878 363.239 311.673 360.684 310.6 359.611Z" fill="black" stroke="black" stroke-width="1.24554" stroke-linejoin="round"/>
<path d="M161.391 371.579L162.269 396.161C162.561 401.721 161.391 413.427 178.071 417.524C187.738 419.898 192.41 418.694 194.752 420.45C196.624 421.855 204.409 423.084 209.091 422.498L222.26 418.694L220.466 416.388C219.403 415.021 220.14 413.013 221.835 412.659L237.769 409.33C237.769 409.33 246.841 413.427 272.008 411.086C278.934 409.525 293.897 405.818 298.345 403.477C302.793 401.136 304.686 396.063 305.076 393.82C305.466 382.212 306.012 358.411 305.076 356.069C304.14 353.728 302.345 351.387 301.564 350.509C299.223 348.071 292.61 341.906 284.884 336.755C277.158 331.605 261.375 333.829 254.45 335.585C229.575 341.437 177.896 353.728 170.17 356.069C162.444 358.411 161.098 367.385 161.391 371.579Z" fill="white" stroke="black" stroke-width="1.24554" stroke-linejoin="round"/>
<path d="M343.96 394.435L305.531 358.962L304.286 387.61L327.28 404.384L343.96 394.435Z" fill="white" stroke="black" stroke-width="1.24554" stroke-linejoin="round"/>
<path d="M161.684 396.161L160.806 371.579C160.569 368.176 161.41 361.625 165.864 358.025C166.891 357.202 168.109 356.535 169.549 356.099C177.275 353.758 228.955 341.467 253.829 335.614C254.541 335.433 255.347 335.248 256.228 335.066C257.089 335.139 258.116 335.107 259.249 335.072C262.173 334.981 265.798 334.868 269.046 336.492C274.899 339.418 278.996 344.978 280.459 347.905C281.629 350.246 282.312 355.709 282.507 358.147V382.144C282.702 384.192 282.039 389.343 277.825 393.557C272.558 398.824 269.046 400.287 263.486 402.043C259.038 403.448 232.174 409.457 219.298 412.285L190.231 419.361C189.732 419.312 189.192 419.269 188.609 419.222C185.936 419.006 182.341 418.716 177.487 417.524C162.192 413.767 161.906 403.613 161.738 397.666C161.723 397.127 161.709 396.623 161.684 396.161Z" fill="white" stroke="black" stroke-width="1.24554" stroke-linejoin="round"/>
<path d="M161.472 395.963L160.594 371.381C160.301 367.187 161.647 358.212 169.373 355.871C177.099 353.53 228.779 341.239 253.653 335.386C253.971 335.306 254.308 335.224 254.662 335.142L255.08 335.123L256.52 335.363C262.115 337.909 262.715 344.188 262.103 347.707C261.42 357.949 260.054 379.955 260.054 386.042C260.054 391.205 257.073 395.077 255.031 397.163L186.017 414.136L185.619 414.209C180.791 415.103 175.869 415.385 170.972 415.047C161.89 410.396 161.666 402.454 161.526 397.467C161.51 396.929 161.496 396.425 161.472 395.963Z" fill="white" stroke="black" stroke-width="1.24554" stroke-linejoin="round"/>
<rect width="6.09147" height="84.3843" rx="3.04573" transform="matrix(-0.230414 -0.973093 0.973092 -0.230416 169.628 389.197)" fill="black"/>
<path d="M261.71 340.76C260.932 338.674 259.527 336.703 257.198 335.398C259.331 335.005 261.795 334.653 264.38 334.438C265.582 334.42 267.383 334.529 269.156 334.842C270.961 335.161 272.64 335.675 273.653 336.412C275.212 337.545 277.075 339.335 278.62 341.239C280.182 343.164 281.337 345.109 281.6 346.554C281.89 348.149 281.853 348.959 281.575 349.552C281.291 350.161 280.705 350.659 279.515 351.493C278.954 351.886 278.212 352.296 277.334 352.781L277.273 352.814C273.901 354.676 268.825 357.479 267.844 363.61C267.615 365.043 267.374 366.454 267.137 367.844L267.129 367.893C266.166 373.541 265.257 378.867 265.496 383.639C265.641 386.535 265.493 388.885 265.073 390.672C264.65 392.467 263.971 393.615 263.122 394.222C262.377 394.754 260.826 395.461 258.969 396.157C257.92 396.55 256.797 396.93 255.704 397.265C257.8 394.939 260.302 391.032 260.302 386.242C260.302 380.188 261.663 358.248 262.347 347.98C262.679 346.04 262.661 343.312 261.71 340.76Z" fill="white" stroke="black" stroke-width="1.24554" stroke-linejoin="round"/>
<path d="M322.304 414.042C323.669 415.31 326.752 417.671 328.156 416.968C329.912 416.09 333.131 412.286 333.717 408.482C334.302 404.677 336.35 399.995 338.691 399.41C341.033 398.825 343.081 399.117 344.252 401.166C345.422 403.214 345.422 405.848 344.252 407.604C343.081 409.36 340.74 410.823 338.691 409.652C337.053 408.716 335.277 407.896 334.594 407.604" stroke="black" stroke-width="1.24554" stroke-linejoin="round"/>
<path d="M325.231 406.727C324.528 408.365 321.231 417.164 319.671 421.358C319.016 423.114 319.085 426.333 320.841 428.967C322.597 431.601 327.279 431.016 332.254 428.967C337.229 426.919 342.789 419.895 345.715 415.798C348.642 411.701 350.983 402.63 350.398 400.288C349.812 397.947 348.934 394.143 343.667 392.387C338.399 390.631 334.595 394.436 332.839 395.606C331.084 396.777 326.109 404.678 325.231 406.727Z" fill="white" stroke="black" stroke-width="1.24554" stroke-linejoin="round"/>
<path d="M333.424 410.529C334.595 410.919 337.17 412.11 338.107 413.748C339.043 415.387 339.277 415.992 339.277 416.089" stroke="black" stroke-width="1.24554" stroke-linejoin="round"/>
<path d="M340.447 413.75C340.252 414.237 339.569 415.622 338.398 417.261C336.935 419.31 333.716 421.651 332.253 421.943C330.79 422.236 329.327 421.065 327.278 421.065C325.23 421.065 322.889 421.358 322.011 422.821" stroke="black" stroke-width="1.24554" stroke-linejoin="round"/>
<path d="M223.685 416.675L231.001 420.772" stroke="black" stroke-width="1.24554" stroke-linejoin="round"/>
<path d="M236.27 414.919L243.586 419.016" stroke="black" stroke-width="1.24554" stroke-linejoin="round"/>
<path d="M227.784 443.306C228.369 442.623 229.949 441.316 231.588 441.55C233.636 441.842 235.978 443.013 237.733 442.72C239.489 442.428 240.952 440.379 242.416 439.501C243.879 438.623 245.938 438.35 250.609 438.038C263.778 437.16 271.094 434.819 272.557 434.234" stroke="black" stroke-width="1.24554" stroke-linejoin="round"/>
<path d="M227.784 439.208C228.467 437.452 230.593 433.648 233.636 432.477C237.441 431.014 240.074 429.844 245.927 429.844C250.609 429.844 262.51 431.6 267.875 432.477" stroke="black" stroke-width="1.24554" stroke-linejoin="round"/>
<path d="M233.929 446.524C239.42 445.762 247.278 444.237 255.515 442.236C264.163 440.136 270.853 435.376 272.557 434.233" stroke="black" stroke-width="1.24554" stroke-linejoin="round"/>
<path d="M270.801 443.891C268.948 446.037 264.714 450.738 262.607 452.377C259.974 454.426 255.877 456.474 251.78 457.059C247.683 457.645 244.756 457.645 240.367 456.181C236.855 455.011 234.417 453.548 233.636 452.962" stroke="black" stroke-width="1.24554" stroke-linejoin="round"/>
<ellipse cx="26.5571" cy="548.115" rx="2.55713" ry="2.55714" fill="black"/>
<ellipse cx="64.1821" cy="545.558" rx="2.55713" ry="2.55714" fill="black"/>
<ellipse cx="101.443" cy="545.557" rx="2.55713" ry="2.55714" fill="black"/>
<ellipse cx="26.5571" cy="582.422" rx="2.55713" ry="2.55714" fill="black"/>
<ellipse cx="64.1821" cy="582.635" rx="2.55713" ry="2.55714" fill="black"/>
<ellipse cx="101.443" cy="582.635" rx="2.55713" ry="2.55714" fill="black"/>
<ellipse cx="26.9233" cy="616.396" rx="2.55713" ry="2.55714" fill="black"/>
<ellipse cx="64.1821" cy="616.396" rx="2.55713" ry="2.55714" fill="black"/>
<ellipse cx="101.443" cy="616.396" rx="2.55713" ry="2.55714" fill="black"/>
<path d="M64.7373 384.501C70.2546 400.468 81.3894 434.357 81.7907 442.182C82.0757 447.739 78.0763 463.577 74.2672 476.991C63.4834 467.562 43.5676 451.407 40.3576 449.602C36.345 447.345 33.5864 448.097 32.0817 448.849C30.577 449.602 28.3199 452.11 27.8183 455.871C27.4171 458.881 29.9918 463.144 31.3293 464.9L44.713 478.203L82.0415 512.402L161.54 571.838C161.707 571.922 162.644 572.139 165.051 572.34C168.06 572.591 171.07 570.584 172.825 569.581C174.581 568.578 177.59 565.318 179.095 563.061C180.6 560.804 182.949 554.914 183.609 547.763C184.365 539.579 182.606 532.883 181.352 528.954C174.33 523.269 158.832 510.747 153.013 506.132C145.741 500.364 146.242 499.361 143.734 491.336C141.227 483.311 136.462 450.458 134.706 444.188C132.951 437.919 127.433 423.122 125.929 419.611C124.424 416.1 119.91 408.577 117.904 405.317C115.897 402.056 108.625 388.765 105.615 385.003C103.208 381.993 101.937 380.907 101.603 380.74C99.0948 374.721 93.8283 362.282 92.8252 360.677C91.5713 358.67 90.8189 358.42 89.8158 358.169C88.8126 357.918 87.8095 358.169 86.054 359.423C84.6496 360.426 84.1313 362.683 84.0477 363.686C83.9641 361.68 83.7468 357.065 83.5462 354.658C83.2954 351.648 82.0415 350.144 80.7875 349.391C79.5336 348.639 78.2797 348.639 76.775 348.89C75.2703 349.141 73.264 351.398 72.5116 352.652C71.9098 353.655 71.7593 354.909 71.7593 355.41C70.9233 355.912 68.3988 357.918 64.9881 361.931C61.5774 365.943 63.3998 378.65 64.7373 384.501Z" stroke="black" stroke-width="1.24554" stroke-linejoin="round"/>
<path d="M84.0479 363.437C83.6299 364.607 83.145 368.804 84.5494 376.227C86.3049 385.506 87.5588 390.271 89.0635 394.284C90.2673 397.494 95.4167 410 97.841 415.851C99.1785 418.61 101.471 425.149 102.606 428.39C104.361 433.406 105.615 440.177 105.365 442.936" stroke="black" stroke-width="1.24554" stroke-linejoin="round"/>
<path d="M74.5171 476.289L70.0029 490.835" stroke="black" stroke-width="1.24554" stroke-linejoin="round"/>
<path d="M110.63 487.825C109.878 493.259 109.075 508.59 111.884 517.418C114.693 526.246 117.568 529.205 118.655 530.71" stroke="black" stroke-width="1.24554" stroke-linejoin="round"/>
<path d="M101.599 380.739C101.014 380.488 99.1416 380.639 98.3391 381.241C97.336 381.993 96.0821 384.25 96.0821 386.006C96.0821 387.761 95.5805 388.513 98.3391 396.037C100.546 402.056 106.615 414.762 109.374 420.363C110.21 422.37 112.132 427.335 113.135 431.147C114.389 435.912 116.646 445.943 116.396 446.696" stroke="black" stroke-width="1.24554" stroke-linejoin="round"/>
<path d="M71.7571 355.411C71.5064 359.256 71.3057 368.401 72.5095 374.22C74.0142 381.492 75.7697 390.019 77.776 394.784C79.7823 399.549 82.0393 405.568 84.0456 408.828C86.0519 412.088 89.3121 418.358 90.0644 420.113C90.8168 421.869 94.077 430.897 94.077 435.411C94.077 439.023 94.077 440.427 94.077 440.678" stroke="black" stroke-width="1.24554" stroke-linejoin="round"/>
<path d="M47.6845 389.618L36.1484 334.445L122.418 318.896L133.453 375.072L47.6845 389.618Z" stroke="black" stroke-width="1.24554" stroke-linejoin="round"/>
<path d="M45.0298 344.477L70.8606 340.214" stroke="black" stroke-width="1.24554" stroke-linejoin="round"/>
<path d="M46.6396 351.373L116.609 339.084" stroke="black" stroke-width="1.24554" stroke-linejoin="round"/>
<path d="M48.0815 358.133L117.696 345.845" stroke="black" stroke-width="1.24554" stroke-linejoin="round"/>
<path d="M49.4336 364.893L119.403 352.605" stroke="black" stroke-width="1.24554" stroke-linejoin="round"/>
<path d="M51.1548 371.655L121.124 359.366" stroke="black" stroke-width="1.24554" stroke-linejoin="round"/>
<path d="M97.1963 370.039L122.458 366.125" stroke="black" stroke-width="1.24554" stroke-linejoin="round"/>
<path d="M323.243 354.782L330.713 353.559L331.768 345.081L324.192 347.151L323.243 354.782Z" fill="white" stroke="black" stroke-width="1.17081" stroke-linejoin="round"/>
<path d="M352.652 360.594L351.65 368.649C351.527 369.638 351.503 371.902 352.394 373.046C353.285 374.19 356.547 377.724 358.067 379.348C359.246 380.862 361.43 383.814 361.938 385.018C366.566 391.624 368.855 399.903 367.78 408.537C365.749 424.86 352.38 437.003 336.553 438.048L333.991 442.7L323.65 441.414L322.679 436.072L319.334 434.632C306.82 428.448 298.982 414.838 300.802 400.204C302.329 387.937 310.258 378.032 320.821 373.422C321.613 373.183 323.351 372.611 323.97 372.232C325.159 371.511 326.263 370.806 326.907 370.305C327.86 369.563 328.389 368.768 328.759 365.8L329.761 357.746L352.652 360.594Z" fill="white" stroke="black" stroke-width="1.17081" stroke-linejoin="round"/>
<path fill-rule="evenodd" clip-rule="evenodd" d="M330.959 432.89C315.135 430.921 303.903 416.497 305.872 400.672C307.841 384.848 322.265 373.615 338.089 375.584C353.914 377.553 365.146 391.978 363.177 407.802C361.208 423.627 346.784 434.859 330.959 432.89ZM331.843 425.779C319.945 424.299 311.5 413.454 312.98 401.555C314.461 389.657 325.306 381.212 337.204 382.692C349.103 384.173 357.548 395.018 356.067 406.916C354.587 418.815 343.742 427.26 331.843 425.779Z" fill="#FFF500"/>
<path d="M305.872 400.672L305.291 400.6L305.291 400.6L305.872 400.672ZM330.959 432.89L330.887 433.471L330.887 433.471L330.959 432.89ZM338.089 375.584L338.017 376.165L338.017 376.165L338.089 375.584ZM363.177 407.802L363.758 407.875L363.758 407.875L363.177 407.802ZM312.98 401.555L312.4 401.483L312.4 401.483L312.98 401.555ZM331.843 425.779L331.916 425.199L331.916 425.199L331.843 425.779ZM337.204 382.692L337.277 382.111L337.277 382.111L337.204 382.692ZM306.453 400.744C304.524 416.248 315.528 430.38 331.032 432.309L330.887 433.471C314.742 431.462 303.282 416.745 305.291 400.6L306.453 400.744ZM338.017 376.165C322.514 374.236 308.382 385.241 306.453 400.744L305.291 400.6C307.3 384.455 322.016 372.995 338.162 375.003L338.017 376.165ZM362.596 407.73C364.525 392.226 353.521 378.094 338.017 376.165L338.162 375.003C354.307 377.012 365.767 391.729 363.758 407.875L362.596 407.73ZM331.032 432.309C346.535 434.238 360.667 423.234 362.596 407.73L363.758 407.875C361.749 424.02 347.032 435.48 330.887 433.471L331.032 432.309ZM313.561 401.628C312.121 413.205 320.338 423.758 331.916 425.199L331.771 426.36C319.552 424.84 310.879 413.702 312.4 401.483L313.561 401.628ZM337.132 383.273C325.555 381.833 315.002 390.05 313.561 401.628L312.4 401.483C313.92 389.264 325.058 380.591 337.277 382.111L337.132 383.273ZM355.487 406.844C356.927 395.267 348.709 384.714 337.132 383.273L337.277 382.111C349.496 383.632 358.169 394.77 356.648 406.989L355.487 406.844ZM331.916 425.199C343.493 426.639 354.046 418.421 355.487 406.844L356.648 406.989C355.128 419.208 343.99 427.881 331.771 426.36L331.916 425.199Z" fill="black"/>
<ellipse cx="22.0922" cy="22.0923" rx="22.0922" ry="22.0923" transform="matrix(-0.992348 -0.12347 -0.123469 0.992348 359.177 385.042)" fill="#FFF500" stroke="black" stroke-width="1.17081" stroke-linejoin="round"/>
<rect width="23.922" height="8.54361" transform="matrix(-0.992348 -0.12347 -0.123469 0.992348 355.51 348.035)" fill="white" stroke="black" stroke-width="1.17081" stroke-linejoin="round"/>
<path d="M303.432 299.528C304.38 299.667 305.31 299.93 306.202 300.302C309.268 301.579 311.42 302.475 315.432 305.737C321.154 310.39 325.936 318.51 328.084 325.141C329.5 329.511 331.178 338.624 332.047 345.083L324.671 347.099C324.532 344.244 324.156 340.018 322.593 333.69C319.549 321.371 313.26 311.174 308.696 307.36C302.236 301.961 296.535 301.979 293.175 301.99C293.083 301.99 292.992 301.991 292.903 301.991C287.594 302.001 283.03 303.074 283.03 303.074C283.03 303.074 284.504 302.094 286.705 301.1C291.806 299.426 294.205 299.007 299.076 299.047C300.117 299.055 301.721 299.277 303.432 299.528Z" fill="white" stroke="black" stroke-width="1.17079" stroke-linejoin="round"/>
<path d="M353.171 347.66C350.963 336.326 346.02 320.458 335.094 310.544C333.44 309.043 331.775 307.688 330.225 306.51C325.431 302.864 319.615 301.121 313.725 300.559L304.662 299.693C305.523 300.067 306.309 300.373 307.064 300.666C309.651 301.673 311.858 302.532 315.363 305.447C321.031 310.161 325.76 318.403 327.878 325.137C329.258 329.524 330.883 338.62 331.741 345.169L332.181 345.049L332.181 345.049L353.171 347.66Z" fill="white" stroke="black" stroke-width="1.17079" stroke-linejoin="round"/>
<path d="M300.804 400.204C299.458 411.024 303.392 421.284 310.592 428.397C306.565 424.792 302.842 420.52 301.133 418.325C298.163 414.512 296.253 409.108 295.825 402.168C295.397 395.227 297.989 388.231 300.16 384.627C301.977 381.609 307.307 375.615 312.869 372.433C314.139 371.706 315.167 371.132 316.078 370.623L316.078 370.623C317.618 369.762 318.82 369.09 320.285 368.19C322.149 367.045 322.614 364.462 322.508 364.162L323.193 358.651L329.763 357.747L328.761 365.801C328.391 368.768 327.862 369.563 326.909 370.306C326.265 370.807 325.608 371.296 324.101 372.109L320.923 373.435C310.488 377.733 302.379 387.548 300.804 400.204Z" fill="white" stroke="black" stroke-width="1.17081" stroke-linejoin="round"/>
<path d="M322.74 436.094L323.711 441.428L320.753 439.305L319.04 434.489C319.973 434.927 321.76 435.74 322.74 436.094Z" fill="white" stroke="black" stroke-width="1.17081" stroke-linejoin="round"/>
<mask id="path-77-inside-2_1172_1059" fill="white">
<rect width="20.3603" height="5.09414" rx="0.830362" transform="matrix(-0.992348 -0.12347 0.123469 -0.992348 351.317 360.752)"/>
</mask>
<rect width="20.3603" height="5.09414" rx="0.830362" transform="matrix(-0.992348 -0.12347 0.123469 -0.992348 351.317 360.752)" fill="white" stroke="black" stroke-width="2.34162" stroke-linejoin="round" mask="url(#path-77-inside-2_1172_1059)"/>
<path d="M331.593 357.618L327.274 358.065C327.117 358.081 326.986 357.946 327.006 357.789L327.411 354.685C327.425 354.575 327.511 354.489 327.62 354.474L331.941 353.878C332.1 353.856 332.237 353.991 332.217 354.151L331.811 357.405C331.797 357.518 331.706 357.606 331.593 357.618Z" fill="white" stroke="black" stroke-width="1.17081" stroke-linejoin="round"/>
</g>
</g>
<defs>
<clipPath id="clip0_1172_1059">
<rect width="390" height="643" fill="white"/>
</clipPath>
</defs>
</svg>
