<svg width="1920" height="1014" viewBox="0 0 1920 1014" fill="none" xmlns="http://www.w3.org/2000/svg">
<mask id="mask0_9_2753" style="mask-type:alpha" maskUnits="userSpaceOnUse" x="0" y="0" width="1920" height="1014">
<path d="M0 0H1920V1014H0V0Z" fill="white"/>
</mask>
<g mask="url(#mask0_9_2753)">
<path d="M0 0H1920V1014H0V0Z" fill="white"/>
<circle cx="202.5" cy="202.5" r="202.5" transform="matrix(-1 0 0 1 2087 -116)" fill="#FFF500"/>
<circle cx="120" cy="120" r="120" transform="matrix(-1 0 0 1 863 681)" fill="#FFF500"/>
<circle cx="49" cy="7" r="740" fill="#FFF500"/>
<path d="M1295.99 567.789C1302.19 557.075 1321.13 521.034 1329.82 504.353L1446.12 538.185L1451.76 683.383C1444.47 703.589 1425.82 743.859 1409.47 743.295C1389.03 742.59 1378.45 725.674 1373.52 714.397C1369.57 705.375 1370.46 696.071 1371.4 692.546C1369.05 692.781 1360.27 693.956 1343.92 696.775C1323.47 700.3 1298.5 686 1288.94 663.648C1276.01 633.44 1288.23 581.181 1295.99 567.789Z" fill="black" stroke="black" stroke-width="3" stroke-linejoin="round"/>
<path d="M1208 701.035C1186.98 684.048 1160.76 662.913 1148.88 653.497C1135 644 1134.58 637.262 1131.5 631.5L1138.31 595.278C1140.43 550.402 1144.8 458.819 1145.36 451.489C1146.07 442.326 1160.16 402.15 1171.44 384.529C1180.46 370.432 1223.6 393.222 1244.04 406.379L1254.61 449.374V517.744C1254.38 521.974 1254.19 531.278 1255.32 534.661C1256.73 538.89 1259.55 541.709 1260.25 541.709C1260.37 541.709 1260.48 541.786 1260.61 541.872C1261.28 542.313 1262.36 543.02 1265.89 535.366C1269.27 528.035 1272.94 506.467 1274.35 496.599C1276.23 490.49 1280.83 477.427 1284.22 474.044C1288.44 469.815 1291.26 466.996 1295.49 466.291C1299.21 465.672 1299.66 466.14 1301.62 468.173C1301.9 468.455 1302.2 468.767 1302.54 469.11C1304.8 471.366 1304.42 479.918 1303.95 483.912L1297.61 514.22C1295.73 520.564 1291.55 535.366 1289.85 543.824C1289.6 545.072 1289.35 546.418 1289.07 547.839C1287.02 558.458 1284.17 573.266 1278.58 582.59C1276.77 585.607 1274.61 589.598 1272.29 593.894C1266.49 604.655 1259.65 617.327 1254.61 621.357C1248.97 625.868 1230.65 644.382 1222.19 653.075C1219.13 656.129 1212.74 664.352 1211.62 672.811C1210.69 679.743 1209.07 692.514 1208 701.035Z" fill="white" stroke="black" stroke-width="3" stroke-linejoin="round"/>
<path d="M1234.17 553.692C1229.71 556.511 1219.93 564.546 1216.55 574.132C1212.32 586.115 1211.62 599.507 1213.03 609.374C1214.15 617.269 1214.64 619.712 1215.34 622.062" stroke="black" stroke-width="3" stroke-linejoin="round"/>
<path d="M1179.19 425.41C1177.55 430.344 1173.12 437.392 1172.14 455.013C1171.58 465.163 1171.44 484.852 1170.74 494.485" stroke="black" stroke-width="3" stroke-linejoin="round"/>
<path d="M1192.59 436.687L1191.18 468.405" stroke="black" stroke-width="3" stroke-linejoin="round"/>
<path d="M1222.19 445.145L1220.78 468.405" stroke="black" stroke-width="3" stroke-linejoin="round"/>
<path d="M1180.6 521.974C1183.19 528.317 1188.92 543.683 1191.18 554.397C1193.85 567.084 1193.29 572.018 1192.59 583.295C1191.92 593.988 1186.48 605.615 1184.13 610.079" stroke="black" stroke-width="3" stroke-linejoin="round"/>
<path d="M1434.35 628.432C1432.1 616.026 1424.96 591.78 1421.67 581.207L1523.17 522L1647.22 578.388C1576.26 645.113 1437.6 778.846 1430.83 782.793C1422.37 787.727 1409.69 789.137 1406.16 782.088C1403.37 776.502 1406.34 766.996 1407.54 763.164L1407.57 763.057C1413.21 744.026 1425.76 700.326 1430.83 677.771C1437.17 649.577 1437.17 643.938 1434.35 628.432Z" fill="white" stroke="black" stroke-width="3" stroke-linejoin="round"/>
<path d="M1365.98 587.524C1347.65 576.247 1337.08 563.56 1328.62 543.824L1310.29 489.551L1296.9 441.621L1284.92 302.767L1397.7 285.85L1536.55 354.22L1565.45 379.595L1580.25 408.494L1604.92 511.401C1568.27 530.902 1474.66 578.502 1449.85 587.524C1418.84 598.802 1380.25 596.305 1365.98 587.524Z" fill="white" stroke="black" stroke-width="3" stroke-linejoin="round"/>
<path d="M1297.49 249.187C1287.9 261.028 1279.4 287.483 1276.34 299.231L1456.08 330.244L1548.41 394.385L1577.31 453.592L1571.67 462.05C1562.98 471.448 1544.61 491.936 1540.66 498.702C1535.73 507.16 1533.48 525.379 1537 543C1540.52 560.621 1561.5 583.5 1585 592.447C1605.98 600.434 1635.13 598.054 1645 595C1644.77 596.645 1645.74 596.095 1648 608.5C1650.82 624.007 1662.97 647.401 1682.5 661C1709 679.455 1748.67 677.067 1768.5 671C1811 658 1825.5 628 1828 621.5C1833.72 606.641 1835.29 595.916 1835.29 579C1835.29 563.5 1831.06 556.03 1831.06 552.27C1831.06 552.975 1831.9 552.834 1835.29 546.632C1839.52 538.878 1856 513 1845.86 479.671C1841.27 464.593 1823.5 438.5 1803.57 420.464C1788.41 406.749 1756.34 387.336 1737.31 380.288C1718.28 373.24 1697.14 367.601 1687.97 358.438C1678.81 349.275 1669.65 341.521 1652.73 291.477C1635.82 241.433 1609.74 223.812 1592.11 206.896C1574.49 189.98 1556.17 180.817 1527.27 171.654C1498.37 162.491 1459.6 166.015 1432.82 171.654C1406.04 177.292 1384.89 183.636 1359.52 197.733C1334.14 211.83 1309.47 234.385 1297.49 249.187Z" fill="black" stroke="black" stroke-width="3" stroke-linejoin="round"/>
<path d="M1610.56 385.938L1534.44 321.093V322.502L1530.21 379.595L1570.38 409.903L1610.56 385.938Z" fill="black" stroke="black" stroke-width="3" stroke-linejoin="round"/>
<path d="M1530.21 302.062L1512.58 296.423C1504.36 331.9 1488.62 403.277 1491.44 404.969C1494.96 407.084 1508.36 406.379 1511.18 404.969C1513.99 403.559 1523.86 397.216 1530.21 392.282C1535.28 388.335 1537.96 379.36 1538.66 375.366C1538.9 356.805 1539.23 318.696 1538.66 314.749C1538.1 310.802 1532.79 304.646 1530.21 302.062Z" fill="black" stroke="black" stroke-width="3" stroke-linejoin="round"/>
<path d="M1170.82 330.89L1172.94 390.097C1173.64 403.489 1170.82 431.683 1211 441.551C1234.28 447.27 1245.54 444.37 1251.18 448.599C1255.69 451.983 1274.44 454.943 1285.71 453.533L1317.43 444.37L1313.11 438.816C1310.55 435.524 1312.33 430.688 1316.41 429.835L1354.79 421.815C1354.79 421.815 1376.64 431.683 1437.25 426.044C1453.94 422.285 1489.98 413.357 1500.69 407.718C1511.4 402.08 1515.96 389.862 1516.9 384.458C1517.84 356.5 1519.16 299.172 1516.9 293.533C1514.65 287.894 1510.32 282.256 1508.44 280.141C1502.81 274.268 1486.88 259.419 1468.27 247.013C1449.66 234.608 1411.65 239.965 1394.96 244.194C1335.05 258.291 1210.58 287.895 1191.97 293.533C1173.36 299.172 1170.12 320.787 1170.82 330.89Z" fill="white" stroke="black" stroke-width="3" stroke-linejoin="round"/>
<path d="M1610.56 385.938L1518 300.5L1515 369.5L1570.38 409.903L1610.56 385.938Z" fill="white" stroke="black" stroke-width="3" stroke-linejoin="round"/>
<path d="M1171.53 390.097L1169.41 330.89C1168.84 322.692 1170.87 306.915 1181.59 298.243C1184.07 296.26 1187 294.654 1190.47 293.604C1209.08 287.965 1333.55 258.361 1393.47 244.264C1395.18 243.829 1397.12 243.383 1399.25 242.944C1401.32 243.121 1403.79 243.044 1406.52 242.959C1413.57 242.739 1422.29 242.467 1430.12 246.379C1444.22 253.427 1454.08 266.819 1457.61 273.868C1460.43 279.507 1462.07 292.664 1462.54 298.538V356.335C1463.01 361.269 1461.41 373.674 1451.26 383.824C1438.58 396.511 1430.12 400.035 1416.73 404.264C1406.01 407.648 1341.31 422.121 1310.29 428.934L1240.29 445.976C1239.08 445.859 1237.78 445.754 1236.38 445.64C1229.94 445.121 1221.28 444.423 1209.59 441.551C1172.75 432.503 1172.06 408.046 1171.66 393.721C1171.62 392.424 1171.59 391.209 1171.53 390.097Z" fill="white" stroke="black" stroke-width="3" stroke-linejoin="round"/>
<path d="M1171.53 390.411L1169.41 331.204C1168.71 321.101 1171.95 299.486 1190.56 293.847C1209.17 288.208 1333.64 258.605 1393.55 244.508C1394.32 244.314 1395.13 244.117 1395.98 243.92L1396.99 243.874L1400.46 244.452C1413.94 250.583 1415.38 265.706 1413.91 274.182C1412.26 298.851 1408.97 351.856 1408.97 366.517C1408.97 378.953 1401.79 388.278 1396.87 393.301L1230.65 434.182L1229.69 434.359C1218.06 436.513 1206.21 437.191 1194.41 436.378C1172.53 425.176 1172 406.045 1171.66 394.035C1171.62 392.738 1171.59 391.523 1171.53 390.411Z" fill="white" stroke="black" stroke-width="3" stroke-linejoin="round"/>
<rect x="1190.67" y="373.322" width="14.6718" height="203.248" rx="7.33591" transform="rotate(-103.322 1190.67 373.322)" fill="black"/>
<path d="M1412.45 256.657C1410.58 251.631 1407.2 246.883 1401.59 243.741C1406.72 242.795 1412.66 241.946 1418.88 241.428C1421.78 241.385 1426.12 241.647 1430.39 242.401C1434.74 243.17 1438.78 244.409 1441.22 246.182C1444.97 248.913 1449.46 253.223 1453.18 257.809C1456.94 262.445 1459.73 267.13 1460.36 270.612C1461.06 274.454 1460.97 276.403 1460.3 277.832C1459.62 279.299 1458.2 280.5 1455.34 282.507C1453.99 283.453 1452.2 284.441 1450.09 285.608L1449.94 285.69C1441.82 290.174 1429.59 296.924 1427.23 311.693C1426.67 315.144 1426.1 318.542 1425.52 321.889L1425.5 322.007C1423.18 335.611 1421 348.44 1421.57 359.934C1421.92 366.908 1421.56 372.568 1420.55 376.872C1419.53 381.198 1417.9 383.961 1415.85 385.423C1414.06 386.705 1410.32 388.409 1405.85 390.084C1403.33 391.03 1400.62 391.947 1397.99 392.753C1403.04 387.151 1409.06 377.741 1409.06 366.203C1409.06 351.621 1412.34 298.778 1413.99 274.046C1414.79 269.372 1414.74 262.803 1412.45 256.657Z" fill="white" stroke="black" stroke-width="3" stroke-linejoin="round"/>
<path d="M1558.4 433.163C1561.69 436.217 1569.11 441.903 1572.5 440.211C1576.73 438.097 1584.48 428.934 1585.89 419.771C1587.3 410.608 1592.23 399.33 1597.87 397.921C1603.51 396.511 1608.44 397.216 1611.26 402.15C1614.08 407.084 1614.08 413.427 1611.26 417.656C1608.44 421.885 1602.8 425.41 1597.87 422.59C1593.92 420.335 1589.65 418.361 1588 417.656" stroke="black" stroke-width="3" stroke-linejoin="round"/>
<path d="M1565.45 415.542C1563.76 419.489 1555.82 440.681 1552.06 450.784C1550.48 455.013 1550.65 462.767 1554.88 469.11C1559.1 475.454 1570.38 474.044 1582.36 469.11C1594.35 464.176 1607.74 447.26 1614.79 437.392C1621.84 427.524 1627.47 405.674 1626.06 400.035C1624.66 394.396 1622.54 385.234 1609.85 381.004C1597.17 376.775 1588 385.938 1583.77 388.758C1579.55 391.577 1567.56 410.608 1565.45 415.542Z" fill="white" stroke="black" stroke-width="3" stroke-linejoin="round"/>
<path d="M1585.18 424.705C1588 425.645 1594.21 428.511 1596.46 432.458C1598.72 436.405 1599.28 437.862 1599.28 438.097" stroke="black" stroke-width="3" stroke-linejoin="round"/>
<path d="M1602.1 432.458C1601.63 433.633 1599.99 436.969 1597.17 440.916C1593.64 445.85 1585.89 451.489 1582.36 452.194C1578.84 452.899 1575.32 450.079 1570.38 450.079C1565.45 450.079 1559.81 450.784 1557.69 454.308" stroke="black" stroke-width="3" stroke-linejoin="round"/>
<path d="M1320.87 439.507L1338.49 449.374" stroke="black" stroke-width="3" stroke-linejoin="round"/>
<path d="M1351.18 435.278L1368.8 445.145" stroke="black" stroke-width="3" stroke-linejoin="round"/>
<path d="M1330.73 503.648C1332.14 502.003 1335.95 498.855 1339.9 499.418C1344.83 500.123 1350.47 502.943 1354.7 502.238C1358.93 501.533 1362.45 496.599 1365.98 494.485C1369.5 492.37 1374.46 491.711 1385.71 490.96C1417.43 488.846 1435.05 483.207 1438.58 481.797" stroke="black" stroke-width="3" stroke-linejoin="round"/>
<path d="M1330.73 493.78C1332.38 489.551 1337.5 480.388 1344.83 477.568C1353.99 474.044 1360.34 471.225 1374.44 471.225C1385.71 471.225 1414.38 475.454 1427.3 477.568" stroke="black" stroke-width="3" stroke-linejoin="round"/>
<path d="M1345.54 511.401C1358.76 509.565 1377.69 505.893 1397.53 501.074C1418.36 496.015 1434.47 484.551 1438.58 481.797" stroke="black" stroke-width="3" stroke-linejoin="round"/>
<path d="M1434.35 505.057C1429.88 510.226 1419.69 521.551 1414.61 525.498C1408.27 530.432 1398.4 535.366 1388.53 536.775C1378.66 538.185 1371.62 538.185 1361.04 534.661C1352.58 531.842 1346.71 528.317 1344.83 526.908" stroke="black" stroke-width="3" stroke-linejoin="round"/>
<path d="M1456.85 924L1408.22 950.784L1456.85 980.388V924Z" stroke="black" stroke-width="3" stroke-linejoin="round"/>
<path d="M1310.42 780L1278 825.11L1322.41 857.533L1354.83 813.128L1310.42 780Z" stroke="black" stroke-width="3" stroke-linejoin="round"/>
<path d="M1207.65 153L1171 187.537L1216.82 204.454L1207.65 153Z" stroke="black" stroke-width="3" stroke-linejoin="round"/>
<circle cx="1595" cy="741.084" r="7" fill="black"/>
<circle cx="1698" cy="734.084" r="7" fill="black"/>
<circle cx="1800" cy="734.084" r="7" fill="black"/>
<circle cx="1595" cy="835" r="7" fill="black"/>
<circle cx="1698" cy="835.582" r="7" fill="black"/>
<circle cx="1800" cy="835.582" r="7" fill="black"/>
<circle cx="1596" cy="928" r="7" fill="black"/>
<circle cx="1698" cy="928" r="7" fill="black"/>
<circle cx="1800" cy="928" r="7" fill="black"/>
<rect x="1405.4" y="856.585" width="16.1746" height="61.567" rx="8.08731" transform="rotate(-74.4781 1405.4 856.585)" fill="black"/>
<path d="M1198.39 613L925.389 690.321L1126.52 880L1198.39 613Z" stroke="black" stroke-width="3" stroke-linejoin="round"/>
<path d="M938.023 362.015C951.312 400.473 978.131 482.098 979.097 500.944C979.784 514.33 970.151 552.477 960.976 584.786C935.003 562.074 887.033 523.165 879.302 518.815C869.637 513.379 862.993 515.191 859.368 517.003C855.744 518.815 850.308 524.856 849.1 533.916C848.133 541.165 854.335 551.434 857.556 555.662L889.792 587.704L979.701 670.075L1171.18 813.232C1171.58 813.434 1173.84 813.957 1179.64 814.44C1186.89 815.045 1194.14 810.212 1198.36 807.796C1202.59 805.38 1209.84 797.527 1213.46 792.091C1217.09 786.655 1222.75 772.468 1224.34 755.245C1226.16 735.533 1221.92 719.405 1218.9 709.942C1201.99 696.25 1164.66 666.089 1150.64 654.974C1133.13 641.081 1134.34 638.665 1128.29 619.336C1122.25 600.007 1110.78 520.878 1106.55 505.777C1102.32 490.676 1089.03 455.037 1085.41 446.581C1081.78 438.124 1070.91 420.003 1066.08 412.151C1061.25 404.298 1043.73 372.284 1036.48 363.224C1030.68 355.975 1027.62 353.358 1026.82 352.955C1020.78 338.458 1008.09 308.498 1005.68 304.632C1002.65 299.799 1000.84 299.195 998.427 298.591C996.01 297.987 993.594 298.591 989.366 301.612C985.983 304.028 984.735 309.464 984.534 311.88C984.332 307.048 983.809 295.934 983.326 290.135C982.722 282.886 979.701 279.262 976.681 277.45C973.661 275.638 970.641 275.638 967.017 276.242C963.392 276.846 958.56 282.282 956.748 285.302C955.298 287.719 954.936 290.739 954.936 291.947C952.922 293.155 946.842 297.987 938.627 307.652C930.412 317.317 934.801 347.921 938.023 362.015Z" stroke="black" stroke-width="3" stroke-linejoin="round"/>
<path d="M984.534 311.276C983.528 314.095 982.36 324.203 985.743 342.082C989.971 364.432 992.991 375.908 996.615 385.573C999.515 393.305 1011.92 423.426 1017.76 437.52C1020.98 444.165 1026.5 459.915 1029.23 467.722C1033.46 479.803 1036.48 496.112 1035.88 502.756" stroke="black" stroke-width="3" stroke-linejoin="round"/>
<path d="M961.581 583.094L950.708 618.128" stroke="black" stroke-width="3" stroke-linejoin="round"/>
<path d="M1048.56 610.879C1046.75 623.967 1044.82 660.894 1051.58 682.156C1058.35 703.418 1065.27 710.546 1067.89 714.17" stroke="black" stroke-width="3" stroke-linejoin="round"/>
<path d="M1026.82 352.955C1025.41 352.351 1020.9 352.713 1018.96 354.163C1016.55 355.975 1013.53 361.411 1013.53 365.64C1013.53 369.868 1012.32 371.68 1018.96 389.801C1024.28 404.298 1038.9 434.903 1045.54 448.393C1047.56 453.225 1052.19 465.185 1054.6 474.367C1057.62 485.843 1063.06 510.005 1062.45 511.817" stroke="black" stroke-width="3" stroke-linejoin="round"/>
<path d="M954.936 291.947C954.331 301.209 953.848 323.236 956.748 337.25C960.372 354.767 964.6 375.304 969.432 386.781C974.265 398.258 979.701 412.755 984.533 420.607C989.366 428.46 997.218 443.561 999.03 447.789C1000.84 452.017 1008.69 473.763 1008.69 484.635C1008.69 493.334 1008.69 496.716 1008.69 497.32" stroke="black" stroke-width="3" stroke-linejoin="round"/>
<path d="M896.948 374.339L869.163 241.45L1076.95 204L1103.53 339.305L896.948 374.339Z" stroke="black" stroke-width="3" stroke-linejoin="round"/>
<path d="M890.557 265.612L952.773 255.343" stroke="black" stroke-width="3" stroke-linejoin="round"/>
<path d="M894.433 282.223L1062.96 252.625" stroke="black" stroke-width="3" stroke-linejoin="round"/>
<path d="M897.902 298.506L1065.57 268.908" stroke="black" stroke-width="3" stroke-linejoin="round"/>
<path d="M901.176 314.788L1069.7 285.19" stroke="black" stroke-width="3" stroke-linejoin="round"/>
<path d="M905.306 331.071L1073.83 301.473" stroke="black" stroke-width="3" stroke-linejoin="round"/>
<path d="M1016.2 327.182L1077.04 317.756" stroke="black" stroke-width="3" stroke-linejoin="round"/>
<path d="M183.027 666L105 745.138L216 773L183.027 666Z" stroke="black" stroke-width="3" stroke-linejoin="round"/>
<circle cx="493.201" cy="756.194" r="26.6938" stroke="black" stroke-width="3" stroke-linejoin="round"/>
<rect x="453.542" y="869" width="16.1746" height="61.567" rx="8.08731" transform="rotate(45 453.542 869)" fill="black"/>
<path d="M701.143 935.98L701.137 935.984L677.393 951.81L651.867 939.054L651.861 939.051L626.283 926.401L624.567 897.917L624.567 897.911L622.733 869.434L646.543 853.706L646.548 853.702L670.293 837.877L695.819 850.632L695.824 850.635L721.402 863.286L723.119 891.769L723.119 891.775L724.952 920.252L701.143 935.98Z" stroke="black" stroke-width="3"/>
<path d="M1560.66 290.433L1578.66 287.488L1581.2 267.067L1562.95 272.055L1560.66 290.433Z" fill="white" stroke="black" stroke-width="2.82" stroke-linejoin="round"/>
<path d="M1631.5 304.432L1629.09 323.831C1628.79 326.213 1628.73 331.667 1630.88 334.422C1633.02 337.178 1640.88 345.69 1644.54 349.601C1647.38 353.247 1652.64 360.358 1653.87 363.258C1665.01 379.17 1670.53 399.109 1667.94 419.907C1663.05 459.222 1630.84 488.468 1592.72 490.986L1586.55 502.191L1561.65 499.092L1559.31 486.227L1551.25 482.759C1521.11 467.862 1502.23 435.082 1506.62 399.835C1510.29 370.29 1529.39 346.432 1554.83 335.329C1556.74 334.754 1560.93 333.375 1562.42 332.462C1565.28 330.726 1567.94 329.028 1569.49 327.821C1571.79 326.033 1573.06 324.118 1573.95 316.971L1576.36 297.571L1631.5 304.432Z" fill="white" stroke="black" stroke-width="2.82" stroke-linejoin="round"/>
<path fill-rule="evenodd" clip-rule="evenodd" d="M1579.25 478.563C1541.13 473.821 1514.08 439.078 1518.82 400.963C1523.56 362.849 1558.31 335.795 1596.42 340.537C1634.53 345.279 1661.59 380.022 1656.85 418.137C1652.1 456.251 1617.36 483.305 1579.25 478.563ZM1581.38 461.44C1552.72 457.874 1532.38 431.752 1535.94 403.094C1539.51 374.436 1565.63 354.095 1594.29 357.66C1622.95 361.226 1643.29 387.348 1639.72 416.006C1636.16 444.664 1610.04 465.005 1581.38 461.44Z" fill="#FFF500"/>
<path d="M1518.82 400.963L1517.42 400.789L1517.42 400.789L1518.82 400.963ZM1579.25 478.563L1579.42 477.164L1579.42 477.164L1579.25 478.563ZM1596.42 340.537L1596.25 341.936L1596.25 341.936L1596.42 340.537ZM1656.85 418.137L1655.45 417.963L1655.45 417.963L1656.85 418.137ZM1535.94 403.094L1537.34 403.268L1537.34 403.268L1535.94 403.094ZM1581.38 461.44L1581.2 462.839L1581.2 462.839L1581.38 461.44ZM1594.29 357.66L1594.46 356.261L1594.29 357.66ZM1639.72 416.006L1641.12 416.18L1641.12 416.18L1639.72 416.006ZM1520.22 401.137C1515.57 438.479 1542.08 472.518 1579.42 477.164L1579.07 479.962C1540.18 475.124 1512.58 439.677 1517.42 400.789L1520.22 401.137ZM1596.25 341.936C1558.9 337.29 1524.87 363.795 1520.22 401.137L1517.42 400.789C1522.26 361.902 1557.71 334.299 1596.59 339.138L1596.25 341.936ZM1655.45 417.963C1660.09 380.621 1633.59 346.582 1596.25 341.936L1596.59 339.138C1635.48 343.976 1663.08 379.423 1658.25 418.311L1655.45 417.963ZM1579.42 477.164C1616.76 481.81 1650.8 455.305 1655.45 417.963L1658.25 418.311C1653.41 457.198 1617.96 484.801 1579.07 479.962L1579.42 477.164ZM1537.34 403.268C1533.87 431.153 1553.67 456.571 1581.55 460.04L1581.2 462.839C1551.77 459.177 1530.88 432.35 1534.55 402.92L1537.34 403.268ZM1594.12 359.06C1566.23 355.59 1540.81 375.383 1537.34 403.268L1534.55 402.92C1538.21 373.489 1565.03 352.599 1594.46 356.261L1594.12 359.06ZM1638.32 415.832C1641.79 387.947 1622 362.529 1594.12 359.06L1594.46 356.261C1623.89 359.923 1644.78 386.75 1641.12 416.18L1638.32 415.832ZM1581.55 460.04C1609.44 463.51 1634.85 443.717 1638.32 415.832L1641.12 416.18C1637.46 445.611 1610.63 466.501 1581.2 462.839L1581.55 460.04Z" fill="black"/>
<ellipse cx="53.2112" cy="53.2113" rx="53.2112" ry="53.2113" transform="matrix(-0.992348 -0.123469 -0.123469 0.992348 1647.21 363.316)" fill="#FFF500" stroke="black" stroke-width="2.82" stroke-linejoin="round"/>
<rect width="57.6184" height="20.578" transform="matrix(-0.992348 -0.123469 -0.123469 0.992348 1638.37 274.181)" fill="white" stroke="black" stroke-width="2.82" stroke-linejoin="round"/>
<path d="M1512.95 157.349C1515.23 157.684 1517.47 158.317 1519.62 159.212C1527.01 162.289 1532.19 164.448 1541.85 172.305C1555.64 183.511 1567.15 203.069 1572.33 219.039C1575.74 229.565 1579.78 251.516 1581.87 267.072L1564.11 271.929C1563.77 265.052 1562.87 254.873 1559.1 239.631C1551.77 209.959 1536.62 185.399 1525.63 176.213C1510.07 163.209 1496.34 163.253 1488.25 163.278C1488.02 163.279 1487.8 163.28 1487.59 163.28C1474.8 163.305 1463.81 165.89 1463.81 165.89C1463.81 165.89 1467.36 163.53 1472.66 161.136C1484.95 157.103 1490.73 156.093 1502.46 156.19C1504.97 156.21 1508.83 156.745 1512.95 157.349Z" fill="white" stroke="black" stroke-width="2.82" stroke-linejoin="round"/>
<path d="M1632.75 273.275C1627.43 245.976 1615.53 207.757 1589.21 183.878C1585.22 180.263 1581.21 176.999 1577.48 174.16C1565.93 165.38 1551.93 161.181 1537.74 159.827L1515.91 157.743C1517.98 158.642 1519.88 159.379 1521.69 160.086C1527.92 162.51 1533.24 164.58 1541.68 171.601C1555.34 182.954 1566.73 202.806 1571.83 219.027C1575.15 229.593 1579.07 251.502 1581.13 267.275L1582.19 266.985L1582.19 266.985L1632.75 273.275Z" fill="white" stroke="black" stroke-width="2.82" stroke-linejoin="round"/>
<path d="M1506.61 399.834C1503.37 425.894 1512.85 450.606 1530.19 467.738C1520.49 459.056 1511.52 448.766 1507.4 443.48C1500.25 434.295 1495.65 421.281 1494.62 404.563C1493.59 387.845 1499.83 370.996 1505.06 362.315C1509.44 355.046 1522.28 340.61 1535.67 332.945C1538.73 331.195 1541.21 329.81 1543.4 328.585L1543.4 328.585C1547.11 326.512 1550.01 324.893 1553.53 322.725C1558.02 319.966 1559.14 313.746 1558.89 313.023L1560.54 299.75L1576.36 297.571L1573.95 316.971C1573.06 324.118 1571.78 326.033 1569.49 327.821C1567.94 329.028 1566.36 330.206 1562.73 332.164L1555.07 335.359C1529.94 345.71 1510.41 369.35 1506.61 399.834Z" fill="white" stroke="black" stroke-width="2.82" stroke-linejoin="round"/>
<path d="M1559.45 486.278L1561.79 499.125L1554.66 494.013L1550.53 482.412C1552.78 483.468 1557.09 485.425 1559.45 486.278Z" fill="white" stroke="black" stroke-width="2.82" stroke-linejoin="round"/>
<mask id="path-75-inside-1_9_2753" fill="white">
<rect x="1628.28" y="304.814" width="49.0396" height="12.2697" rx="2" transform="rotate(-172.908 1628.28 304.814)"/>
</mask>
<rect x="1628.28" y="304.814" width="49.0396" height="12.2697" rx="2" transform="rotate(-172.908 1628.28 304.814)" fill="white" stroke="black" stroke-width="5.64" stroke-linejoin="round" mask="url(#path-75-inside-1_9_2753)"/>
<path d="M1580.77 297.261L1570.37 298.337C1569.99 298.376 1569.68 298.052 1569.73 297.674L1570.7 290.196C1570.74 289.933 1570.94 289.725 1571.21 289.688L1581.61 288.253C1582 288.2 1582.33 288.526 1582.28 288.91L1581.3 296.747C1581.26 297.02 1581.05 297.233 1580.77 297.261Z" fill="white" stroke="black" stroke-width="2.82" stroke-linejoin="round"/>
<path d="M172.9 366H139.9C151.9 370.2 167.7 376.3 176 380.7L170.4 390.9C161.6 385.9 143.3 378.2 130.4 373.5L134.9 366H131.3C126.5 378.3 115.8 386.2 89.1 390.6C88.3 387.4 85.5 382.4 83.2 379.9C103.3 377.2 112.7 372.7 117.4 366H87.6V355.9H121.3C121.6 354.3 121.9 352.5 122.1 350.7H85.3V340.4H123.7V335.1H94.1V325.1H123.7V320H88.4V309.5H107.4C105.9 306.5 103.8 303.3 101.8 300.7L112.4 296.5C115.5 300 118.6 304.8 119.9 308.2L117 309.5H139C141.5 305.6 144.5 300.4 146.1 296.5L158.9 299.8C156.7 303.3 154.4 306.6 152.2 309.5H171.4V320H136V325.1H166.6V335.1H136V340.4H175.8V350.7H134.7C134.5 352.5 134.2 354.2 133.9 355.9H172.9V366ZM203.3 297.5L214.6 301.9C208.1 311.2 198.3 320.9 189.1 326.9C187.8 324.3 184.9 319.4 183.1 317.1C190.8 312.2 199.2 304.1 203.3 297.5ZM248.8 331.7V336.9H259.4V331.7H248.8ZM248.8 316.5V321.6H259.4V316.5H248.8ZM270.7 346.5H248.8V351.5H271.7V361.3H248.8V366.6H275.7V376.9H248.8V390.7H237.4V376.9H212.3V366.6H237.4V361.3H216.2V351.5H237.4V346.5H217.7V336.9H237.4V331.7H214V326.5C212.1 329.6 209.8 332.9 207.3 336.1V390.8H196.2V349C193.3 352 190.5 354.7 187.7 357C186.8 354.5 183.9 348 182.2 345.1C190.6 338.9 200 329 205.5 319.4L214 323V321.6H237.4V316.5H218.1V306.9H237.4V297.3H248.8V306.9H270.7V321.6H276.7V331.7H270.7V346.5ZM298.2 314.6V322.8H287.5V305.4H324C323.2 303.3 322.1 301.2 321.1 299.4L331.5 296.5C333.2 299.2 335 302.5 336.1 305.4H372.6V322.8H361.5V314.6H298.2ZM309.2 367.9V371.1H350.8V367.9H309.2ZM309.2 359.2V362.3H350.8V359.2H309.2ZM309.2 350.6V353.5H350.8V350.6H309.2ZM362.9 377H349.2C358 379.4 366.8 382 372.7 383.9L364.6 391.2C357.4 388.5 345.7 384.5 334.2 381.5L338.3 377H320L326 381.4C317.6 385.7 303.6 389.6 292 391.3C290.6 389 287.8 385.4 285.7 383.2C294.5 382 304.8 379.7 312 377H297.7V344.6H362.9V377ZM333.7 335.8H346.6L346.9 332.6H334.1L333.7 335.8ZM311.2 332.6L310.8 335.8H324L324.4 332.6H311.2ZM325.3 323.8H312.3L311.9 326.7H325L325.3 323.8ZM347.4 326.7L347.6 323.8H335L334.8 326.7H347.4ZM358.5 325.4H375.8V333.9H357.7L356.9 341.7H299.4L300.4 333.9H284.7V325.4H301.6L302.6 317.8H359.2L358.5 325.4ZM413.2 371.3L421.6 375.1C414.8 380.8 402.8 386 392.5 388.4C391 385.9 387.9 382 385.5 379.8C395.5 378.4 407.1 375 413.2 371.3ZM440.1 376.3L448.1 370.7C456.2 373.7 468 378.7 474.4 381.9L466 388.4C460.2 385.1 448.5 379.8 440.1 376.3ZM444.3 322.9H416.9C418.5 325.4 420.1 328.3 420.9 330.4L415.5 331.7H442.8L439.2 330.6C440.8 328.3 442.9 325.3 444.3 322.9ZM435.8 358.2H474.6V368H435.8V390.8H424V368H385.9V358.2H424V353.8H395.2V345.2H424V340.7H390.2V331.7H408.6C407.7 329.4 406.2 326.6 404.9 324.4L411.6 322.9H386.1V313.6H399.7C398.2 309.8 395.6 305 393.3 301.2L403.5 297.8C406.5 302 409.8 308 411.1 311.8L406.3 313.6H415.5V297.3H426.5V313.6H434V297.3H445.2V313.6H454.1L450.5 312.5C452.8 308.5 455.5 302.4 456.9 298.1L469.4 301C466.6 305.6 463.9 310.1 461.4 313.6H474.3V322.9H447.9L457.3 325.3C455.1 327.7 453 329.9 451.2 331.7H470.5V340.7H435.8V345.2H465.8V353.8H435.8V358.2Z" fill="black"/>
<path d="M108.1 438.4H124.1C120.9 436.4 117.6 434.3 114.6 432.4C112.5 434.4 110.3 436.5 108.1 438.4ZM124.9 456.9H102.2V460.2V460.8H124.9V456.9ZM101.8 471.9H124.9V467.8H102C102 469.1 101.9 470.5 101.8 471.9ZM127.7 491.3H109.2V498.4H127.7V491.3ZM124.8 445.4H104.2V441.5C100.7 444.1 97.2 446.6 93.5 448.7H135.7V480.1H101C100.8 481.1 100.7 482.2 100.5 483.2H138.1V509.9H127.7V507.2H109.2V510.3H99.3V489.6C97.9 495.9 95.8 502 92.9 507.1C90.6 505.6 85.4 503.4 82.5 502.5C90.4 489.8 91.2 471.9 91.2 460.2V450.1L88.9 451.3C87.8 448.5 84.7 442.5 82.7 439.9C94.3 435 106 426.8 112.4 417.2L123.3 421.5C122.7 422.4 122.1 423.2 121.5 424C128.9 428.3 137.2 433.2 141.8 436.5L135.7 446.5C133 444.3 129.1 441.7 124.8 438.9V445.4ZM154.9 427.6V483.4H143.7V427.6H154.9ZM161.8 417.6H173.2V496.4C173.2 502.8 172 506 168.3 507.9C164.8 509.9 159.1 510.3 151.1 510.3C150.6 507 149.2 501.7 147.6 498.4C152.7 498.5 157.9 498.5 159.5 498.5C161.1 498.5 161.8 498 161.8 496.3V417.6ZM237.7 438.7H225.1C223.1 441.9 220.9 444.7 218.7 447.1H237.7V438.7ZM211.1 447.1H218.3C215.9 445.2 211.2 442.8 208.5 441.5C214.7 435.9 219.8 427.1 222.7 418.3L233.7 420.9C232.9 423.5 231.8 426.1 230.7 428.6H237.7V417.4H249.5V428.6H271.3V438.7H249.5V447.1H275.4V457.1H211.1V447.1ZM229.9 480.8H256.9V471.6H229.9V480.8ZM268.7 493.5H256.9V490.8H229.9V493.8H218.5V462.2H268.7V493.5ZM206.2 434.4L195 438.1C193.7 433.7 191.3 426.7 189.5 421.4L200.4 418.2C202.3 423.5 204.7 430.1 206.2 434.4ZM208.8 461.5L213.8 463.7C211.7 473.4 208.4 483.2 204.4 490.9C205.7 491.8 207.2 492.9 209.1 494C215.9 498.1 225.2 498.7 236.9 498.7C248.4 498.7 266.3 497.7 277.4 496.1C276 499.3 274.2 505.1 274 508.3C265.6 508.8 248.1 509.5 236.4 509.5C223.2 509.5 214.8 508.4 207.6 504.2C203.5 501.9 199.9 498.6 197.9 498.6C195.6 498.6 192.3 505.4 190 511.1L182.1 499.7C186.2 494.5 190.7 490.7 194.4 489C196.8 484.2 198.9 478.1 200.5 472.2H187.1C189.4 466.6 192.1 458.7 194.5 451.2H183.9V440.6H208.5C206.4 447.4 203.8 455.2 201.4 462H207.1L208.8 461.5ZM305.9 507.1L297.7 504C299.4 497.8 301.3 488.5 302.2 481.8L309.8 484.7C308.8 491 307.2 500.9 305.9 507.1ZM328.2 467.5V460.3H314.6V467.5H328.2ZM354.5 426.6H360.7C358.8 424.9 356.5 423.1 354.5 421.5C354.5 423.2 354.5 424.9 354.5 426.6ZM361.8 438.6L372.5 441.3C368.9 450.8 363.7 459.3 357.4 466.5C359.8 485.3 363.4 498.7 366.5 498.7C367.9 498.7 368.8 493.6 369.1 482.7C371.3 485.4 375 488 377.9 489.2C376.2 505.7 373 510 365 510C356.3 510 350.7 495.6 347.4 475.8C345.5 477.3 343.5 478.6 341.5 479.9C340.6 478.7 339 477.1 337.4 475.4H325.6C328.4 479.9 331.8 485.8 333.3 489.2L325.5 493.4C324.4 490.4 322.1 486 319.9 481.9V498.7C319.9 501.3 320.3 501.6 322.8 501.6H330C332.3 501.6 332.8 500.1 333 491C334.5 492.1 337.1 493.2 339.4 493.9C338 490.5 336.6 487.1 335.3 484.1L343.1 481.1C346.3 487.9 350.2 497 352.1 502.4L343.7 506C343.1 503.8 342.1 500.9 340.9 497.8C339.8 507 337.2 509.6 331 509.6H321.3C312.5 509.6 310.5 507 310.5 498.8V481.8H319.8L317.9 478.4L324.1 475.4H304.9V452.3H337.5V469.4C340.4 467.6 343.1 465.5 345.6 463.2C344.6 454.5 344 445.2 343.5 436H302.4V440.3H340.7V448.2H302.4C302.2 466 300.4 493 291.8 510.9C289.8 509 284.9 505.6 282.3 504.7C290.7 487.4 291.5 462.3 291.5 445.8V426.6H343.2C343.1 423.5 343 420.4 343 417.3H354.5V420.5L360.8 416.1C364 418.4 368.5 421.7 370.8 423.8L367.1 426.6H375.1V436H354.8C355 441.1 355.3 446.2 355.7 451.1C358.2 447.2 360.2 443.1 361.8 438.6ZM430.9 468H413.7C413.5 469.4 413.3 470.8 413 472.1C418.2 477.2 429 489.7 431.8 493L423.8 503C420.5 497.8 414.8 490.3 409.9 484.2C406.5 494 400.6 503.4 391 510.4C389.4 507.9 385 503.2 382.5 501.4C395.5 492.1 400.1 479.6 401.7 468H384V456.8H402.5V454.3V440.9H398.5C396.5 446 394.2 450.6 391.7 454.3C389.5 452.3 384.8 448.9 382.1 447.4C387.5 440.2 391.3 428.7 393.3 417.3L404.7 419.6C404 423.1 403.2 426.5 402.2 429.9H428.6V440.9H414.5V454.4V456.8H430.9V468ZM445.1 489.4H459.6V437.1H445.1V489.4ZM433.6 425.9H471.7V506.3H459.6V500.6H445.1V507.8H433.6V425.9ZM491.7 480L500.8 482.6C498.3 489.8 494.2 498 490.7 503.1C488.9 501.6 485.1 499 482.9 497.7C486.3 493 489.6 486.2 491.7 480ZM515.2 436.9H500.4C501.9 440.2 503.2 444.5 503.7 447.3L496.5 449.3H510.9C512.4 445.7 514.2 440.6 515.2 436.9ZM530.3 476.8H514.8V510H503.3V476.8H484.7V466.8H503.3V459.1H484.1V449.3H493.8C493.3 446.3 492.1 442 490.9 438.9L499.1 436.9H485.6V427.2H502.7C501.8 424.5 500.7 421.7 499.7 419.3L511.6 416.4C513.1 419.7 514.9 423.8 516.1 427.2H530.4V436.9H517.9L526 438.5C524.5 442.3 523 446.2 521.5 449.3H531.9V459.1H514.8V466.8H530.3V476.8ZM576.5 450.2V461.2H567.2V510.3H555.6V461.2H546.3V462.4C546.3 477.1 545 497.7 536.5 510.5C534.5 508.4 529.8 504.6 527.3 503.4C529.2 500.5 530.7 497.2 531.8 493.7L524.7 498.1C523.1 494.1 519.7 487.7 516.9 483.1L524.7 478.9C527.4 482.9 530.5 488.2 532.2 492C535 482.4 535.3 471.6 535.3 462.4V426.8C546.2 424.8 558.3 421.7 565.6 418.3L574.7 427C566.5 430.3 556.1 432.7 546.3 434.5V450.2H576.5ZM664.9 436.9V432.3H659.6V436.9H664.9ZM664.9 448.8V444.1H659.6V448.8H664.9ZM635.3 444.1V448.8H640.4V444.1H635.3ZM635.3 432.3V436.9H640.4V432.3H635.3ZM652.4 444.1H647.6V448.8H652.4V444.1ZM647.6 436.9H652.4V432.3H647.6V436.9ZM674.1 424.5V456.6H626.5V424.5H638.3V417.4H647.5V424.5H651.9V417.4H661.2V424.5H674.1ZM676 460V468.5H625V460H676ZM598.7 476.9V479.9C598.7 482.8 598.6 485.8 598.4 489.1C601.8 487.7 605.9 485.7 610.4 483.5V479.1L606.4 483.5C604.7 481.8 601.6 479.1 598.7 476.9ZM597.2 428.8V448.9H601.1V432.9H610.8V428.8H597.2ZM607.1 448.9H610.8V439.6H607.1V448.9ZM615.7 460.9V456.9H592.8V460.9H615.7ZM598.7 468.6V474.3L602.1 470.9C605 472.8 608.2 475 610.4 476.9V468.6H598.7ZM624.7 464.3H620.2V500.4C620.2 504.7 619.5 507.1 616.7 508.6C614.1 510.1 610.4 510.2 605.1 510.2C604.8 507.7 603.6 503.9 602.4 501.5C605.2 501.6 608.2 501.6 609.1 501.6C610.1 501.6 610.4 501.2 610.4 500.3V491.2C607.1 493.4 603.9 495.5 600.7 497.4L598.1 491.8C597.3 498.6 595.6 505.8 592.1 511C590.4 509.3 586 506.3 583.8 505.3C588.7 497.8 589.1 487.6 589.1 479.7V464.4H584.1V448.9H588V420.4H620.5V448.9H624.7V464.3ZM657.3 491.3H642.5C643.7 494.3 645 497.7 645.9 500.5H654C655.2 497.5 656.5 494.1 657.3 491.3ZM639.2 479V484.2H660.9V479H639.2ZM663.8 500.5H676.8V509.1H624V500.5H635.8C635 498 634 495.4 633.1 493.2L639.4 491.3H628.8V471.8H671.9V491.3H660.5L668.2 493.4C666.6 495.9 665.2 498.3 663.8 500.5ZM689.1 503.9L682.7 501.7C684.6 495.9 686.1 486.7 686.8 480.1L692.7 482.2C692.1 488.8 690.8 498.3 689.1 503.9ZM693.8 482.2L698.7 481.8C699.2 487.5 699.5 495 699.5 500L694.3 500.6C694.5 495.6 694.2 488 693.8 482.2ZM699.7 481.5L704.5 480.7C705.7 485.9 707 492.5 707.4 496.8L702.4 497.8C702.1 493.4 700.9 486.6 699.7 481.5ZM697 460.8V467.1H703.2V460.8H697ZM703.2 430.8H697V437.4H703.2V430.8ZM703.2 452.1V446.2H697V452.1H703.2ZM739.5 439.3H760.2C756.3 436.4 752.5 433.4 749.1 430.3C746.3 433.5 743 436.5 739.5 439.3ZM732.5 479.9L742.5 481.6C741.9 484.2 741.2 486.8 740.4 489.3C744 491.5 747.8 494.4 749.8 496.6L744 504.3C742.4 502.6 739.7 500.2 736.9 498.1C734.5 503.1 731.6 507.4 728.3 510.8C726.8 509.1 723.1 506.1 720.8 504.4C720.5 505.4 720.2 506.1 719.8 506.6C718.3 508.8 716.6 509.6 714.3 509.9C712.3 510.3 709.2 510.4 706 510.3C705.9 507.6 704.9 503.9 703.7 501.5C706.2 501.8 708.3 501.8 709.3 501.8C710.4 501.8 711.1 501.7 711.8 500.7C712.4 499.7 712.8 497.3 713.2 492.1L709.7 493.4C709 489.9 707.3 484.5 705.7 480.5L709.9 479.1C711.2 482 712.5 485.7 713.4 488.8C713.6 485.6 713.7 481.6 713.9 476.8H687.8V421.1H722.4V430.8H712.2V437.4H720.8V439.7C731.4 433.8 741.1 424.7 746.4 416L757 419.7C756.4 420.8 755.7 421.8 755 422.8C761 428.1 769.7 433.4 777.4 436.3C775.7 439 773.7 444.2 773 447.2C769.9 445.6 766.8 443.8 763.7 441.7V448.3H734.3V443.3C732 444.8 729.7 446.2 727.4 447.6C726 445.7 723 442.5 720.8 440.7V446.2H712.2V452.1H721.1V460.8H712.2V467.1H723.3C723.3 467.1 723.3 469.7 723.2 470.9C722.7 489.5 722.2 499.1 721 503.7C726.9 498.1 730.7 489.4 732.5 479.9ZM758.2 461V470.4H764.5V461H758.2ZM750.5 477.9V453.6H772.7V477.9H750.5ZM733.6 461V470.4H739.1V461H733.6ZM725.9 477.9V453.6H747.3V477.9H725.9ZM756.9 479.4L767.5 481.2C766.8 485.2 765.9 489.1 764.7 492.8C768.9 495.6 773.7 499.1 776.3 501.6L769.4 509.7C767.5 507.6 764.1 504.8 760.7 502.2C759 505.4 757 508.4 754.8 510.8C753.1 509 748.7 505.7 746.2 504.2C752 498.5 755.4 489.4 756.9 479.4Z" fill="black"/>
<mask id="path-79-inside-2_9_2753" fill="white">
<path d="M86 540.5H774V537.5H86V540.5Z"/>
</mask>
<path d="M86 540.5H774V537.5H86V540.5Z" fill="black"/>
<path d="M86 540.5V544.5H82V540.5H86ZM774 540.5H778V544.5H774V540.5ZM774 537.5V533.5H778V537.5H774ZM86 537.5H82V533.5H86V537.5ZM86 536.5H774V544.5H86V536.5ZM770 540.5V537.5H778V540.5H770ZM774 541.5H86V533.5H774V541.5ZM90 537.5V540.5H82V537.5H90Z" fill="black" mask="url(#path-79-inside-2_9_2753)"/>
<path d="M135.595 563.659V566.495H104.507V563.659H118.742C118.251 562.404 117.597 561.095 116.997 560.004L119.942 559.077C120.815 560.441 121.796 562.241 122.342 563.659H135.595ZM97.5805 566.986L94.7989 568.022C94.3626 566.058 93.1082 563.004 91.7447 560.714L94.4171 559.841C95.8352 562.132 97.1441 565.077 97.5805 566.986ZM103.362 568.731V571.731H86.3998V568.731H103.362ZM99.053 593.328H91.0902V602.982H99.053V593.328ZM101.889 590.329V605.927H91.0902V608.545H88.3632V590.329H101.889ZM88.6359 585.966V583.02H101.889V585.966H88.6359ZM88.6359 578.712V575.767H101.889V578.712H88.6359ZM115.579 589.129V592.292H124.141V589.129H115.579ZM115.579 583.511V586.62H124.141V583.511H115.579ZM109.47 571.131V575.603H115.633V571.131H109.47ZM124.469 571.131V575.603H130.795V571.131H124.469ZM132.977 595.892L134.995 597.746C132.977 599.219 130.414 600.637 128.177 601.728C130.468 603.746 133.359 605.327 136.631 606.2C135.922 606.909 134.995 608.054 134.559 608.872C127.687 606.636 122.723 601.673 120.051 595.019H119.287C117.869 596.383 116.07 597.637 114.161 598.782V604.727L122.614 603.037C122.56 603.909 122.614 605.218 122.723 605.873C113.07 608.109 111.652 608.545 110.779 609.091C110.506 608.381 109.688 607.127 109.143 606.636C109.907 606.091 111.215 604.836 111.215 602.437V600.31C109.143 601.346 106.961 602.164 104.943 602.873C104.562 602.273 103.58 601.019 102.98 600.473C107.343 599.219 111.979 597.364 115.251 595.019H103.798V592.292H112.252V589.129H106.525V586.62H112.252V583.511H105.543V580.948H112.252V577.894H106.634V568.84H118.578V577.894H115.579V580.948H124.141V577.894H121.633V568.84H133.74V577.894H127.468V580.948H134.94V583.511H127.468V586.62H133.795V589.129H127.468V592.292H136.086V595.019H123.105C123.978 596.764 125.069 598.401 126.269 599.819C128.614 598.673 131.286 597.037 132.977 595.892ZM170.446 559.623H174.427C174.373 561.532 174.318 564.259 174.046 567.476C174.864 573.803 178.191 597.037 197.443 605.654C196.461 606.473 195.371 607.672 194.825 608.709C180.809 602.109 175.082 588.038 172.464 577.785C170.064 588.911 164.337 601.728 150.593 608.872C149.993 607.945 148.794 606.854 147.757 606.091C170.446 594.746 170.282 567.804 170.446 559.623ZM257.11 570.531V574.239H242.166V603.2C242.166 605.927 241.402 607.018 239.603 607.672C237.803 608.272 234.694 608.381 229.349 608.327C229.185 607.291 228.586 605.654 228.04 604.564C231.967 604.727 235.73 604.673 236.767 604.673C237.857 604.618 238.294 604.291 238.294 603.2V575.494C231.912 585.911 221.223 596.71 211.078 602.437C210.424 601.4 209.333 600.037 208.351 599.219C218.277 594.201 228.695 584.057 234.749 574.239H210.042V570.531H238.294V559.405H242.166V570.531H257.11ZM308.323 585.856V579.912H285.034V585.856H308.323ZM284.871 595.128H308.323V589.02H285.034V590.983C285.034 592.292 284.98 593.656 284.871 595.128ZM318.304 569.985H288.852C287.761 572.221 286.562 574.512 285.307 576.639H311.868V604.4C311.868 606.691 311.323 607.782 309.632 608.381C307.941 608.981 304.942 608.981 300.197 608.981C300.033 607.945 299.488 606.473 298.997 605.436C302.76 605.6 306.087 605.545 307.014 605.545C307.996 605.491 308.323 605.164 308.323 604.346V598.292H284.435C283.671 602.273 282.089 606.364 278.871 609.418C278.435 608.6 277.126 607.127 276.363 606.582C280.889 602.164 281.38 596.11 281.38 590.929V582.257C278.708 585.584 275.654 588.638 272.163 591.092C271.727 590.274 270.581 588.965 269.872 588.256C276.417 583.784 281.38 577.185 284.925 569.985H270.963V566.549H286.398C287.434 564.204 288.252 561.804 288.907 559.459L292.506 560.277C291.852 562.404 291.143 564.477 290.27 566.549H318.304V569.985ZM376.825 563.004L374.644 564.968C373.117 563.931 370.28 562.186 368.099 560.986L370.226 559.241C372.353 560.332 375.244 561.968 376.825 563.004ZM340.011 607.291L337.338 606.309C338.265 603.418 339.465 598.782 340.065 595.783L342.52 596.71C341.865 599.655 340.883 604.4 340.011 607.291ZM356.046 587.438V580.402H344.756V587.438H356.046ZM359.045 577.675V590.165H341.647V577.675H359.045ZM356.318 599.273L353.755 600.637C352.664 598.619 350.592 595.183 348.901 592.674L351.355 591.529C353.1 594.037 355.227 597.31 356.318 599.273ZM349.883 605.927H356.7C358.445 605.927 358.718 605.164 358.882 599.546C359.591 600.091 360.736 600.528 361.609 600.746C361.281 607.182 360.409 608.654 357.027 608.654H349.61C345.628 608.654 344.592 607.782 344.592 604.509V595.346H347.646V604.509C347.646 605.709 347.974 605.927 349.883 605.927ZM360.245 595.837L362.808 594.856C364.772 598.073 367.117 602.437 368.262 605.055L365.535 606.309C364.445 603.636 362.154 599.164 360.245 595.837ZM374.316 570.967L377.589 571.785C375.625 577.185 372.735 581.875 369.299 585.802C370.989 597.692 373.716 605.436 376.171 605.436C377.153 605.436 377.643 602.546 377.916 596.219C378.68 596.983 379.825 597.801 380.698 598.128C380.098 606.364 379.007 608.927 375.734 608.927C371.371 608.927 368.208 600.855 366.299 588.911C364.554 590.547 362.754 591.965 360.845 593.274C360.3 592.619 359.045 591.31 358.227 590.765C360.954 589.183 363.463 587.22 365.754 584.929C365.045 579.748 364.554 574.076 364.281 568.076H338.92V571.84H361.718V574.512H338.92V576.694C338.92 585.802 338.156 599.601 333.466 609.2C332.811 608.545 331.339 607.563 330.575 607.236C335.102 598.073 335.538 585.366 335.538 576.694V565.022H364.172C364.063 563.168 364.063 561.259 364.008 559.405H367.553C367.553 561.313 367.553 563.222 367.608 565.022H379.825V568.076H367.717C367.935 572.821 368.262 577.294 368.753 581.384C371.099 578.275 372.953 574.785 374.316 570.967Z" fill="black"/>
<path d="M426.689 577.021C430.616 580.184 435.47 585.093 439.015 589.183L435.688 592.019C432.143 587.602 427.452 582.966 423.58 579.857L426.689 577.021Z" fill="black"/>
<path d="M531.595 563.659V566.495H500.507V563.659H514.742C514.251 562.404 513.597 561.095 512.997 560.004L515.942 559.077C516.815 560.441 517.796 562.241 518.342 563.659H531.595ZM493.58 566.986L490.799 568.022C490.363 566.058 489.108 563.004 487.745 560.714L490.417 559.841C491.835 562.132 493.144 565.077 493.58 566.986ZM499.362 568.731V571.731H482.4V568.731H499.362ZM495.053 593.328H487.09V602.982H495.053V593.328ZM497.889 590.329V605.927H487.09V608.545H484.363V590.329H497.889ZM484.636 585.966V583.02H497.889V585.966H484.636ZM484.636 578.712V575.767H497.889V578.712H484.636ZM511.579 589.129V592.292H520.141V589.129H511.579ZM511.579 583.511V586.62H520.141V583.511H511.579ZM505.47 571.131V575.603H511.633V571.131H505.47ZM520.469 571.131V575.603H526.795V571.131H520.469ZM528.977 595.892L530.995 597.746C528.977 599.219 526.414 600.637 524.177 601.728C526.468 603.746 529.359 605.327 532.631 606.2C531.922 606.909 530.995 608.054 530.559 608.872C523.687 606.636 518.723 601.673 516.051 595.019H515.287C513.869 596.383 512.07 597.637 510.161 598.782V604.727L518.614 603.037C518.56 603.909 518.614 605.218 518.723 605.873C509.07 608.109 507.652 608.545 506.779 609.091C506.506 608.381 505.688 607.127 505.143 606.636C505.907 606.091 507.215 604.836 507.215 602.437V600.31C505.143 601.346 502.961 602.164 500.943 602.873C500.562 602.273 499.58 601.019 498.98 600.473C503.343 599.219 507.979 597.364 511.251 595.019H499.798V592.292H508.252V589.129H502.525V586.62H508.252V583.511H501.543V580.948H508.252V577.894H502.634V568.84H514.578V577.894H511.579V580.948H520.141V577.894H517.633V568.84H529.74V577.894H523.468V580.948H530.94V583.511H523.468V586.62H529.795V589.129H523.468V592.292H532.086V595.019H519.105C519.978 596.764 521.069 598.401 522.269 599.819C524.614 598.673 527.286 597.037 528.977 595.892ZM556.52 578.112H583.462C580.245 576.857 576.045 575.494 571.518 574.076C566.555 575.712 561.21 577.021 556.52 578.112ZM581.008 567.586H557.501C561.919 568.676 566.882 569.985 571.736 571.458C575.336 570.203 578.554 568.895 581.008 567.586ZM592.352 581.166H551.556V589.947C551.556 596.001 550.684 604.127 545.775 609.636C545.284 608.927 543.866 607.727 543.048 607.291C547.521 602.273 548.066 595.292 548.066 589.892V578.112H554.829C554.338 577.457 553.52 576.639 552.975 576.203C557.392 575.33 562.41 574.185 567.209 572.821C562.955 571.512 558.592 570.422 554.665 569.494L556.956 567.586H548.339V564.531H568.682C567.755 563.113 566.61 561.586 565.573 560.332L568.191 558.968C569.664 560.55 571.355 562.841 572.391 564.531H590.607V567.586H582.317L584.335 568.84C581.881 570.149 578.881 571.458 575.718 572.603C579.863 573.912 583.626 575.112 586.517 576.203L584.553 578.112H592.352V581.166ZM574.3 604.182H593.225V607.291H552.647V604.182H570.755V598.237H557.829V595.237H570.755V590.001H558.974C557.447 592.565 555.647 594.856 553.847 596.71C553.465 596.055 552.484 594.419 551.829 593.819C554.883 590.874 557.556 586.62 559.138 582.202L562.301 583.075C561.81 584.438 561.21 585.693 560.61 587.002H570.755V582.148H574.3V587.002H589.244V590.001H574.3V595.237H588.098V598.237H574.3V604.182ZM640.62 576.094V565.24H618.477V576.094H640.62ZM644.274 561.75V579.584H614.932V561.75H644.274ZM622.404 589.02H610.405V602.655H622.404V589.02ZM606.969 609.145V585.529H626.004V608.6H622.404V606.145H610.405V609.145H606.969ZM635.657 602.655H648.747V589.02H635.657V602.655ZM632.167 585.529H652.346V608.763H648.747V606.145H635.657V609.145H632.167V585.529ZM670.454 588.802H677.762V584.547H670.454V588.802ZM670.454 577.839V581.984H677.762V577.839H670.454ZM688.67 577.839H681.089V581.984H688.67V577.839ZM688.67 588.802V584.547H681.089V588.802H688.67ZM714.14 572.167V574.076C713.486 597.037 712.995 604.564 711.141 606.854C710.268 608.218 709.177 608.6 707.595 608.763C706.068 608.927 703.505 608.927 700.996 608.763C700.887 607.782 700.505 606.254 699.905 605.327C702.632 605.545 705.141 605.6 706.177 605.6C707.105 605.6 707.595 605.436 708.086 604.782C709.395 603.146 710.104 595.837 710.65 575.548H702.36C701.705 590.056 699.251 602.164 689.488 609.363C688.943 608.545 687.688 607.345 686.761 606.8C687.797 606.036 688.779 605.273 689.652 604.4C681.198 605.436 672.526 606.418 666.309 607.127L665.818 603.909C669.09 603.582 673.235 603.2 677.762 602.709V597.746H667.29V594.91H677.762V591.365H667.454V575.221H677.762V571.567H665.763V568.731H677.762V564.804C674.217 565.131 670.617 565.349 667.345 565.458C667.181 564.64 666.8 563.441 666.418 562.731C674.49 562.295 684.416 561.313 689.979 560.059L691.833 562.841C688.888 563.495 685.125 564.04 681.089 564.477V568.731H692.87V571.567H681.089V575.221H691.833V591.365H681.089V594.91H691.888V597.746H681.089V602.382C684.689 602 688.452 601.619 692.161 601.182V601.509C697.015 594.91 698.487 585.911 698.978 575.548H692.379V572.167H699.087C699.196 568.295 699.196 564.204 699.196 560.059H702.632C702.632 564.204 702.578 568.295 702.469 572.167H714.14ZM749.7 559.623H753.682C753.627 561.532 753.573 564.259 753.3 567.476C754.118 573.803 757.445 597.037 776.698 605.654C775.716 606.473 774.625 607.672 774.08 608.709C760.063 602.109 754.336 588.038 751.718 577.785C749.319 588.911 743.592 601.728 729.848 608.872C729.248 607.945 728.048 606.854 727.012 606.091C749.7 594.746 749.537 567.804 749.7 559.623Z" fill="black"/>
<ellipse cx="846.102" cy="445.784" rx="55" ry="15.9445" transform="rotate(165.078 846.102 445.784)" stroke="#010101" stroke-width="3"/>
<ellipse cx="54.8831" cy="15.9786" rx="54.8831" ry="15.9786" transform="matrix(-0.503022 0.864273 -0.866411 -0.499332 887.474 406.021)" stroke="#010101" stroke-width="3"/>
<ellipse cx="54.8831" cy="15.9786" rx="54.8831" ry="15.9786" transform="matrix(0.866411 0.499332 0.503022 -0.864273 790.435 431.881)" stroke="#010101" stroke-width="3"/>
<ellipse cx="846.063" cy="445.629" rx="8.65168" ry="8.61486" transform="rotate(165.078 846.063 445.629)" fill="#FFD600"/>
<path fill-rule="evenodd" clip-rule="evenodd" d="M479 364C479 382.778 494.222 398 513 398C494.222 398 479 413.222 479 432C479 413.222 463.778 398 445 398C463.778 398 479 382.778 479 364Z" fill="#FFD600"/>
<path d="M513 399.5C513.828 399.5 514.5 398.828 514.5 398C514.5 397.172 513.828 396.5 513 396.5V399.5ZM480.5 364C480.5 363.172 479.828 362.5 479 362.5C478.172 362.5 477.5 363.172 477.5 364H480.5ZM477.5 432C477.5 432.828 478.172 433.5 479 433.5C479.828 433.5 480.5 432.828 480.5 432H477.5ZM445 396.5C444.172 396.5 443.5 397.172 443.5 398C443.5 398.828 444.172 399.5 445 399.5V396.5ZM513 396.5C495.051 396.5 480.5 381.949 480.5 364H477.5C477.5 383.606 493.394 399.5 513 399.5V396.5ZM480.5 432C480.5 414.051 495.051 399.5 513 399.5V396.5C493.394 396.5 477.5 412.394 477.5 432H480.5ZM445 399.5C462.949 399.5 477.5 414.051 477.5 432H480.5C480.5 412.394 464.606 396.5 445 396.5V399.5ZM445 399.5C464.606 399.5 480.5 383.606 480.5 364H477.5C477.5 381.949 462.949 396.5 445 396.5V399.5Z" fill="#010101"/>
</g>
</svg>
