<svg width="1920" height="768" viewBox="0 0 1920 768" fill="none" xmlns="http://www.w3.org/2000/svg">
<g clip-path="url(#clip0_1028_5697)">
<rect width="1920" height="768" fill="#FFF500"/>
<g clip-path="url(#clip1_1028_5697)">
<mask id="mask0_1028_5697" style="mask-type:alpha" maskUnits="userSpaceOnUse" x="-1" y="0" width="1920" height="768">
<rect x="-1" width="1920" height="768" fill="#FFF500"/>
</mask>
<g mask="url(#mask0_1028_5697)">
<path d="M1686.67 -9L1444 38.0185L1475.78 202.042L1600.42 177.893C1605.16 187.463 1611.36 196.917 1615.67 202.749C1643.73 233.224 1702 298.474 1710.58 315.667C1716.67 327.878 1723.22 367.399 1727.81 401.286C1694.32 390.669 1625.1 369.208 1616.12 368.298C1604.88 367.161 1599.42 371.558 1596.78 374.725C1594.13 377.892 1591.52 385.743 1594.08 394.69C1596.13 401.848 1606.1 408.905 1610.83 411.539L1653.92 430.313L1780.02 473.25L2028.32 526.099C2028.78 526.123 2031.1 525.693 2036.7 523.782C2042.97 521.646 2047.47 515.452 2050.47 511.323C2050.83 510.835 2051.16 510.376 2051.47 509.956C2054.43 505.979 2058 495.7 2059.17 489.151C2060.34 482.602 2059.84 467.059 2054.31 450.339C2047.98 431.203 2037.46 417.878 2030.79 410.277C2012.35 405.193 1953.63 393.557 1937.51 390.364C1934.96 389.859 1933.48 389.565 1933.39 389.542C1914.16 384.446 1911.85 381.706 1902.55 370.696C1901.21 369.109 1899.72 367.35 1898.02 365.387C1890.41 356.612 1873.46 330.831 1858.31 307.777C1846.56 289.906 1835.89 273.673 1831.48 268.272C1821.39 255.902 1794.47 228.057 1787.65 221.641C1780.82 215.226 1763.29 202.743 1755.59 197.383C1753.38 195.846 1749.38 192.878 1744.56 189.298C1732.58 180.395 1715.5 167.704 1708.04 163.779C1703.31 161.289 1700 159.825 1697.85 159.014L1718.45 155.024L1686.67 -9Z" fill="#FFFA80"/>
<path d="M1733.56 572.905C1733.56 598.81 1665.56 619.811 1581.68 619.811C1497.79 619.811 1429.79 598.81 1429.79 572.905C1429.79 547 1497.79 526 1581.68 526C1665.56 526 1733.56 547 1733.56 572.905Z" fill="#FFFA80"/>
<path d="M1675.49 555.037C1675.49 571.073 1633.49 584.073 1581.68 584.073C1529.87 584.073 1487.87 571.073 1487.87 555.037C1487.87 539 1529.87 526 1581.68 526C1633.49 526 1675.49 539 1675.49 555.037Z" fill="#FFFA80"/>
<path d="M1549.04 684.95C1549.04 688.45 1546.2 691.288 1542.7 691.288C1539.2 691.288 1536.36 688.45 1536.36 684.95C1536.36 681.45 1539.2 678.613 1542.7 678.613C1546.2 678.613 1549.04 681.45 1549.04 684.95Z" fill="#FFFA80"/>
<path d="M1601.92 689.175C1601.92 692.676 1599.08 695.513 1595.58 695.513C1592.08 695.513 1589.25 692.676 1589.25 689.175C1589.25 685.675 1592.08 682.838 1595.58 682.838C1599.08 682.838 1601.92 685.675 1601.92 689.175Z" fill="#FFFA80"/>
<path d="M1575.48 689.175C1575.48 692.676 1572.64 695.513 1569.14 695.513C1565.64 695.513 1562.8 692.676 1562.8 689.175C1562.8 685.675 1565.64 682.838 1569.14 682.838C1572.64 682.838 1575.48 685.675 1575.48 689.175Z" fill="#FFFA80"/>
<path d="M1628.36 684.95C1628.36 688.45 1625.53 691.288 1622.03 691.288C1618.53 691.288 1615.69 688.45 1615.69 684.95C1615.69 681.45 1618.53 678.613 1622.03 678.613C1625.53 678.613 1628.36 681.45 1628.36 684.95Z" fill="#FFFA80"/>
<path d="M1581.68 619.811C1665.56 619.811 1733.56 598.81 1733.56 572.905C1733.56 569.729 1732.54 566.626 1730.59 563.626C1735.01 567.759 1740.2 575.153 1742.22 584.029C1744.85 595.592 1743.86 603.673 1742.66 648.264C1742.55 655.641 1742.44 663.001 1742.33 670.28C1741.85 674.364 1738.07 687.577 1728.27 696.224C1727.41 696.986 1726.45 697.871 1725.39 698.842C1719.88 703.913 1711.82 711.32 1702.21 715.582C1701.73 715.797 1701.24 716.014 1700.75 716.232C1674.27 727.986 1636.88 744.587 1581.94 744.587C1513.99 744.587 1466.92 722.315 1445.31 705.552C1442.83 704.122 1440.29 701.554 1438.18 699.418C1437.25 698.471 1436.4 697.608 1435.67 696.969C1425.87 688.321 1423 674.364 1422.52 670.28C1422.41 663.001 1422.3 655.642 1422.19 648.265C1422.15 645.62 1422.11 642.972 1422.07 640.324C1421.41 596.173 1419.87 595.191 1422.41 584.029C1423.98 577.085 1427.51 571.048 1431.08 566.77C1430.23 568.778 1429.79 570.826 1429.79 572.905C1429.79 598.81 1497.79 619.811 1581.68 619.811Z" fill="#FFFA80"/>
<path d="M1422.35 658.673V725.043C1422.35 736.955 1429.18 755.717 1441.31 771.204C1456.49 790.561 1498.97 814.386 1528.55 821.087C1549.81 825.902 1570.21 827.473 1580.19 827.743V827.788C1580.64 827.788 1581.14 827.784 1581.68 827.775C1582.22 827.784 1582.71 827.788 1583.17 827.788V827.743C1593.15 827.473 1613.55 825.902 1634.81 821.087C1664.39 814.386 1706.87 790.561 1722.04 771.204C1734.18 755.717 1741.01 731.743 1741.01 725.043V675.586C1739.14 681.426 1735.22 689.853 1728.27 695.985C1727.41 696.745 1726.45 697.63 1725.4 698.599L1725.39 698.603C1719.88 703.674 1711.82 711.08 1702.22 715.343L1700.75 715.992C1674.28 727.747 1636.88 744.348 1581.94 744.348C1514 744.348 1466.92 722.076 1445.31 705.312C1442.83 703.883 1440.29 701.314 1438.19 699.179C1437.25 698.231 1436.4 697.369 1435.67 696.729C1425.87 688.082 1423 674.124 1422.52 670.041C1422.46 666.27 1422.41 662.478 1422.35 658.673Z" fill="#FFFA80"/>
<path d="M732.447 577C715.079 577 701 591.079 701 608.447V665.553C701 682.921 715.079 697 732.447 697H1088.42C1105.79 697 1119.87 682.921 1119.87 665.553V608.447C1119.87 591.079 1105.79 577 1088.42 577H732.447Z" fill="#FFFA80"/>
<path d="M1098.29 696.037C1097.69 696.098 1097.11 696.159 1096.53 696.218C1109.9 693.114 1119.87 681.126 1119.87 666.811V607.189C1119.87 596.277 1114.08 586.718 1105.4 581.414L1130.06 589.453C1133.07 590.962 1133.6 591.34 1135.72 592.849C1139.87 595.814 1142.51 601.906 1142.89 603.415C1143.26 604.924 1144.4 609.453 1144.77 614.358C1145.07 618.283 1144.9 644.924 1144.77 657.755C1144.72 662.66 1144.02 667.943 1142.51 672.849C1141.91 674.791 1140.41 679.264 1137.98 682.66C1136.09 685.302 1132.32 690.54 1122.51 692.849C1117.3 694.074 1107.03 695.134 1098.38 696.028L1098.29 696.037Z" fill="#FFFA80"/>
<path fill-rule="evenodd" clip-rule="evenodd" d="M176.352 52.5978C166.918 56.798 160.27 59.7582 155.384 63.2198C154.392 64.1275 153.447 64.9763 152.54 65.7912L152.503 65.8241C145.913 71.7459 141.288 75.901 134.279 88.0587C124.284 105.398 120.225 131.622 121.432 151.669C122.397 167.706 129.461 203.412 134.126 220.635L134.125 220.636C129.46 203.414 122.395 167.705 121.43 151.668C120.223 131.621 124.282 105.398 134.278 88.0579C141.286 75.9003 145.911 71.7451 152.502 65.8234C153.42 64.9984 154.376 64.1392 155.382 63.2192L115.415 81.0137C112.745 82.2027 110.368 83.955 108.552 86.246C104.216 91.7174 95.6186 103.279 88.2335 117.563C67.4961 157.671 73.8163 212.321 80.4404 244.538L74 247.405L83.5608 268.879L84.6348 268.401L98.8356 268.511L105.276 265.644L107.666 271.012L144.172 254.759L141.782 249.39L164.331 239.351L155.726 220.024C155.323 218.471 154.71 216.62 153.96 214.353C151.369 206.517 147.134 193.714 144.237 171.104C139.559 134.591 145.385 101.442 153.252 87.3268C158.608 77.7171 164.279 71.3483 170.07 66.5934C172.314 64.7502 174.679 63.0809 177.141 61.5769C177.982 61.063 178.835 60.5683 179.698 60.0926C185.569 56.8578 191.927 54.5005 198.496 52.9135C188.136 55.4168 178.3 59.8363 170.072 66.5925L169.912 66.7245C177.362 65.6947 185.344 65.0012 195.766 67.2239C215.135 71.3541 234.634 79.3972 255.93 98.3275C266.456 107.685 291.161 137.966 300.837 152.957L301.978 153.623L295.904 156.328L304.509 175.654L316.59 175.421L321.451 173.257L323.363 177.551L310.802 183.144L318.532 200.504C319.481 202.636 321.077 207.692 319.866 210.858C318.655 214.025 313.774 224.154 311.485 228.822C310.367 231.747 308.887 236.043 307.685 239.533L307.307 240.631C306.963 241.559 306.637 242.495 306.33 243.439C306.604 242.663 306.937 241.702 307.307 240.631C312.06 227.789 320.281 216.453 331.245 207.658C304.042 229.903 293.892 268.371 308.874 302.021C326.827 342.344 374.069 360.478 414.392 342.525C420.349 339.873 425.822 336.582 430.765 332.768L430.813 333.068C425.858 336.684 420.435 339.842 414.585 342.446C409.503 344.709 404.327 346.452 399.119 347.7L409.649 360.419L433.595 349.757L433.582 349.671L438.583 341.741L436.59 327.839C436.242 328.155 435.891 328.468 435.537 328.778C460.461 306.224 469.312 269.385 454.897 237.007C454.147 235.324 453.347 233.679 452.498 232.074C453.417 233.792 454.281 235.556 455.086 237.365C465.586 260.947 463.797 286.871 452.475 307.901C459.066 296.986 464.51 284.765 466.849 278.626C470.911 267.961 471.49 254.418 467.665 238.407C463.841 222.396 453.171 208.326 445.792 201.647C439.614 196.055 423.462 186.126 408.729 182.721C405.367 181.944 402.654 181.346 400.252 180.816L400.25 180.815L400.247 180.815C396.182 179.918 393.008 179.218 389.086 178.181C384.093 176.862 381.263 171.331 381.296 170.579L375.948 158.568L360.515 161.01L368.331 178.565C371.211 185.033 372.952 186.472 375.614 187.501C377.205 188.117 379.722 188.847 382.485 189.575C382.371 189.575 382.256 189.574 382.142 189.573C379.255 188.823 376.6 188.063 374.951 187.428C372.315 186.412 370.59 184.99 367.742 178.594L360.013 161.234L355.574 163.21L353.662 158.915L372.989 150.31L372.986 150.311L365.414 133.304L353.731 133.355C351.008 128.93 336.971 107.758 300.982 78.1606C245.878 32.8413 197.75 45.6791 197.75 45.6791C197.75 45.6791 188.191 47.327 176.38 52.5855L176.352 52.5978ZM344.145 134.849L343.788 133.843L344.302 134.779L344.145 134.849ZM355.361 153.013L372.977 150.312L355.855 152.279L356.047 152.708L355.361 153.013Z" fill="#FFFA80"/>
<path fill-rule="evenodd" clip-rule="evenodd" d="M100.646 298.583L91.5633 278.183L149.543 252.368L167.56 249.493L173.775 263.451C173.735 264.326 177.025 270.752 182.85 272.276C187.425 273.473 191.128 274.28 195.87 275.313L195.872 275.314C198.675 275.925 201.842 276.615 205.765 277.511C222.952 281.438 241.781 292.951 248.979 299.441C257.576 307.192 269.998 323.533 274.425 342.146C278.853 360.759 278.147 376.512 273.382 388.926C270.639 396.07 264.257 410.296 256.54 423.007C269.801 398.522 271.947 368.367 259.746 340.962C246.857 312.014 221.797 293.429 194.296 287.915C222.323 293.918 247.195 312.773 259.746 340.962C276.249 378.028 266.505 420.126 238.512 446.42L230.866 452.881C233.111 451.197 235.265 449.421 237.325 447.56L239.52 463.131L233.886 471.985L233.904 472.096L233.78 472.151L233.763 472.178L233.76 472.16L207.712 483.758L195.917 469.19C153.419 479.102 108.509 457.836 90.1016 416.493C80.3642 394.622 79.7648 371 86.6602 349.906C87.036 346.329 90.4227 336.811 92.3144 331.883C95.0158 326.392 100.776 314.478 102.205 310.754C103.635 307.03 101.761 301.088 100.646 298.583ZM184.136 286.47L175.938 285.646C175.079 285.472 174.306 285.304 173.604 285.141C174.501 285.382 175.432 285.625 176.378 285.867C177.957 286.279 181.612 286.431 184.136 286.47Z" fill="#FFFA80"/>
<path fill-rule="evenodd" clip-rule="evenodd" d="M390.439 764.738C391.521 764.048 392.811 763.564 394.331 763.202L400.775 764.771C401.048 764.837 401.329 764.857 401.609 764.83C402.849 764.71 404.194 764.601 405.677 764.481L405.688 764.48C412.488 763.932 421.755 763.184 434.248 760.116C454.18 755.22 464.704 746.034 470.175 735.795C474.933 726.89 475.701 717.458 475.961 710.219C475.998 709.377 476.024 708.564 476.046 707.784C476.085 706.412 476.12 705.166 476.18 704.033L476.181 704.014L476.182 703.991L478.404 641.76C478.469 640.823 478.503 639.799 478.499 638.706C478.515 634.423 477.949 629.042 476.356 623.613C474.398 616.938 470.827 609.998 464.667 605.018L464.659 605.011C461.812 602.73 458.442 600.889 454.484 599.69C434.816 593.73 303.802 562.573 240.849 547.76C239.011 547.295 236.94 546.818 234.683 546.352C234.447 546.304 234.205 546.289 233.965 546.31C231.961 546.481 229.519 546.408 226.603 546.317L226.397 546.311C224.261 546.244 221.918 546.171 219.451 546.211C217.538 545.99 215.582 545.794 213.599 545.629C212.968 545.619 212.276 545.622 211.534 545.64C209.641 545.473 207.721 545.333 205.785 545.228C189.651 544.347 172.463 545.827 161.582 553.081C142.011 566.128 125.257 581.745 119.327 587.923C117.35 590.147 112.803 596.078 110.431 602.009C110.251 602.457 110.093 603.215 109.955 604.248C109.617 604.213 109.27 604.247 108.937 604.354L95.6747 608.597C95.2953 608.719 94.9505 608.929 94.6688 609.211C93.2353 610.644 91.0718 613.039 89.1731 615.638C87.3593 618.12 85.4585 621.22 85.0657 623.969C84.8879 625.214 84.8019 628.713 84.7558 633.265L84.7537 633.477C31.2027 651.058 4.87254 711.695 28.9998 762.966L28.9998 762.962L29.0018 762.966C29.0018 761.873 29.0218 760.783 29.0616 759.699L29.5277 763.241C80.5383 796.898 145.748 822.14 244.614 812.149C295.73 806.983 360.115 781.61 385.479 767.142C387.431 766.502 388.97 765.811 389.915 765.102C390.085 764.975 390.259 764.853 390.439 764.738ZM323.244 745.99C318.009 744.837 312.062 743.521 305.709 742.107L280.939 736.931C280.85 736.971 271.149 741.309 247.04 742.75C238.724 743.247 228.694 743.4 216.753 742.912C209.881 742.632 202.376 742.14 194.201 741.379C178.85 737.92 147.908 730.298 132.864 724.473C130.715 723.641 128.89 722.846 127.481 722.105C127.325 722.022 127.169 721.938 127.014 721.853C126.545 722.618 125.688 723.087 124.763 723.042C122.827 722.948 120.952 722.77 119.368 722.524C117.88 722.293 116.361 721.962 115.335 721.449C112.168 719.866 101.645 713.087 94.9017 707.842C91.7388 705.382 89.4938 701.526 87.9684 697.979C86.4212 694.382 85.4798 690.785 85.0786 688.511C85.0552 688.378 85.0425 688.244 85.0408 688.109C85.0132 685.925 84.9843 683.485 84.9556 680.867C64.8037 688.769 48.4803 703.77 38.7746 722.598C57.7803 739.513 101.132 768.602 173.094 780.596C242.353 792.139 307.814 765.691 320.689 760.061L325.059 754.443C327.283 751.583 326.235 747.557 323.244 745.99Z" fill="#FFFA80"/>
<path d="M19.7753 688.598L18.442 687.911L19.328 686.192L20.7725 687.478L19.7753 688.598ZM10.0623 725.697L8.57507 725.893L8.55865 725.768L8.56326 725.642L10.0623 725.697ZM10.5287 729.241L9.70257 730.493L9.13083 730.116L9.04147 729.437L10.5287 729.241ZM225.615 778.148L225.765 779.641L225.765 779.641L225.615 778.148ZM366.479 733.142L366.011 731.717L367.222 734.445L366.479 733.142ZM334.591 736.291L334.405 737.78L334.288 737.765L334.175 737.732L334.591 736.291ZM301.231 726.654L300.815 728.095L298.688 727.48L300.047 725.733L301.231 726.654ZM301.693 726.06L301.092 724.686L302.877 726.981L301.693 726.06ZM154.095 746.596L153.848 748.075L153.848 748.075L154.095 746.596ZM21.1086 689.285C15.416 700.329 12.0394 712.711 11.5612 725.752L8.56326 725.642C9.05797 712.151 12.5518 699.338 18.442 687.911L21.1086 689.285ZM11.5494 725.501L12.0158 729.046L9.04147 729.437L8.57507 725.893L11.5494 725.501ZM11.3547 727.989C62.1085 761.476 126.977 786.61 225.464 776.656L225.765 779.641C126.52 789.671 60.9699 764.319 9.70257 730.493L11.3547 727.989ZM225.464 776.656C276.331 771.515 340.516 746.225 365.736 731.84L367.222 734.445C341.715 748.995 277.13 774.45 225.765 779.641L225.464 776.656ZM366.947 734.568C358.903 737.207 344.141 738.997 334.405 737.78L334.777 734.803C344.038 735.96 358.353 734.23 366.011 731.717L366.947 734.568ZM334.175 737.732L300.815 728.095L301.647 725.213L335.007 734.85L334.175 737.732ZM300.047 725.733L300.509 725.139L302.877 726.981L302.415 727.575L300.047 725.733ZM302.294 727.434C289.368 733.087 223.562 759.694 153.848 748.075L154.341 745.116C223.158 756.585 288.285 730.286 301.092 724.686L302.294 727.434ZM153.848 748.075C81.5882 736.032 37.98 706.808 18.778 689.719L20.7725 687.478C39.5819 704.217 82.6781 733.172 154.341 745.116L153.848 748.075Z" fill="#FFD600"/>
<path d="M456.452 607.299L454.228 669.571C453.487 683.656 456.452 713.31 414.196 723.688C389.708 729.703 376.844 726.654 370.913 731.102C366.168 734.66 346.449 737.774 334.588 736.291L301.228 726.654L307.691 718.557C310.312 715.273 308.55 710.379 304.437 709.52L263.739 701.016C263.739 701.016 238.956 713.31 175.201 707.379C157.656 703.425 119.749 694.035 108.481 688.104C97.213 682.174 92.419 669.324 91.4306 663.64C90.4422 634.234 89.0583 573.939 91.4306 568.008C93.8029 562.078 98.3497 556.147 100.327 553.923C106.257 547.745 123.011 532.128 142.583 519.081C162.154 506.033 202.136 511.667 219.681 516.115C282.694 530.942 414.641 562.078 434.212 568.009C453.784 573.939 457.194 596.673 456.452 607.299Z" stroke="#FFD600" stroke-width="3" stroke-linejoin="round"/>
<path d="M105.884 686.545C96.4652 680.151 92.3389 668.866 91.4301 663.64C90.5673 637.974 89.4034 588.778 90.6986 572.735L77.4367 576.978C74.7185 579.697 69.1338 586.171 68.5407 590.322C67.9476 594.474 68.2936 634.555 68.5407 654.077C69.282 658.278 72.0991 667.717 77.4367 671.869C84.1087 677.058 94.4873 683.73 97.4526 685.213C98.7447 685.859 102.148 686.364 105.884 686.545Z" stroke="#FFD600" stroke-width="3" stroke-linejoin="round"/>
<path d="M68.4468 645.933L69.9467 645.917C69.9535 646.556 69.5541 647.13 68.9517 647.345L68.4468 645.933ZM9.99976 728.966L11.4998 728.966C11.4998 729.668 11.0124 730.276 10.327 730.43C9.64156 730.583 8.94159 730.24 8.64253 729.604L9.99976 728.966ZM67.6647 598.872L68.1029 600.306L68.1029 600.306L67.6647 598.872ZM68.2632 598.689L67.8249 597.254C68.2825 597.115 68.7793 597.201 69.1623 597.488C69.5453 597.775 69.7685 598.227 69.7631 598.706L68.2632 598.689ZM68.9517 647.345C35.0336 659.472 11.4998 691.82 11.4998 728.966L8.49976 728.966C8.49976 690.533 32.8491 657.067 67.9418 644.52L68.9517 647.345ZM8.64253 729.604C-16.1591 676.901 11.5203 614.455 67.2264 597.437L68.1029 600.306C14.1445 616.79 -12.6666 677.277 11.357 728.327L8.64253 729.604ZM67.2264 597.437L67.8249 597.254L68.7014 600.123L68.1029 600.306L67.2264 597.437ZM69.7631 598.706C69.6339 610.206 69.784 630.79 69.9467 645.917L66.9468 645.949C66.7842 630.826 66.6336 610.21 66.7633 598.672L69.7631 598.706Z" fill="#FFD600"/>
<path d="M454.684 669.901L456.908 607.629C457.649 597.004 454.239 574.27 434.668 568.339C415.097 562.408 284.178 531.272 221.164 516.446C220.358 516.241 219.505 516.034 218.609 515.827L217.55 515.778L213.9 516.387C199.727 522.835 198.207 538.741 199.758 547.656C201.487 573.602 204.947 629.35 204.947 644.77C204.947 657.85 212.499 667.658 217.674 672.941L392.504 715.938L393.512 716.125C405.744 718.39 417.183 719.103 429.591 718.248C452.597 706.466 454.192 686.345 454.548 673.713C454.586 672.349 454.622 671.071 454.684 669.901Z" stroke="#FFD600" stroke-width="3" stroke-linejoin="round"/>
<rect width="15.4313" height="213.769" rx="7.71566" transform="matrix(0.230415 -0.973092 -0.973092 -0.230415 434.556 651.927)" fill="#FFF500"/>
<rect width="15.4313" height="213.769" rx="7.71566" transform="matrix(0.230415 -0.973092 -0.973092 -0.230415 434.556 651.927)" fill="#FFD600"/>
<path d="M192.651 512.006C186.37 511.904 173.896 513.133 168.156 517.307C160.002 523.238 148.882 535.84 147.399 543.995C145.916 552.15 147.399 553.929 153.33 558.08C154.834 559.134 156.797 560.218 158.995 561.431C167.625 566.196 179.878 572.962 182.242 587.734C182.824 591.373 183.435 594.955 184.035 598.474C186.491 612.877 188.768 626.229 188.172 638.144C187.431 652.971 189.655 662.608 194.844 666.315C198.996 669.28 211.103 672.037 219.999 674.261C215.057 670.307 204.481 660.236 204.481 644.816C204.481 629.397 201.022 573.648 199.292 547.702C197.655 538.286 199.442 521.07 215.947 515.437C216.45 515.545 216.941 515.653 217.422 515.761C210.811 514.273 202.044 512.784 192.651 512.006Z" stroke="#FFD600" stroke-width="3" stroke-linejoin="round"/>
</g>
<ellipse cx="1557.82" cy="553.232" rx="151.884" ry="46.9053" stroke="#FFD600" stroke-width="3"/>
<ellipse cx="1557.82" cy="535.363" rx="93.8107" ry="29.0366" stroke="#FFD600" stroke-width="3"/>
<ellipse cx="1518.84" cy="665.277" rx="6.33759" ry="6.33759" fill="#FFD600"/>
<ellipse cx="1571.72" cy="669.502" rx="6.33759" ry="6.33759" fill="#FFD600"/>
<ellipse cx="1545.28" cy="669.502" rx="6.33759" ry="6.33759" fill="#FFD600"/>
<ellipse cx="1598.17" cy="665.277" rx="6.33759" ry="6.33759" fill="#FFD600"/>
<path d="M1517 462.302V462.302C1540.92 446.372 1572.08 446.372 1596 462.302V462.302" stroke="#FFD600" stroke-width="8" stroke-linecap="round"/>
<path d="M1531.27 475.503V475.503C1546.67 465.732 1566.32 465.732 1581.72 475.503V475.503" stroke="#FFD600" stroke-width="8" stroke-linecap="round"/>
<path d="M1542.69 489.596V489.596C1550.82 484.418 1561.22 484.418 1569.34 489.596V489.596" stroke="#FFD600" stroke-width="8" stroke-linecap="round"/>
<path d="M1557.82 600.137C1641.7 600.137 1709.7 579.137 1709.7 553.232C1709.7 550.055 1708.68 546.952 1706.73 543.953C1711.15 548.086 1716.34 555.48 1718.36 564.356C1720.99 575.919 1720 584 1718.8 628.59C1718.69 635.968 1718.58 643.328 1718.47 650.607C1717.99 654.691 1714.21 667.903 1704.41 676.551C1703.55 677.312 1702.59 678.198 1701.53 679.169C1696.02 684.24 1687.96 691.646 1678.36 695.909C1677.87 696.124 1677.38 696.34 1676.89 696.559C1650.42 708.313 1613.02 724.914 1558.08 724.914C1490.14 724.914 1443.06 702.642 1421.45 685.878C1418.97 684.449 1416.43 681.88 1414.32 679.745C1413.39 678.797 1412.54 677.935 1411.81 677.296C1402.01 668.648 1399.14 654.691 1398.66 650.607C1398.55 643.328 1398.44 635.969 1398.33 628.591C1398.29 625.946 1398.25 623.298 1398.21 620.651C1397.55 576.5 1396.01 575.517 1398.55 564.356C1400.12 557.412 1403.65 551.374 1407.22 547.096C1406.37 549.104 1405.93 551.152 1405.93 553.232C1405.93 579.137 1473.94 600.137 1557.82 600.137Z" stroke="#FFD600" stroke-width="3"/>
<path d="M1398.49 639V705.369C1398.49 717.282 1405.32 736.044 1417.45 751.53C1432.63 770.888 1475.11 794.713 1504.69 801.414C1525.95 806.229 1546.35 807.8 1556.33 808.07V808.114C1556.79 808.114 1557.28 808.11 1557.82 808.102C1558.36 808.11 1558.85 808.114 1559.31 808.114V808.07C1569.29 807.8 1589.69 806.229 1610.95 801.414C1640.53 794.713 1683.01 770.888 1698.18 751.53C1710.32 736.044 1717.15 712.07 1717.15 705.369V655.913C1715.28 661.753 1711.36 670.18 1704.41 676.312C1703.55 677.072 1702.59 677.956 1701.54 678.926L1701.53 678.929C1696.02 684 1687.96 691.407 1678.36 695.669L1676.89 696.319C1650.42 708.073 1613.02 724.674 1558.08 724.674C1490.14 724.674 1443.07 702.402 1421.45 685.639C1418.97 684.209 1416.43 681.641 1414.33 679.506C1413.39 678.558 1412.54 677.695 1411.81 677.056C1402.01 668.408 1399.14 654.451 1398.66 650.367C1398.6 646.597 1398.55 642.805 1398.49 639Z" stroke="#FFD600" stroke-width="3"/>
<rect x="1415" y="21.0186" width="247.179" height="167.074" transform="rotate(-10.9657 1415 21.0186)" stroke="#FFD600" stroke-width="3"/>
<path d="M1626.33 82.686C1631.35 81.712 1641.52 79.2138 1645.05 77.2314C1647.87 75.6455 1648.83 72.0266 1648.95 70.4154C1648.58 67.7456 1647.62 61.7546 1646.76 59.1488C1645.7 55.8916 1644.79 53.4692 1635.95 50.4213C1627.1 47.3734 1602.25 46.9927 1597.72 48.3028C1594.1 49.351 1581.71 48.6633 1575.97 48.1885L1550.45 41.7541L1543.46 40.3505C1541.03 39.8636 1538.54 39.8547 1536.11 40.3254C1529.47 41.6116 1515.73 44.2744 1510.96 45.1979C1503.42 46.6592 1498.83 47.1161 1494.12 49.7592C1489.42 52.4024 1462.1 70.6839 1457.22 74.6601C1452.34 78.6363 1447.85 80.1253 1444.35 84.5137C1440.44 89.4287 1441.5 97.4769 1442.48 101.762C1442.99 104.404 1444.77 108.677 1447.43 111.626C1450.09 114.574 1454.77 115.833 1458.54 115.102C1463.12 114.214 1468.08 113.253 1473.33 112.237" stroke="#FFD600" stroke-width="3" stroke-linecap="round"/>
<path d="M1544.9 48.3833L1544.56 49.8437L1544.56 49.8438L1544.56 49.8443L1544.57 49.8463L1544.6 49.8542L1544.74 49.8857C1544.85 49.9135 1545.03 49.9547 1545.25 50.0081C1545.7 50.1149 1546.35 50.2705 1547.14 50.4653C1548.74 50.8549 1550.93 51.4009 1553.33 52.0264C1556.03 52.7288 1558.95 53.5242 1561.57 54.3065L1481.22 69.8746L1501.04 56.2745L1530.38 50.5895C1536.06 49.4886 1539.64 49.3213 1541.76 49.411C1542.81 49.4558 1543.5 49.5643 1543.89 49.6497C1544.09 49.6924 1544.21 49.7291 1544.27 49.7491C1544.29 49.756 1544.31 49.7609 1544.31 49.7633C1544.39 49.7971 1544.47 49.824 1544.56 49.8437L1544.9 48.3833ZM1544.28 49.7488C1544.28 49.7492 1544.28 49.7496 1544.28 49.7501L1544.28 49.7497L1544.28 49.7488Z" stroke="#FFD600" stroke-width="3" stroke-linecap="round" stroke-linejoin="round"/>
<path d="M1576.24 10.2904L1649.33 -3.87097" stroke="#FFD600" stroke-width="3" stroke-linecap="round" stroke-linejoin="round"/>
<path d="M1538 140.589L1639.12 121" stroke="#FFD600" stroke-width="3" stroke-linecap="round" stroke-linejoin="round"/>
<path d="M1540 149.397L1675 123" stroke="#FFD600" stroke-width="3" stroke-linecap="round" stroke-linejoin="round"/>
<path d="M1578.15 20.1729L1651.25 6.01147" stroke="#FFD600" stroke-width="3" stroke-linecap="round" stroke-linejoin="round"/>
<path d="M1580.07 30.0552L1653.16 15.8938" stroke="#FFD600" stroke-width="3" stroke-linecap="round" stroke-linejoin="round"/>
<circle cx="1486.59" cy="102.404" r="14.6797" transform="rotate(-10.9657 1486.59 102.404)" stroke="#FFD600" stroke-width="3"/>
<circle cx="1609.29" cy="78.6295" r="14.6797" transform="rotate(-10.9657 1609.29 78.6295)" stroke="#FFD600" stroke-width="3"/>
<path fill-rule="evenodd" clip-rule="evenodd" d="M1490.34 121.757C1501.02 119.686 1508.01 109.343 1505.94 98.6548C1503.87 87.9665 1493.52 80.9808 1482.84 83.0517C1472.15 85.1227 1465.16 95.4661 1467.23 106.154C1469.3 116.843 1479.65 123.828 1490.34 121.757ZM1489.38 116.816C1497.34 115.274 1502.54 107.571 1501 99.6121C1499.46 91.6527 1491.75 86.4506 1483.79 87.9928C1475.83 89.535 1470.63 97.2375 1472.17 105.197C1473.72 113.156 1481.42 118.358 1489.38 116.816Z" fill="#FFD600"/>
<path d="M1504.47 98.9401C1506.38 108.815 1499.92 118.371 1490.05 120.285L1490.62 123.23C1502.12 121.001 1509.64 109.871 1507.41 98.3695L1504.47 98.9401ZM1483.12 84.5243C1493 82.611 1502.55 89.0651 1504.47 98.9401L1507.41 98.3695C1505.18 86.8679 1494.05 79.3506 1482.55 81.5791L1483.12 84.5243ZM1468.71 105.869C1466.79 95.994 1473.25 86.4377 1483.12 84.5243L1482.55 81.5791C1471.05 83.8077 1463.53 94.9381 1465.76 106.44L1468.71 105.869ZM1490.05 120.285C1480.17 122.198 1470.62 115.744 1468.71 105.869L1465.76 106.44C1467.99 117.941 1479.12 125.459 1490.62 123.23L1490.05 120.285ZM1499.52 99.8974C1500.91 107.043 1496.24 113.959 1489.09 115.344L1489.66 118.289C1498.44 116.589 1504.17 108.099 1502.47 99.3267L1499.52 99.8974ZM1484.08 89.4654C1491.22 88.0808 1498.14 92.7514 1499.52 99.8974L1502.47 99.3267C1500.77 90.5541 1492.28 84.8204 1483.51 86.5202L1484.08 89.4654ZM1473.65 104.912C1472.26 97.7655 1476.93 90.85 1484.08 89.4654L1483.51 86.5202C1474.74 88.22 1469 96.7095 1470.7 105.482L1473.65 104.912ZM1489.09 115.344C1481.95 116.728 1475.03 112.058 1473.65 104.912L1470.7 105.482C1472.4 114.255 1480.89 119.989 1489.66 118.289L1489.09 115.344Z" fill="#FFD600"/>
<path fill-rule="evenodd" clip-rule="evenodd" d="M1613.04 97.982C1623.73 95.9111 1630.71 85.5677 1628.64 74.8794C1626.57 64.1911 1616.23 57.2054 1605.54 59.2763C1594.85 61.3473 1587.87 71.6907 1589.94 82.3789C1592.01 93.0672 1602.35 100.053 1613.04 97.982ZM1612.08 93.0406C1620.04 91.4984 1625.24 83.7959 1623.7 75.8365C1622.16 67.8772 1614.46 62.675 1606.5 64.2172C1598.54 65.7594 1593.34 73.4619 1594.88 81.4213C1596.42 89.3806 1604.12 94.5828 1612.08 93.0406Z" fill="#FFD600"/>
<path d="M1627.17 75.1647C1629.08 85.0397 1622.63 94.596 1612.76 96.5094L1613.33 99.4546C1624.83 97.2261 1632.34 86.0956 1630.12 74.5941L1627.17 75.1647ZM1605.83 60.749C1615.7 58.8356 1625.26 65.2898 1627.17 75.1647L1630.12 74.5941C1627.89 63.0925 1616.76 55.5752 1605.26 57.8037L1605.83 60.749ZM1591.41 82.0936C1589.5 72.2186 1595.95 62.6623 1605.83 60.749L1605.26 57.8037C1593.75 60.0323 1586.24 71.1627 1588.47 82.6643L1591.41 82.0936ZM1612.76 96.5094C1602.88 98.4227 1593.32 91.9686 1591.41 82.0936L1588.47 82.6643C1590.69 94.1659 1601.82 101.683 1613.33 99.4546L1612.76 96.5094ZM1622.23 76.1219C1623.61 83.2679 1618.94 90.1834 1611.8 91.568L1612.37 94.5132C1621.14 92.8134 1626.87 84.3238 1625.17 75.5512L1622.23 76.1219ZM1606.78 65.6898C1613.93 64.3052 1620.85 68.9758 1622.23 76.1219L1625.17 75.5512C1623.48 66.7785 1614.99 61.0448 1606.21 62.7446L1606.78 65.6898ZM1596.35 81.136C1594.97 73.9899 1599.64 67.0745 1606.78 65.6898L1606.21 62.7446C1597.44 64.4444 1591.71 72.934 1593.41 81.7066L1596.35 81.136ZM1611.8 91.568C1604.65 92.9526 1597.74 88.282 1596.35 81.136L1593.41 81.7066C1595.11 90.4793 1603.6 96.213 1612.37 94.5132L1611.8 91.568Z" fill="#FFD600"/>
<circle cx="1486.59" cy="102.404" r="5.45246" transform="rotate(-10.9657 1486.59 102.404)" stroke="#FFD600" stroke-width="3"/>
<circle cx="1609.29" cy="78.6292" r="5.45246" transform="rotate(-10.9657 1609.29 78.6292)" stroke="#FFD600" stroke-width="3"/>
<circle cx="1432.45" cy="33.5194" r="5" transform="rotate(-10.9657 1432.45 33.5194)" fill="#FFD600"/>
<circle cx="1448.22" cy="30.0767" r="3.5" transform="rotate(-10.9657 1448.22 30.0767)" stroke="#FFD600" stroke-width="3"/>
<circle cx="1463.69" cy="26.6925" r="3.5" transform="rotate(-10.9657 1463.69 26.6925)" stroke="#FFD600" stroke-width="3"/>
<path d="M1459.2 154.133L1516.84 142.964" stroke="#FFD600" stroke-width="3" stroke-linecap="round" stroke-linejoin="round"/>
<path d="M1460.79 162.369L1489.62 156.784L1495.03 155.734L1503.28 154.136M1518.44 151.199L1510.03 152.729" stroke="#FFD600" stroke-width="3" stroke-linecap="round" stroke-linejoin="round"/>
<rect x="1450.76" y="145.389" width="71.6568" height="27.1446" transform="rotate(-10.9657 1450.76 145.389)" stroke="#FFD600" stroke-width="3"/>
<circle cx="1489.92" cy="147.326" r="3.35536" transform="rotate(-10.9657 1489.92 147.326)" fill="#FFD600" stroke="#FFD600" stroke-width="3"/>
<circle cx="1506.5" cy="153.513" r="3.35536" transform="rotate(-10.9657 1506.5 153.513)" stroke="#FFD600" stroke-width="3"/>
<path d="M1596.21 88.686L1504.21 104.686" stroke="#FFD600" stroke-width="3"/>
<rect x="683.031" y="556.874" width="418.867" height="120" rx="31.4465" stroke="#FFD600" stroke-width="3"/>
<rect x="690.58" y="565.176" width="403.773" height="103.396" rx="22.0126" stroke="#FFD600" stroke-width="3"/>
<mask id="path-52-outside-1_1028_5697" maskUnits="userSpaceOnUse" x="858.927" y="581.073" width="68" height="68" fill="black">
<rect fill="white" x="858.927" y="581.073" width="68" height="68"/>
<path fill-rule="evenodd" clip-rule="evenodd" d="M892.463 645.146C909.328 645.146 923 631.475 923 614.61C923 597.745 909.328 584.073 892.463 584.073C875.599 584.073 861.927 597.745 861.927 614.61C861.927 631.475 875.599 645.146 892.463 645.146ZM892.501 642C907.689 642 920.001 629.688 920.001 614.5C920.001 599.312 907.689 587 892.501 587C877.313 587 865.001 599.312 865.001 614.5C865.001 629.688 877.313 642 892.501 642Z"/>
</mask>
<path d="M920 614.61C920 629.818 907.672 642.146 892.463 642.146V648.146C910.985 648.146 926 633.131 926 614.61H920ZM892.463 587.073C907.672 587.073 920 599.401 920 614.61H926C926 596.088 910.985 581.073 892.463 581.073V587.073ZM864.927 614.61C864.927 599.401 877.255 587.073 892.463 587.073V581.073C873.942 581.073 858.927 596.088 858.927 614.61H864.927ZM892.463 642.146C877.255 642.146 864.927 629.818 864.927 614.61H858.927C858.927 633.131 873.942 648.146 892.463 648.146V642.146ZM917.001 614.5C917.001 628.031 906.032 639 892.501 639V645C909.346 645 923.001 631.345 923.001 614.5H917.001ZM892.501 590C906.032 590 917.001 600.969 917.001 614.5H923.001C923.001 597.655 909.346 584 892.501 584V590ZM868.001 614.5C868.001 600.969 878.97 590 892.501 590V584C875.656 584 862.001 597.655 862.001 614.5H868.001ZM892.501 639C878.97 639 868.001 628.031 868.001 614.5H862.001C862.001 631.345 875.656 645 892.501 645V639Z" fill="#FFD600" mask="url(#path-52-outside-1_1028_5697)"/>
<circle cx="892.5" cy="614.5" r="18" fill="#FFD600" stroke="#FFD600" stroke-width="3"/>
<rect x="1021.15" y="584.043" width="9.05658" height="3.77359" rx="1.88679" fill="#FFD600"/>
<rect x="1012.09" y="591.59" width="9.05658" height="3.77359" rx="1.88679" fill="#FFD600"/>
<rect x="1012.09" y="621.025" width="9.05658" height="3.77359" rx="1.88679" fill="#FFD600"/>
<rect x="1012.09" y="606.685" width="9.05658" height="3.77359" rx="1.88679" fill="#FFD600"/>
<rect x="1012.09" y="636.119" width="9.05658" height="3.77359" rx="1.88679" fill="#FFD600"/>
<rect x="1021.15" y="599.138" width="9.05658" height="3.77359" rx="1.88679" fill="#FFD600"/>
<rect x="1021.15" y="613.477" width="9.05658" height="3.77359" rx="1.88679" fill="#FFD600"/>
<rect x="1021.15" y="628.572" width="9.05658" height="3.77359" rx="1.88679" fill="#FFD600"/>
<rect x="1021.15" y="643.666" width="9.05658" height="3.77359" rx="1.88679" fill="#FFD600"/>
<rect x="1003.03" y="599.138" width="9.05658" height="3.77359" rx="1.88679" fill="#FFD600"/>
<rect x="1003.03" y="613.477" width="9.05658" height="3.77359" rx="1.88679" fill="#FFD600"/>
<rect x="1003.03" y="628.572" width="9.05658" height="3.77359" rx="1.88679" fill="#FFD600"/>
<rect x="1039.26" y="599.138" width="9.05658" height="3.77359" rx="1.88679" fill="#FFD600"/>
<rect x="1039.26" y="628.572" width="9.05658" height="3.77359" rx="1.88679" fill="#FFD600"/>
<rect x="1039.26" y="613.477" width="9.05658" height="3.77359" rx="1.88679" fill="#FFD600"/>
<rect x="1039.26" y="643.666" width="9.05658" height="3.77359" rx="1.88679" fill="#FFD600"/>
<rect x="1057.37" y="599.138" width="9.05658" height="3.77359" rx="1.88679" fill="#FFD600"/>
<rect x="1057.37" y="613.477" width="9.05658" height="3.77359" rx="1.88679" fill="#FFD600"/>
<rect x="1057.37" y="628.572" width="9.05658" height="3.77359" rx="1.88679" fill="#FFD600"/>
<rect x="1039.26" y="584.043" width="9.05658" height="3.77359" rx="1.88679" fill="#FFD600"/>
<rect x="1030.21" y="591.59" width="9.05658" height="3.77359" rx="1.88679" fill="#FFD600"/>
<rect x="1030.21" y="621.025" width="9.05658" height="3.77359" rx="1.88679" fill="#FFD600"/>
<rect x="1030.21" y="606.685" width="9.05658" height="3.77359" rx="1.88679" fill="#FFD600"/>
<rect x="1030.21" y="636.119" width="9.05658" height="3.77359" rx="1.88679" fill="#FFD600"/>
<rect x="1048.32" y="591.59" width="9.05658" height="3.77359" rx="1.88679" fill="#FFD600"/>
<rect x="1048.32" y="621.025" width="9.05658" height="3.77359" rx="1.88679" fill="#FFD600"/>
<rect x="1048.32" y="606.685" width="9.05658" height="3.77359" rx="1.88679" fill="#FFD600"/>
<rect x="1048.32" y="636.119" width="9.05658" height="3.77359" rx="1.88679" fill="#FFD600"/>
<rect x="730.58" y="584.043" width="9.05658" height="3.77359" rx="1.88679" fill="#FFD600"/>
<rect x="721.523" y="591.591" width="9.05658" height="3.77359" rx="1.88679" fill="#FFD600"/>
<rect x="721.523" y="621.025" width="9.05658" height="3.77359" rx="1.88679" fill="#FFD600"/>
<rect x="721.523" y="606.685" width="9.05658" height="3.77359" rx="1.88679" fill="#FFD600"/>
<rect x="721.523" y="636.119" width="9.05658" height="3.77359" rx="1.88679" fill="#FFD600"/>
<rect x="730.58" y="599.138" width="9.05658" height="3.77359" rx="1.88679" fill="#FFD600"/>
<rect x="730.58" y="613.477" width="9.05658" height="3.77359" rx="1.88679" fill="#FFD600"/>
<rect x="730.58" y="628.572" width="9.05658" height="3.77359" rx="1.88679" fill="#FFD600"/>
<rect x="730.58" y="643.666" width="9.05658" height="3.77359" rx="1.88679" fill="#FFD600"/>
<rect x="712.467" y="599.138" width="9.05658" height="3.77359" rx="1.88679" fill="#FFD600"/>
<rect x="712.467" y="613.477" width="9.05658" height="3.77359" rx="1.88679" fill="#FFD600"/>
<rect x="712.467" y="628.572" width="9.05658" height="3.77359" rx="1.88679" fill="#FFD600"/>
<rect x="748.692" y="599.138" width="9.05658" height="3.77359" rx="1.88679" fill="#FFD600"/>
<rect x="748.692" y="628.572" width="9.05658" height="3.77359" rx="1.88679" fill="#FFD600"/>
<rect x="748.692" y="613.477" width="9.05658" height="3.77359" rx="1.88679" fill="#FFD600"/>
<rect x="748.692" y="643.666" width="9.05658" height="3.77359" rx="1.88679" fill="#FFD600"/>
<rect x="766.807" y="599.138" width="9.05658" height="3.77359" rx="1.88679" fill="#FFD600"/>
<rect x="766.807" y="613.478" width="9.05658" height="3.77359" rx="1.88679" fill="#FFD600"/>
<rect x="766.807" y="628.572" width="9.05658" height="3.77359" rx="1.88679" fill="#FFD600"/>
<rect x="748.692" y="584.043" width="9.05658" height="3.77359" rx="1.88679" fill="#FFD600"/>
<rect x="739.638" y="591.591" width="9.05658" height="3.77359" rx="1.88679" fill="#FFD600"/>
<rect x="739.638" y="621.025" width="9.05658" height="3.77359" rx="1.88679" fill="#FFD600"/>
<rect x="739.638" y="606.685" width="9.05658" height="3.77359" rx="1.88679" fill="#FFD600"/>
<rect x="739.638" y="636.119" width="9.05658" height="3.77359" rx="1.88679" fill="#FFD600"/>
<rect x="757.75" y="591.591" width="9.05658" height="3.77359" rx="1.88679" fill="#FFD600"/>
<rect x="757.75" y="621.025" width="9.05658" height="3.77359" rx="1.88679" fill="#FFD600"/>
<rect x="757.75" y="606.685" width="9.05658" height="3.77359" rx="1.88679" fill="#FFD600"/>
<rect x="757.75" y="636.119" width="9.05658" height="3.77359" rx="1.88679" fill="#FFD600"/>
<path d="M1078.56 676.092C1079.17 676.029 1079.78 675.966 1080.41 675.902C1089.07 675.008 1099.33 673.948 1104.54 672.723C1114.35 670.414 1118.13 665.176 1120.01 662.534C1122.44 659.138 1123.94 654.665 1124.54 652.723C1126.05 647.817 1126.76 642.534 1126.8 637.628C1126.93 624.798 1127.11 598.157 1126.8 594.232C1126.43 589.326 1125.3 584.798 1124.92 583.289C1124.54 581.779 1121.9 575.688 1117.75 572.723C1115.63 571.213 1115.11 570.836 1112.09 569.326L1087.44 561.288C1096.11 566.591 1101.9 576.151 1101.9 587.062V646.685C1101.9 661 1091.94 672.988 1078.56 676.092Z" stroke="#FFD600" stroke-width="3"/>
<path d="M143.934 219.686L123.291 222.445L113.73 200.971L135.33 200.36L143.934 219.686Z" stroke="#FFD600" stroke-width="3" stroke-linejoin="round"/>
<path d="M71.1663 258.518L80.2491 278.919C81.3645 281.424 83.238 287.366 81.8084 291.09C80.3788 294.814 74.6188 306.727 71.9175 312.219C70.0258 317.147 66.639 326.665 66.2632 330.242C59.3678 351.336 59.9672 374.958 69.7046 396.829C88.112 438.172 133.022 459.438 175.52 449.526L187.315 464.094L213.507 452.432L210.463 433.222L218.115 426.755C246.108 400.462 255.852 358.364 239.349 321.298C225.516 290.229 196.717 270.499 165.222 266.817C162.946 266.822 157.912 266.706 155.981 266.203C152.274 265.257 148.803 264.285 146.708 263.481C143.605 262.29 141.575 260.62 138.229 253.104L129.146 232.704L71.1663 258.518Z" stroke="#FFD600" stroke-width="3" stroke-linejoin="round"/>
<path d="M226.381 326.588L227.751 325.978L226.381 326.588ZM186.119 431.472L185.509 430.102L185.509 430.102L186.119 431.472ZM121.496 286.326L122.106 287.697L121.496 286.326ZM81.2347 391.211L82.6051 390.601L82.6051 390.601L81.2347 391.211ZM208.373 334.605L207.002 335.215L207.002 335.215L208.373 334.605ZM178.101 413.466L178.711 414.836L178.711 414.836L178.101 413.466ZM99.2401 383.194L97.8698 383.804L97.8698 383.804L99.2401 383.194ZM225.01 327.198C242.518 366.522 224.833 412.594 185.509 430.102L186.729 432.842C227.567 414.66 245.933 366.815 227.751 325.978L225.01 327.198ZM122.106 287.697C161.43 270.188 207.502 287.874 225.01 327.198L227.751 325.978C209.569 285.14 161.724 266.774 120.886 284.956L122.106 287.697ZM82.6051 390.601C65.0968 351.277 82.7821 305.205 122.106 287.697L120.886 284.956C80.0483 303.138 61.6823 350.983 79.8644 391.821L82.6051 390.601ZM185.509 430.102C146.185 447.61 100.113 429.925 82.6051 390.601L79.8644 391.821C98.0465 432.659 145.892 451.025 186.729 432.842L185.509 430.102ZM207.002 335.215C220.083 364.594 206.87 399.015 177.491 412.095L178.711 414.836C209.604 401.082 223.497 364.888 209.743 333.995L207.002 335.215ZM130.122 305.703C159.501 292.623 193.922 305.836 207.002 335.215L209.743 333.995C195.989 303.102 159.795 289.208 128.902 302.963L130.122 305.703ZM100.61 382.584C87.5299 353.204 100.743 318.784 130.122 305.703L128.902 302.963C98.0089 316.717 84.1154 352.911 97.8698 383.804L100.61 382.584ZM177.491 412.095C148.111 425.176 113.691 411.963 100.61 382.584L97.8698 383.804C111.624 414.697 147.818 428.59 178.711 414.836L177.491 412.095Z" fill="#FFD600"/>
<ellipse cx="153.807" cy="358.899" rx="60.2318" ry="60.2318" transform="rotate(-24 153.807 358.899)" stroke="#FFD600" stroke-width="3" stroke-linejoin="round"/>
<rect x="53.6035" y="227.741" width="65.8173" height="23.5062" transform="rotate(-24 53.6035 227.741)" stroke="#FFD600" stroke-width="3" stroke-linejoin="round"/>
<path d="M67.837 97.8984C47.099 138.008 53.4203 192.66 60.0445 224.876L113.729 200.974C109.064 183.753 101.999 148.042 101.033 132.004C99.8269 111.957 103.885 85.7334 113.881 68.3936C121.866 54.5423 126.757 51.0784 134.986 43.555L95.0187 61.3495C92.3482 62.5385 89.9713 64.2908 88.1556 66.5818C83.8192 72.0531 75.2221 83.6147 67.837 97.8984Z" stroke="#FFD600" stroke-width="3" stroke-linejoin="round"/>
<path d="M290.406 163.479L298.135 180.84C299.084 182.972 300.68 188.027 299.469 191.194C298.259 194.361 293.378 204.49 291.088 209.158C289.486 213.35 287.141 220.357 285.934 223.775C292.6 203.29 307.936 186.329 329.136 176.891C339.966 172.069 351.305 169.894 362.431 170.086C359.282 169.279 356.334 168.449 354.555 167.763C351.918 166.747 350.193 165.326 347.346 158.93L339.616 141.569L290.406 163.479Z" stroke="#FFD600" stroke-width="3" stroke-linejoin="round"/>
<path d="M239.349 321.298C251.55 348.702 249.404 378.858 236.143 403.343C243.859 390.632 250.242 376.406 252.984 369.262C257.749 356.848 258.455 341.095 254.028 322.482C249.6 303.868 237.179 287.528 228.581 279.777C221.383 273.287 202.555 261.774 185.368 257.847C181.443 256.951 178.276 256.26 175.473 255.649L175.472 255.649C170.731 254.616 167.028 253.809 162.452 252.612C156.628 251.088 153.338 244.662 153.377 243.787L147.163 229.829L129.146 232.704L138.228 253.105C141.575 260.62 143.604 262.29 146.708 263.481C148.802 264.285 150.923 265.047 155.54 265.982L164.968 266.93C195.878 269.893 225.076 289.241 239.349 321.298Z" stroke="#FFD600" stroke-width="3" stroke-linejoin="round"/>
<path d="M342.907 172.464C379.605 163.42 418.7 181.787 434.69 217.701C445.19 241.283 443.401 267.207 432.079 288.237C438.67 277.321 444.114 265.101 446.453 258.962C450.515 248.297 451.094 234.754 447.269 218.743C443.445 202.732 432.775 188.661 425.396 181.983C419.218 176.391 403.066 166.461 388.333 163.057C384.969 162.279 382.254 161.681 379.851 161.15C375.786 160.254 372.612 159.554 368.69 158.517C363.697 157.198 360.867 151.667 360.9 150.915L355.552 138.903L340.119 141.346L347.935 158.901C350.815 165.369 352.556 166.807 355.218 167.837C357.013 168.532 359.989 169.373 363.167 170.192C356.438 170.069 349.632 170.806 342.907 172.464Z" stroke="#FFD600" stroke-width="3" stroke-linejoin="round"/>
<path d="M378.723 328.035L389.253 340.754L413.199 330.093L410.709 313.19C405.675 316.895 400.154 320.126 394.189 322.782C389.107 325.045 383.931 326.788 378.723 328.035Z" stroke="#FFD600" stroke-width="3" stroke-linejoin="round"/>
<path d="M210.325 433.325L213.366 452.514L219.123 443.467L216.927 427.896C214.824 429.796 212.622 431.608 210.325 433.325Z" stroke="#FFD600" stroke-width="3" stroke-linejoin="round"/>
<path d="M410.353 313L413.106 330.134L418.187 322.077L416.194 308.175C414.334 309.864 412.385 311.475 410.353 313Z" stroke="#FFD600" stroke-width="3" stroke-linejoin="round"/>
<path d="M78.4382 248.847L64.2373 248.737L123.291 222.445L143.934 219.686L78.4382 248.847Z" stroke="#FFD600" stroke-width="3" stroke-linejoin="round"/>
<path d="M296.195 155.757L284.112 155.99L334.964 133.349L352.594 130.646L296.195 155.757Z" stroke="#FFD600" stroke-width="3" stroke-linejoin="round"/>
<rect width="39.9605" height="12.1971" transform="matrix(0.913545 -0.406737 -0.406737 -0.913545 87.2705 251.348)" fill="#FFD600"/>
<rect width="35.2593" height="9.40247" transform="matrix(0.913545 -0.406737 -0.406737 -0.913545 302.967 157.887)" fill="#FFD600"/>
<path d="M175.369 47.5597C164.947 45.3371 156.965 46.0306 149.515 47.0604L149.675 46.9283C161.723 37.0355 177.218 32.1527 192.761 30.9598C196.397 30.6808 198.705 30.6256 198.705 30.6256C206.581 30.9784 213.197 32.2203 223.811 34.9968C267.494 46.4241 303.879 87.6913 323.388 114.171L323.748 115.185L281.581 133.959L280.44 133.292C270.764 118.302 246.059 88.0207 235.533 78.6634C214.238 59.7331 194.738 51.6899 175.369 47.5597Z" stroke="#FFD600" stroke-width="3" stroke-linejoin="round"/>
<path d="M433.129 217.953C450.745 257.519 432.951 303.875 393.385 321.491L394.605 324.231C435.685 305.941 454.16 257.813 435.87 216.733L433.129 217.953ZM329.591 178.208C369.158 160.592 415.513 178.387 433.129 217.953L435.87 216.733C417.58 175.653 369.451 157.178 328.371 175.468L329.591 178.208ZM289.847 281.746C272.231 242.18 290.025 195.825 329.591 178.208L328.371 175.468C287.291 193.758 268.816 241.887 287.106 282.967L289.847 281.746ZM393.385 321.491C353.818 339.107 307.463 321.313 289.847 281.746L287.106 282.967C305.396 324.046 353.525 342.521 394.605 324.231L393.385 321.491ZM401.7 230.66C411.97 253.725 401.597 280.748 378.531 291.018L379.751 293.758C404.33 282.815 415.384 254.018 404.441 229.439L401.7 230.66ZM341.343 207.49C364.408 197.221 391.431 207.594 401.7 230.66L404.441 229.439C393.498 204.86 364.701 193.806 340.122 204.75L341.343 207.49ZM318.173 267.848C307.904 244.783 318.277 217.76 341.343 207.49L340.122 204.75C315.543 215.693 304.489 244.489 315.433 269.069L318.173 267.848ZM378.531 291.018C355.466 301.287 328.443 290.914 318.173 267.848L315.433 269.069C326.376 293.648 355.172 304.702 379.751 293.758L378.531 291.018Z" fill="#FFD600"/>
<path d="M352.59 130.647L335.455 132.615L327.042 113.718L345.018 113.64L352.59 130.647Z" stroke="#FFD600" stroke-width="3" stroke-linejoin="round"/>
<rect x="275.507" y="136.663" width="56.4148" height="21.1556" transform="rotate(-24 275.507 136.663)" stroke="#FFD600" stroke-width="3" stroke-linejoin="round"/>
<path d="M155.955 32.9335C146.521 37.1337 139.873 40.0939 134.987 43.5555C133.995 44.4632 133.05 45.312 132.143 46.1269L132.106 46.1599C125.516 52.0816 120.891 56.2368 113.882 68.3944C103.887 85.7342 99.8281 111.957 101.035 132.005C102 148.042 109.064 183.75 113.73 200.972L135.328 200.36C134.926 198.807 134.313 196.956 133.563 194.689C130.972 186.853 126.737 174.05 123.84 151.44C119.162 114.927 124.988 81.7782 132.855 67.6625C138.211 58.0528 143.882 51.684 149.673 46.9292C151.917 45.0859 154.282 43.4166 156.744 41.9127C157.585 41.3987 158.438 40.904 159.301 40.4283C169.471 34.8251 181.102 31.8546 192.76 30.9599C196.396 30.6808 198.704 30.6257 198.704 30.6257C206.58 30.9785 213.195 32.2204 223.809 34.9969C267.493 46.4242 303.878 87.6914 323.387 114.171L323.905 115.115L327.043 113.718L333.334 113.69C330.611 109.266 316.574 88.0942 280.585 58.4963C225.481 13.177 177.353 26.0148 177.353 26.0148C177.353 26.0148 167.794 27.6627 155.983 32.9212L155.955 32.9335Z" stroke="#FFD600" stroke-width="3" stroke-linejoin="round"/>
<path d="M1586.67 185.749C1614.73 216.224 1673 281.474 1681.58 298.667C1687.67 310.878 1694.22 350.4 1698.81 384.286C1665.32 373.669 1596.1 352.208 1587.12 351.299C1575.88 350.161 1570.42 354.558 1567.78 357.725C1565.13 360.892 1562.52 368.743 1565.08 377.69C1567.13 384.848 1577.1 391.905 1581.83 394.539L1624.92 413.313L1751.02 456.251L1999.32 509.099C1999.78 509.123 2002.1 508.693 2007.7 506.782C2014.71 504.394 2019.51 496.933 2022.47 492.956C2025.43 488.98 2029 478.7 2030.17 472.151C2031.34 465.602 2030.84 450.059 2025.31 433.339C2018.98 414.203 2008.46 400.878 2001.79 393.277C1980.43 387.388 1905.01 372.707 1904.39 372.542C1882.39 366.712 1882.53 363.965 1869.02 348.387C1855.51 332.809 1812.58 263.642 1802.48 251.272C1792.39 238.902 1765.47 211.057 1758.65 204.641C1751.82 198.226 1734.29 185.743 1726.59 180.383C1718.88 175.024 1689.5 152.283 1679.04 146.779C1670.68 142.377 1666.76 141.18 1665.84 141.133C1654.3 130.064 1630.26 107.272 1626.43 104.648C1621.65 101.369 1619.71 101.543 1617.21 101.964C1614.71 102.384 1612.7 103.931 1609.98 108.472C1607.81 112.104 1608.86 117.686 1609.66 120.022C1607.5 115.595 1602.48 105.436 1599.67 100.222C1596.16 93.7038 1591.86 91.5516 1588.31 91.0906C1584.75 90.6295 1581.93 91.8595 1578.8 93.8991C1575.66 95.9388 1573.36 102.98 1572.9 106.536C1572.53 109.381 1573.43 112.347 1573.92 113.475C1572.53 115.422 1568.82 122.408 1565.09 134.772C1561.36 147.136 1577.92 173.908 1586.67 185.749Z" stroke="#FFD600" stroke-width="3" stroke-linejoin="round"/>
<path d="M1609.41 119.459C1609.62 122.499 1612.64 132.407 1623.08 147.714C1636.13 166.848 1643.62 176.328 1650.94 183.871C1656.79 189.905 1680.64 212.963 1691.82 223.737C1697.54 228.626 1709.1 241.075 1714.83 247.247C1723.7 256.799 1733.16 270.788 1735.3 277.235" stroke="#FFD600" stroke-width="3" stroke-linejoin="round"/>
<path d="M1698.69 382.461L1702.81 419.582" stroke="#FFD600" stroke-width="3" stroke-linejoin="round"/>
<path d="M1791.17 372.967C1794.81 385.918 1808.05 421.164 1823.02 438.251C1837.99 455.337 1847.36 459.168 1851.28 461.484" stroke="#FFD600" stroke-width="3" stroke-linejoin="round"/>
<path d="M1665.84 141.132C1664.28 141.143 1660.22 143.318 1659.01 145.458C1657.49 148.133 1656.88 154.436 1658.61 158.382C1660.33 162.327 1659.94 164.51 1673.52 178.715C1684.38 190.078 1710.49 212.685 1722.18 222.568C1726.03 226.257 1735.22 235.532 1741.22 243.116C1748.71 252.596 1763.62 272.929 1763.79 274.866" stroke="#FFD600" stroke-width="3" stroke-linejoin="round"/>
<path d="M1573.92 113.475C1577.13 122.364 1585.65 143.116 1594.06 155.012C1604.57 169.883 1616.88 187.326 1626.07 196.068C1635.25 204.81 1646.23 216.124 1653.93 221.484C1661.64 226.844 1675.12 237.738 1678.53 240.946C1681.95 244.153 1698.13 261.248 1702.56 271.394C1706.1 279.511 1707.48 282.668 1707.72 283.231" stroke="#FFD600" stroke-width="3" stroke-linejoin="round"/>
</g>
</g>
<defs>
<clipPath id="clip0_1028_5697">
<rect width="1920" height="768" fill="white"/>
</clipPath>
<clipPath id="clip1_1028_5697">
<rect width="2012.54" height="768" fill="white" transform="translate(-19)"/>
</clipPath>
</defs>
</svg>
